<?xml version="1.0" encoding="us-ascii" standalone="no"?><svg xmlns="http://www.w3.org/2000/svg" xmlns:xlink="http://www.w3.org/1999/xlink" contentStyleType="text/css" height="606px" preserveAspectRatio="none" style="width:383px;height:606px;background:#FFFFFF;" version="1.1" viewBox="0 0 383 606" width="383px" zoomAndPan="magnify"><defs/><g><ellipse cx="176.75" cy="20" fill="#222222" rx="10" ry="10" style="stroke:#222222;stroke-width:1.0;"/><rect fill="#F1F1F1" height="35.0938" rx="12.5" ry="12.5" style="stroke:#181818;stroke-width:0.5;" width="227" x="63.25" y="50"/><text fill="#000000" font-family="sans-serif" font-size="12" lengthAdjust="spacing" textLength="207" x="73.25" y="72.457">call switch_safely_... via cmd_number</text><polygon fill="#F1F1F1" points="121.25,154.0117,232.25,154.0117,244.25,166.0117,232.25,178.0117,121.25,178.0117,109.25,166.0117,121.25,154.0117" style="stroke:#181818;stroke-width:0.5;"/><text fill="#000000" font-family="sans-serif" font-size="11" lengthAdjust="spacing" textLength="111" x="121.25" y="170.5127">temperature up-to-date</text><text fill="#000000" font-family="sans-serif" font-size="11" lengthAdjust="spacing" textLength="18" x="91.25" y="163.5947">yes</text><text fill="#000000" font-family="sans-serif" font-size="11" lengthAdjust="spacing" textLength="12" x="244.25" y="163.5947">no</text><rect fill="#F1F1F1" height="35.0938" rx="12.5" ry="12.5" style="stroke:#181818;stroke-width:0.5;" width="126" x="16" y="285.8477"/><text fill="#000000" font-family="sans-serif" font-size="12" lengthAdjust="spacing" textLength="106" x="26" y="308.3047">switch to new value</text><polygon fill="#F1F1F1" points="32,236.9297,126,236.9297,138,248.9297,126,260.9297,32,260.9297,20,248.9297,32,236.9297" style="stroke:#181818;stroke-width:0.5;"/><text fill="#000000" font-family="sans-serif" font-size="11" lengthAdjust="spacing" textLength="18" x="83" y="272.3486">yes</text><text fill="#000000" font-family="sans-serif" font-size="11" lengthAdjust="spacing" textLength="94" x="32" y="253.4307">right command type</text><text fill="#000000" font-family="sans-serif" font-size="11" lengthAdjust="spacing" textLength="12" x="138" y="246.5127">no</text><polygon fill="#F1F1F1" points="79,340.9414,91,352.9414,79,364.9414,67,352.9414,79,340.9414" style="stroke:#181818;stroke-width:0.5;"/><polygon fill="#F1F1F1" points="50,188.0117,108,188.0117,120,200.0117,108,212.0117,50,212.0117,38,200.0117,50,188.0117" style="stroke:#181818;stroke-width:0.5;"/><text fill="#000000" font-family="sans-serif" font-size="11" lengthAdjust="spacing" textLength="11" x="83" y="223.4307">ok</text><text fill="#000000" font-family="sans-serif" font-size="11" lengthAdjust="spacing" textLength="58" x="50" y="204.5127">temperature</text><text fill="#000000" font-family="sans-serif" font-size="11" lengthAdjust="spacing" textLength="32" x="120" y="197.5947">to high</text><polygon fill="#F1F1F1" points="79,384.9414,91,396.9414,79,408.9414,67,396.9414,79,384.9414" style="stroke:#181818;stroke-width:0.5;"/><rect fill="#F1F1F1" height="35.0938" rx="12.5" ry="12.5" style="stroke:#181818;stroke-width:0.5;" width="137" x="206" y="188.0117"/><text fill="#000000" font-family="sans-serif" font-size="12" lengthAdjust="spacing" textLength="117" x="216" y="210.4688">turn off all appliances</text><polygon fill="#F1F1F1" points="176.75,414.9414,188.75,426.9414,176.75,438.9414,164.75,426.9414,176.75,414.9414" style="stroke:#181818;stroke-width:0.5;"/><polygon fill="#F1F1F1" points="145.75,105.0938,207.75,105.0938,219.75,117.0938,207.75,129.0938,145.75,129.0938,133.75,117.0938,145.75,105.0938" style="stroke:#181818;stroke-width:0.5;"/><text fill="#000000" font-family="sans-serif" font-size="11" lengthAdjust="spacing" textLength="22" x="180.75" y="140.5127">valid</text><text fill="#000000" font-family="sans-serif" font-size="11" lengthAdjust="spacing" textLength="62" x="145.75" y="121.5947">cmd_number</text><text fill="#000000" font-family="sans-serif" font-size="11" lengthAdjust="spacing" textLength="40" x="219.75" y="114.6768">not valid</text><polygon fill="#F1F1F1" points="176.75,458.9414,188.75,470.9414,176.75,482.9414,164.75,470.9414,176.75,458.9414" style="stroke:#181818;stroke-width:0.5;"/><rect fill="#F1F1F1" height="50.1875" rx="12.5" ry="12.5" style="stroke:#181818;stroke-width:0.5;" width="172" x="90.75" y="502.9414"/><text fill="#000000" font-family="sans-serif" font-size="12" lengthAdjust="spacing" textLength="140" x="100.75" y="525.3984">return physically set value</text><text fill="#000000" font-family="sans-serif" font-size="12" lengthAdjust="spacing" textLength="152" x="100.75" y="540.4922">or off_value if error occurred</text><ellipse cx="176.75" cy="584.1289" fill="none" rx="11" ry="11" style="stroke:#222222;stroke-width:1.0;"/><ellipse cx="176.75" cy="584.1289" fill="#222222" rx="6" ry="6" style="stroke:#111111;stroke-width:1.0;"/><line style="stroke:#181818;stroke-width:1.0;" x1="176.75" x2="176.75" y1="30" y2="50"/><polygon fill="#181818" points="172.75,40,176.75,50,180.75,40,176.75,44" style="stroke:#181818;stroke-width:1.0;"/><line style="stroke:#181818;stroke-width:1.0;" x1="79" x2="79" y1="260.9297" y2="285.8477"/><polygon fill="#181818" points="75,275.8477,79,285.8477,83,275.8477,79,279.8477" style="stroke:#181818;stroke-width:1.0;"/><line style="stroke:#181818;stroke-width:1.0;" x1="138" x2="152" y1="248.9297" y2="248.9297"/><polygon fill="#181818" points="148,293.3945,152,303.3945,156,293.3945,152,297.3945" style="stroke:#181818;stroke-width:1.0;"/><line style="stroke:#181818;stroke-width:1.0;" x1="152" x2="152" y1="248.9297" y2="352.9414"/><line style="stroke:#181818;stroke-width:1.0;" x1="152" x2="91" y1="352.9414" y2="352.9414"/><polygon fill="#181818" points="101,348.9414,91,352.9414,101,356.9414,97,352.9414" style="stroke:#181818;stroke-width:1.0;"/><line style="stroke:#181818;stroke-width:1.0;" x1="79" x2="79" y1="320.9414" y2="340.9414"/><polygon fill="#181818" points="75,330.9414,79,340.9414,83,330.9414,79,334.9414" style="stroke:#181818;stroke-width:1.0;"/><line style="stroke:#181818;stroke-width:1.0;" x1="79" x2="79" y1="212.0117" y2="236.9297"/><polygon fill="#181818" points="75,226.9297,79,236.9297,83,226.9297,79,230.9297" style="stroke:#181818;stroke-width:1.0;"/><line style="stroke:#181818;stroke-width:1.0;" x1="120" x2="174" y1="200.0117" y2="200.0117"/><polygon fill="#181818" points="170,293.3945,174,303.3945,178,293.3945,174,297.3945" style="stroke:#181818;stroke-width:1.0;"/><line style="stroke:#181818;stroke-width:1.0;" x1="174" x2="174" y1="200.0117" y2="396.9414"/><line style="stroke:#181818;stroke-width:1.0;" x1="174" x2="91" y1="396.9414" y2="396.9414"/><polygon fill="#181818" points="101,392.9414,91,396.9414,101,400.9414,97,396.9414" style="stroke:#181818;stroke-width:1.0;"/><line style="stroke:#181818;stroke-width:1.0;" x1="79" x2="79" y1="364.9414" y2="384.9414"/><polygon fill="#181818" points="75,374.9414,79,384.9414,83,374.9414,79,378.9414" style="stroke:#181818;stroke-width:1.0;"/><line style="stroke:#181818;stroke-width:1.0;" x1="109.25" x2="79" y1="166.0117" y2="166.0117"/><line style="stroke:#181818;stroke-width:1.0;" x1="79" x2="79" y1="166.0117" y2="188.0117"/><polygon fill="#181818" points="75,178.0117,79,188.0117,83,178.0117,79,182.0117" style="stroke:#181818;stroke-width:1.0;"/><line style="stroke:#181818;stroke-width:1.0;" x1="244.25" x2="274.5" y1="166.0117" y2="166.0117"/><line style="stroke:#181818;stroke-width:1.0;" x1="274.5" x2="274.5" y1="166.0117" y2="188.0117"/><polygon fill="#181818" points="270.5,178.0117,274.5,188.0117,278.5,178.0117,274.5,182.0117" style="stroke:#181818;stroke-width:1.0;"/><line style="stroke:#181818;stroke-width:1.0;" x1="79" x2="79" y1="408.9414" y2="426.9414"/><line style="stroke:#181818;stroke-width:1.0;" x1="79" x2="164.75" y1="426.9414" y2="426.9414"/><polygon fill="#181818" points="154.75,422.9414,164.75,426.9414,154.75,430.9414,158.75,426.9414" style="stroke:#181818;stroke-width:1.0;"/><line style="stroke:#181818;stroke-width:1.0;" x1="274.5" x2="274.5" y1="223.1055" y2="426.9414"/><line style="stroke:#181818;stroke-width:1.0;" x1="274.5" x2="188.75" y1="426.9414" y2="426.9414"/><polygon fill="#181818" points="198.75,422.9414,188.75,426.9414,198.75,430.9414,194.75,426.9414" style="stroke:#181818;stroke-width:1.0;"/><line style="stroke:#181818;stroke-width:1.0;" x1="176.75" x2="176.75" y1="129.0938" y2="154.0117"/><polygon fill="#181818" points="172.75,144.0117,176.75,154.0117,180.75,144.0117,176.75,148.0117" style="stroke:#181818;stroke-width:1.0;"/><line style="stroke:#181818;stroke-width:1.0;" x1="219.75" x2="357" y1="117.0938" y2="117.0938"/><polygon fill="#181818" points="353,291.3945,357,301.3945,361,291.3945,357,295.3945" style="stroke:#181818;stroke-width:1.0;"/><line style="stroke:#181818;stroke-width:1.0;" x1="357" x2="357" y1="117.0938" y2="470.9414"/><line style="stroke:#181818;stroke-width:1.0;" x1="357" x2="188.75" y1="470.9414" y2="470.9414"/><polygon fill="#181818" points="198.75,466.9414,188.75,470.9414,198.75,474.9414,194.75,470.9414" style="stroke:#181818;stroke-width:1.0;"/><line style="stroke:#181818;stroke-width:1.0;" x1="176.75" x2="176.75" y1="438.9414" y2="458.9414"/><polygon fill="#181818" points="172.75,448.9414,176.75,458.9414,180.75,448.9414,176.75,452.9414" style="stroke:#181818;stroke-width:1.0;"/><line style="stroke:#181818;stroke-width:1.0;" x1="176.75" x2="176.75" y1="85.0938" y2="105.0938"/><polygon fill="#181818" points="172.75,95.0938,176.75,105.0938,180.75,95.0938,176.75,99.0938" style="stroke:#181818;stroke-width:1.0;"/><line style="stroke:#181818;stroke-width:1.0;" x1="176.75" x2="176.75" y1="482.9414" y2="502.9414"/><polygon fill="#181818" points="172.75,492.9414,176.75,502.9414,180.75,492.9414,176.75,496.9414" style="stroke:#181818;stroke-width:1.0;"/><line style="stroke:#181818;stroke-width:1.0;" x1="176.75" x2="176.75" y1="553.1289" y2="573.1289"/><polygon fill="#181818" points="172.75,563.1289,176.75,573.1289,180.75,563.1289,176.75,567.1289" style="stroke:#181818;stroke-width:1.0;"/><!--SRC=[RP5BZiCW38RtdC9BkcWEa1mcec0cgBnaJ2jkFsIOA8eKxsnz_-zNOKKiPgsyX_9rhBUrA8k-hTCqmSSfqC6iiOONqYASbMVw0DumWlmexyn3G0zdGJA6ZAIu4aBDJqvFenWFk64Pw0r-CEbz8WEJv7us1fr2KD40jtnlUCGyLW5E4F4BVSAAouL2Nn1aJ5SjHkEik3BTO-lTJt10ujvbxej4IDR2Vb6LitSgQYoZ-v0UAeR_qutoJFWdpbihRdz8Wu8yXWUHQ7TTHzOFXqHxIUjAX6OHXLF-1G00]--></g></svg>