<?xml version="1.0" encoding="us-ascii" standalone="no"?><svg xmlns="http://www.w3.org/2000/svg" xmlns:xlink="http://www.w3.org/1999/xlink" contentStyleType="text/css" height="1148px" preserveAspectRatio="none" style="width:1226px;height:1148px;background:#FFFFFF;" version="1.1" viewBox="0 0 1226 1148" width="1226px" zoomAndPan="magnify"><defs/><g><ellipse cx="441.25" cy="20" fill="#222222" rx="10" ry="10" style="stroke:#222222;stroke-width:1.0;"/><rect fill="none" height="327.4453" style="stroke:#000000;stroke-width:1.5;" width="419.5" x="324.75" y="40"/><path d="M407.75,40 L407.75,50.6094 L397.75,60.6094 L324.75,60.6094 " fill="none" style="stroke:#000000;stroke-width:1.5;"/><text fill="#000000" font-family="sans-serif" font-size="14" lengthAdjust="spacing" textLength="73" x="327.75" y="55.5332">initialisation</text><path d="M546.25,70.6094 L546.25,138.8398 L526.25,142.8398 L546.25,146.8398 L546.25,215.0703 A0,0 0 0 0 546.25,215.0703 L734.25,215.0703 A0,0 0 0 0 734.25,215.0703 L734.25,80.6094 L724.25,70.6094 L546.25,70.6094 A0,0 0 0 0 546.25,70.6094 " fill="#FEFFDD" style="stroke:#181818;stroke-width:0.5;"/><path d="M724.25,70.6094 L724.25,80.6094 L734.25,80.6094 L724.25,70.6094 " fill="#FEFFDD" style="stroke:#181818;stroke-width:0.5;"/><text fill="#000000" font-family="sans-serif" font-size="13" lengthAdjust="spacing" textLength="150" x="552.25" y="89.1045">pass following parameters</text><line style="stroke:#181818;stroke-width:1.0;" x1="546.25" x2="734.25" y1="96.9609" y2="96.9609"/><line style="stroke:#181818;stroke-width:1.0;" x1="546.25" x2="734.25" y1="98.9609" y2="98.9609"/><text fill="#000000" font-family="sans-serif" font-size="13" lengthAdjust="spacing" textLength="105" x="552.25" y="115.4561">dimmable_cli_ctx:</text><text fill="#000000" font-family="sans-serif" font-size="13" lengthAdjust="spacing" textLength="163" x="552.25" y="131.8076">struct that saves information</text><text fill="#000000" font-family="sans-serif" font-size="13" lengthAdjust="spacing" textLength="150" x="552.25" y="148.1592">about the server to control</text><line style="stroke:#181818;stroke-width:1.0;" x1="546.25" x2="734.25" y1="156.0156" y2="156.0156"/><text fill="#000000" font-family="sans-serif" font-size="13" lengthAdjust="spacing" textLength="143" x="552.25" y="174.5107">onOff_dim_decider_data:</text><text fill="#000000" font-family="sans-serif" font-size="13" lengthAdjust="spacing" textLength="122" x="552.25" y="190.8623">struct to save current</text><text fill="#000000" font-family="sans-serif" font-size="13" lengthAdjust="spacing" textLength="96" x="552.25" y="207.2139">state of dimming</text><rect fill="#F1F1F1" height="35.0938" rx="12.5" ry="12.5" style="stroke:#181818;stroke-width:0.5;" width="170" x="356.25" y="125.293"/><text fill="#000000" font-family="sans-serif" font-size="12" lengthAdjust="spacing" textLength="150" x="366.25" y="147.75">call onOff_dim_decider_init</text><rect fill="#F1F1F1" height="50.1875" rx="12.5" ry="12.5" style="stroke:#181818;stroke-width:0.5;" width="210" x="336.25" y="235.0703"/><text fill="#000000" font-family="sans-serif" font-size="12" lengthAdjust="spacing" textLength="190" x="346.25" y="257.5273">add "onOff_dim_decider_pressed"</text><text fill="#000000" font-family="sans-serif" font-size="12" lengthAdjust="spacing" textLength="125" x="346.25" y="272.6211">as an interrupt function</text><rect fill="#F1F1F1" height="50.1875" rx="12.5" ry="12.5" style="stroke:#181818;stroke-width:0.5;" width="213" x="334.75" y="305.2578"/><text fill="#000000" font-family="sans-serif" font-size="12" lengthAdjust="spacing" textLength="193" x="344.75" y="327.7148">add "onOff_dim_decider_released"</text><text fill="#000000" font-family="sans-serif" font-size="12" lengthAdjust="spacing" textLength="125" x="344.75" y="342.8086">as an interrupt function</text><path d="M371.75,431.4453 L366.75,448.9922 L371.75,466.5391 M510.75,431.4453 L515.75,448.9922 L510.75,466.5391 " fill="#F1F1F1" style="stroke:#181818;stroke-width:0.5;"/><text fill="#000000" font-family="sans-serif" font-size="12" lengthAdjust="spacing" textLength="129" x="376.75" y="453.9023">when button is pressed</text><polygon fill="#F1F1F1" points="409.75,486.5391,472.75,486.5391,484.75,498.5391,472.75,510.5391,409.75,510.5391,397.75,498.5391,409.75,486.5391" style="stroke:#181818;stroke-width:0.5;"/><text fill="#000000" font-family="sans-serif" font-size="11" lengthAdjust="spacing" textLength="63" x="409.75" y="503.04">last_pressed</text><text fill="#000000" font-family="sans-serif" font-size="11" lengthAdjust="spacing" textLength="19" x="378.75" y="496.1221">true</text><text fill="#000000" font-family="sans-serif" font-size="11" lengthAdjust="spacing" textLength="24" x="484.75" y="496.1221">false</text><path d="M15,520.5391 L10,538.0859 L15,555.6328 M291,520.5391 L296,538.0859 L291,555.6328 " fill="#F1F1F1" style="stroke:#181818;stroke-width:0.5;"/><text fill="#000000" font-family="sans-serif" font-size="12" lengthAdjust="spacing" textLength="266" x="20" y="542.9961">skip, rising edge has been toggled consecutively</text><rect fill="#F1F1F1" height="35.0938" rx="12.5" ry="12.5" style="stroke:#181818;stroke-width:0.5;" width="150" x="674.5" y="520.5391"/><text fill="#000000" font-family="sans-serif" font-size="12" lengthAdjust="spacing" textLength="130" x="684.5" y="542.9961">set last_pressed to true</text><rect fill="#F1F1F1" height="35.0938" rx="12.5" ry="12.5" style="stroke:#181818;stroke-width:0.5;" width="171" x="664" y="575.6328"/><text fill="#000000" font-family="sans-serif" font-size="12" lengthAdjust="spacing" textLength="151" x="674" y="598.0898">schedule dimming process</text><rect fill="#F1F1F1" height="35.0938" rx="12.5" ry="12.5" style="stroke:#181818;stroke-width:0.5;" width="75" x="712" y="630.7266"/><text fill="#000000" font-family="sans-serif" font-size="12" lengthAdjust="spacing" textLength="55" x="722" y="653.1836">start timer</text><path d="M678.5,685.8203 L673.5,703.3672 L678.5,720.9141 M820.5,685.8203 L825.5,703.3672 L820.5,720.9141 " fill="#F1F1F1" style="stroke:#181818;stroke-width:0.5;"/><text fill="#000000" font-family="sans-serif" font-size="12" lengthAdjust="spacing" textLength="132" x="683.5" y="708.2773">when button is released</text><polygon fill="#F1F1F1" points="718,740.9141,781,740.9141,793,752.9141,781,764.9141,718,764.9141,706,752.9141,718,740.9141" style="stroke:#181818;stroke-width:0.5;"/><text fill="#000000" font-family="sans-serif" font-size="11" lengthAdjust="spacing" textLength="63" x="718" y="757.415">last_pressed</text><text fill="#000000" font-family="sans-serif" font-size="11" lengthAdjust="spacing" textLength="24" x="682" y="750.4971">false</text><text fill="#000000" font-family="sans-serif" font-size="11" lengthAdjust="spacing" textLength="19" x="793" y="750.4971">true</text><path d="M311,774.9141 L306,792.4609 L311,810.0078 M589,774.9141 L594,792.4609 L589,810.0078 " fill="#F1F1F1" style="stroke:#181818;stroke-width:0.5;"/><text fill="#000000" font-family="sans-serif" font-size="12" lengthAdjust="spacing" textLength="268" x="316" y="797.3711">skip, falling edge has been toggled consecutively</text><rect fill="#F1F1F1" height="35.0938" rx="12.5" ry="12.5" style="stroke:#181818;stroke-width:0.5;" width="156" x="951" y="774.9141"/><text fill="#000000" font-family="sans-serif" font-size="12" lengthAdjust="spacing" textLength="136" x="961" y="797.3711">set last_pressed to false</text><rect fill="#F1F1F1" height="35.0938" rx="12.5" ry="12.5" style="stroke:#181818;stroke-width:0.5;" width="227" x="915.5" y="830.0078"/><text fill="#000000" font-family="sans-serif" font-size="12" lengthAdjust="spacing" textLength="207" x="925.5" y="852.4648">stop timer and calculate time pressed</text><path d="M614,940.168 L614,999.2227 L856,999.2227 L856,950.168 L846,940.168 L614,940.168 " fill="#FEFFDD" style="stroke:#181818;stroke-width:0.5;"/><path d="M846,940.168 L846,950.168 L856,950.168 L846,940.168 " fill="#FEFFDD" style="stroke:#181818;stroke-width:0.5;"/><text fill="#000000" font-family="sans-serif" font-size="13" lengthAdjust="spacing" textLength="149" x="620" y="958.6631">the time threshold is fixed</text><text fill="#000000" font-family="sans-serif" font-size="13" lengthAdjust="spacing" textLength="86" x="620" y="975.0146">in the constant</text><text fill="#000000" font-family="sans-serif" font-size="13" lengthAdjust="spacing" textLength="221" x="620" y="991.3662">"TIME_ONOFF_DIM_DECIDE_4_DIM"</text><polygon fill="#F1F1F1" points="998,885.1016,1060,885.1016,1072,897.1016,1060,909.1016,998,909.1016,986,897.1016,998,885.1016" style="stroke:#181818;stroke-width:0.5;"/><text fill="#000000" font-family="sans-serif" font-size="11" lengthAdjust="spacing" textLength="62" x="998" y="901.6025">time pressed</text><text fill="#000000" font-family="sans-serif" font-size="11" lengthAdjust="spacing" textLength="54" x="932" y="894.6846">&lt; threshold</text><text fill="#000000" font-family="sans-serif" font-size="11" lengthAdjust="spacing" textLength="54" x="1072" y="894.6846">&gt; threshold</text><rect fill="#F1F1F1" height="35.0938" rx="12.5" ry="12.5" style="stroke:#181818;stroke-width:0.5;" width="156" x="866" y="919.1016"/><text fill="#000000" font-family="sans-serif" font-size="12" lengthAdjust="spacing" textLength="136" x="876" y="941.5586">cancel dimming process</text><rect fill="#F1F1F1" height="35.0938" rx="12.5" ry="12.5" style="stroke:#181818;stroke-width:0.5;" width="124" x="882" y="989.1953"/><text fill="#000000" font-family="sans-serif" font-size="12" lengthAdjust="spacing" textLength="104" x="892" y="1011.6523">call toggle process</text><rect fill="#F1F1F1" height="35.0938" rx="12.5" ry="12.5" style="stroke:#181818;stroke-width:0.5;" width="144" x="1042" y="919.1016"/><text fill="#000000" font-family="sans-serif" font-size="12" lengthAdjust="spacing" textLength="124" x="1052" y="941.5586">stop dimming process</text><polygon fill="#F1F1F1" points="1029,1030.2891,1041,1042.2891,1029,1054.2891,1017,1042.2891,1029,1030.2891" style="stroke:#181818;stroke-width:0.5;"/><polygon fill="#F1F1F1" points="749.5,1060.2891,761.5,1072.2891,749.5,1084.2891,737.5,1072.2891,749.5,1060.2891" style="stroke:#181818;stroke-width:0.5;"/><polygon fill="#F1F1F1" points="441.25,1090.2891,453.25,1102.2891,441.25,1114.2891,429.25,1102.2891,441.25,1090.2891" style="stroke:#181818;stroke-width:0.5;"/><polygon fill="#F1F1F1" points="411.75,387.4453,470.75,387.4453,482.75,399.4453,470.75,411.4453,411.75,411.4453,399.75,399.4453,411.75,387.4453" style="stroke:#181818;stroke-width:0.5;"/><text fill="#000000" font-family="sans-serif" font-size="11" lengthAdjust="spacing" textLength="59" x="411.75" y="403.9463">loop forever</text><line style="stroke:#181818;stroke-width:1.0;" x1="441.25" x2="441.25" y1="160.3867" y2="235.0703"/><polygon fill="#181818" points="437.25,225.0703,441.25,235.0703,445.25,225.0703,441.25,229.0703" style="stroke:#181818;stroke-width:1.0;"/><line style="stroke:#181818;stroke-width:1.0;" x1="441.25" x2="441.25" y1="285.2578" y2="305.2578"/><polygon fill="#181818" points="437.25,295.2578,441.25,305.2578,445.25,295.2578,441.25,299.2578" style="stroke:#181818;stroke-width:1.0;"/><line style="stroke:#181818;stroke-width:1.0;" x1="441.25" x2="441.25" y1="30" y2="125.293"/><polygon fill="#181818" points="437.25,115.293,441.25,125.293,445.25,115.293,441.25,119.293" style="stroke:#181818;stroke-width:1.0;"/><line style="stroke:#181818;stroke-width:1.0;" x1="749.5" x2="749.5" y1="555.6328" y2="575.6328"/><polygon fill="#181818" points="745.5,565.6328,749.5,575.6328,753.5,565.6328,749.5,569.6328" style="stroke:#181818;stroke-width:1.0;"/><line style="stroke:#181818;stroke-width:1.0;" x1="749.5" x2="749.5" y1="610.7266" y2="630.7266"/><polygon fill="#181818" points="745.5,620.7266,749.5,630.7266,753.5,620.7266,749.5,624.7266" style="stroke:#181818;stroke-width:1.0;"/><line style="stroke:#181818;stroke-width:1.0;" x1="749.5" x2="749.5" y1="665.8203" y2="685.8203"/><polygon fill="#181818" points="745.5,675.8203,749.5,685.8203,753.5,675.8203,749.5,679.8203" style="stroke:#181818;stroke-width:1.0;"/><line style="stroke:#181818;stroke-width:1.0;" x1="1029" x2="1029" y1="810.0078" y2="830.0078"/><polygon fill="#181818" points="1025,820.0078,1029,830.0078,1033,820.0078,1029,824.0078" style="stroke:#181818;stroke-width:1.0;"/><line style="stroke:#181818;stroke-width:1.0;" x1="944" x2="944" y1="954.1953" y2="989.1953"/><polygon fill="#181818" points="940,979.1953,944,989.1953,948,979.1953,944,983.1953" style="stroke:#181818;stroke-width:1.0;"/><line style="stroke:#181818;stroke-width:1.0;" x1="986" x2="944" y1="897.1016" y2="897.1016"/><line style="stroke:#181818;stroke-width:1.0;" x1="944" x2="944" y1="897.1016" y2="919.1016"/><polygon fill="#181818" points="940,909.1016,944,919.1016,948,909.1016,944,913.1016" style="stroke:#181818;stroke-width:1.0;"/><line style="stroke:#181818;stroke-width:1.0;" x1="1072" x2="1114" y1="897.1016" y2="897.1016"/><line style="stroke:#181818;stroke-width:1.0;" x1="1114" x2="1114" y1="897.1016" y2="919.1016"/><polygon fill="#181818" points="1110,909.1016,1114,919.1016,1118,909.1016,1114,913.1016" style="stroke:#181818;stroke-width:1.0;"/><line style="stroke:#181818;stroke-width:1.0;" x1="944" x2="944" y1="1024.2891" y2="1042.2891"/><line style="stroke:#181818;stroke-width:1.0;" x1="944" x2="1017" y1="1042.2891" y2="1042.2891"/><polygon fill="#181818" points="1007,1038.2891,1017,1042.2891,1007,1046.2891,1011,1042.2891" style="stroke:#181818;stroke-width:1.0;"/><line style="stroke:#181818;stroke-width:1.0;" x1="1114" x2="1114" y1="954.1953" y2="1042.2891"/><line style="stroke:#181818;stroke-width:1.0;" x1="1114" x2="1041" y1="1042.2891" y2="1042.2891"/><polygon fill="#181818" points="1051,1038.2891,1041,1042.2891,1051,1046.2891,1047,1042.2891" style="stroke:#181818;stroke-width:1.0;"/><line style="stroke:#181818;stroke-width:1.0;" x1="1029" x2="1029" y1="865.1016" y2="885.1016"/><polygon fill="#181818" points="1025,875.1016,1029,885.1016,1033,875.1016,1029,879.1016" style="stroke:#181818;stroke-width:1.0;"/><line style="stroke:#181818;stroke-width:1.0;" x1="706" x2="450" y1="752.9141" y2="752.9141"/><line style="stroke:#181818;stroke-width:1.0;" x1="450" x2="450" y1="752.9141" y2="774.9141"/><polygon fill="#181818" points="446,764.9141,450,774.9141,454,764.9141,450,768.9141" style="stroke:#181818;stroke-width:1.0;"/><line style="stroke:#181818;stroke-width:1.0;" x1="793" x2="1029" y1="752.9141" y2="752.9141"/><line style="stroke:#181818;stroke-width:1.0;" x1="1029" x2="1029" y1="752.9141" y2="774.9141"/><polygon fill="#181818" points="1025,764.9141,1029,774.9141,1033,764.9141,1029,768.9141" style="stroke:#181818;stroke-width:1.0;"/><line style="stroke:#181818;stroke-width:1.0;" x1="450" x2="450" y1="810.0078" y2="1072.2891"/><line style="stroke:#181818;stroke-width:1.0;" x1="450" x2="737.5" y1="1072.2891" y2="1072.2891"/><polygon fill="#181818" points="727.5,1068.2891,737.5,1072.2891,727.5,1076.2891,731.5,1072.2891" style="stroke:#181818;stroke-width:1.0;"/><line style="stroke:#181818;stroke-width:1.0;" x1="1029" x2="1029" y1="1054.2891" y2="1072.2891"/><line style="stroke:#181818;stroke-width:1.0;" x1="1029" x2="761.5" y1="1072.2891" y2="1072.2891"/><polygon fill="#181818" points="771.5,1068.2891,761.5,1072.2891,771.5,1076.2891,767.5,1072.2891" style="stroke:#181818;stroke-width:1.0;"/><line style="stroke:#181818;stroke-width:1.0;" x1="749.5" x2="749.5" y1="720.9141" y2="740.9141"/><polygon fill="#181818" points="745.5,730.9141,749.5,740.9141,753.5,730.9141,749.5,734.9141" style="stroke:#181818;stroke-width:1.0;"/><line style="stroke:#181818;stroke-width:1.0;" x1="397.75" x2="153" y1="498.5391" y2="498.5391"/><line style="stroke:#181818;stroke-width:1.0;" x1="153" x2="153" y1="498.5391" y2="520.5391"/><polygon fill="#181818" points="149,510.5391,153,520.5391,157,510.5391,153,514.5391" style="stroke:#181818;stroke-width:1.0;"/><line style="stroke:#181818;stroke-width:1.0;" x1="484.75" x2="749.5" y1="498.5391" y2="498.5391"/><line style="stroke:#181818;stroke-width:1.0;" x1="749.5" x2="749.5" y1="498.5391" y2="520.5391"/><polygon fill="#181818" points="745.5,510.5391,749.5,520.5391,753.5,510.5391,749.5,514.5391" style="stroke:#181818;stroke-width:1.0;"/><line style="stroke:#181818;stroke-width:1.0;" x1="153" x2="153" y1="555.6328" y2="1102.2891"/><line style="stroke:#181818;stroke-width:1.0;" x1="153" x2="429.25" y1="1102.2891" y2="1102.2891"/><polygon fill="#181818" points="419.25,1098.2891,429.25,1102.2891,419.25,1106.2891,423.25,1102.2891" style="stroke:#181818;stroke-width:1.0;"/><line style="stroke:#181818;stroke-width:1.0;" x1="749.5" x2="749.5" y1="1084.2891" y2="1102.2891"/><line style="stroke:#181818;stroke-width:1.0;" x1="749.5" x2="453.25" y1="1102.2891" y2="1102.2891"/><polygon fill="#181818" points="463.25,1098.2891,453.25,1102.2891,463.25,1106.2891,459.25,1102.2891" style="stroke:#181818;stroke-width:1.0;"/><line style="stroke:#181818;stroke-width:1.0;" x1="441.25" x2="441.25" y1="466.5391" y2="486.5391"/><polygon fill="#181818" points="437.25,476.5391,441.25,486.5391,445.25,476.5391,441.25,480.5391" style="stroke:#181818;stroke-width:1.0;"/><line style="stroke:#181818;stroke-width:1.0;" x1="441.25" x2="441.25" y1="411.4453" y2="431.4453"/><polygon fill="#181818" points="437.25,421.4453,441.25,431.4453,445.25,421.4453,441.25,425.4453" style="stroke:#181818;stroke-width:1.0;"/><line style="stroke:#181818;stroke-width:1.0;" x1="441.25" x2="441.25" y1="1114.2891" y2="1124.2891"/><line style="stroke:#181818;stroke-width:1.0;" x1="441.25" x2="1200" y1="1124.2891" y2="1124.2891"/><polygon fill="#181818" points="1196,748.3672,1200,738.3672,1204,748.3672,1200,744.3672" style="stroke:#181818;stroke-width:1.0;"/><line style="stroke:#181818;stroke-width:1.0;" x1="1200" x2="1200" y1="399.4453" y2="1124.2891"/><line style="stroke:#181818;stroke-width:1.0;" x1="1200" x2="482.75" y1="399.4453" y2="399.4453"/><polygon fill="#181818" points="492.75,395.4453,482.75,399.4453,492.75,403.4453,488.75,399.4453" style="stroke:#181818;stroke-width:1.0;"/><line style="stroke:#181818;stroke-width:1.0;" x1="441.25" x2="441.25" y1="355.4453" y2="387.4453"/><polygon fill="#181818" points="437.25,377.4453,441.25,387.4453,445.25,377.4453,441.25,381.4453" style="stroke:#181818;stroke-width:1.0;"/><!--SRC=[ZLJ1Zjem4BtdAqOvBLAvzGJjNWehSTXowQsgei6U4AkE7TaJsAhYtpjs28HIgfr3OezVnk-ziHCP0nUTF0mRxw0qJWPeJSGqB-5t0H8BXTQ2TzkwhhHfAqtAQ0fLGYypmdac26RVS9vs62FKtbf_D6ulqu0jCOMOLpzBv87KQd5dgLBML8hV5f3JaKEl6BX1XeW7Yc1SxKEREGqGtFa-8GWYXGC5O0_AEmxUvlMvH1xSazR8kBZPn-TTGFKXaEEH0ueYNsUEeY4doUciT305jORolduNA4RIvPbe17J2NyI7lcEeUwUIZEL_QmIoXEyfSYgAOsCimPFrlXFB0uaRis9nRCZ1hcSMnqo4CwbJOMg1OkIHvYoPwE19hA3Pm2d-DDq7QMPChIEz9sY4m8u4ndw_jwIJrP5Kp-P0zjUf81k5GOto6ciGmtIRP7BQuYmxgePqBxJFxWe_hmGuBgTZ2MnQ2kVCNt96VqvvzP6c2Q69CCdQTolBNS_ghWOz59ZtMqumB2t9AgHzKXgjwcqwLYatjkIAJpAcAwECJ_AMJEEjlXAuN3fBDTzaKwIBaKjTlaokrUPDYDw1ZSluf9nnFF_JABzjNjVLzklsvQLQRLwhrVhBPhMkFgP9UOE-kI0N7nGwHVRVlPw0v1SpTE4UCRJW-P4HWzCFwmihKnVNqUMPhqun_zuOhSdzc3yNcXXLymS0]--></g></svg>