<?xml version="1.0" encoding="us-ascii" standalone="no"?><svg xmlns="http://www.w3.org/2000/svg" xmlns:xlink="http://www.w3.org/1999/xlink" contentStyleType="text/css" height="588px" preserveAspectRatio="none" style="width:1105px;height:588px;background:#FFFFFF;" version="1.1" viewBox="0 0 1105 588" width="1105px" zoomAndPan="magnify"><defs/><g><line style="stroke:none;stroke-width:1.5;" x1="61.5" x2="995" y1="10" y2="10"/><ellipse cx="61.5" cy="41.5" fill="#222222" rx="10" ry="10" style="stroke:#222222;stroke-width:1.0;"/><path d="M15,86.5 L10,104.0469 L15,121.5938 M108,86.5 L113,104.0469 L108,121.5938 " fill="#F1F1F1" style="stroke:#181818;stroke-width:0.5;"/><text fill="#000000" font-family="sans-serif" font-size="12" lengthAdjust="spacing" textLength="83" x="20" y="108.957">init parameters</text><polygon fill="#F1F1F1" points="133,59,362,59,352,94.0938,123,94.0938" style="stroke:#181818;stroke-width:0.5;"/><text fill="#000000" font-family="sans-serif" font-size="12" lengthAdjust="spacing" textLength="219" x="133" y="81.457">function that returns current temperature</text><polygon fill="#F1F1F1" points="391,59,639,59,629,94.0938,381,94.0938" style="stroke:#181818;stroke-width:0.5;"/><text fill="#000000" font-family="sans-serif" font-size="12" lengthAdjust="spacing" textLength="238" x="391" y="81.457">function that notifies user about overheating</text><polygon fill="#F1F1F1" points="677,51.4531,886,51.4531,876,101.6406,667,101.6406" style="stroke:#181818;stroke-width:0.5;"/><text fill="#000000" font-family="sans-serif" font-size="12" lengthAdjust="spacing" textLength="137" x="677" y="73.9102">function that notifies user</text><text fill="#000000" font-family="sans-serif" font-size="12" lengthAdjust="spacing" textLength="199" x="677" y="89.0039">about normalized temperature again</text><rect fill="#F1F1F1" height="35.0938" style="stroke:#181818;stroke-width:0.5;" width="198" x="896" y="59"/><line style="stroke:#181818;stroke-width:0.5;" x1="901" x2="901" y1="59" y2="94.0938"/><line style="stroke:#181818;stroke-width:0.5;" x1="1089" x2="1089" y1="59" y2="94.0938"/><text fill="#000000" font-family="sans-serif" font-size="12" lengthAdjust="spacing" textLength="178" x="906" y="81.457">empty temp_watchdog_ctx struct</text><line style="stroke:#181818;stroke-width:1.5;" x1="61.5" x2="995" y1="141.5938" y2="141.5938"/><rect fill="#F08080" height="35.0938" rx="12.5" ry="12.5" style="stroke:#181818;stroke-width:0.5;" width="200" x="447.5" y="161.5938"/><text fill="#000000" font-family="sans-serif" font-size="12" lengthAdjust="spacing" textLength="180" x="457.5" y="184.0508">call "init_temperature_watchdog"</text><rect fill="none" height="329.0625" style="stroke:#000000;stroke-width:1.5;" width="638" x="233" y="206.6875"/><path d="M388,206.6875 L388,217.2969 L378,227.2969 L233,227.2969 " fill="none" style="stroke:#000000;stroke-width:1.5;"/><text fill="#000000" font-family="sans-serif" font-size="14" lengthAdjust="spacing" textLength="145" x="236" y="222.2207">repeat for every output</text><line style="stroke:#181818;stroke-width:1.5;" x1="308.5" x2="613" y1="244.2969" y2="244.2969"/><path d="M262,324.6797 L257,342.2266 L262,359.7734 M355,324.6797 L360,342.2266 L355,359.7734 " fill="#F1F1F1" style="stroke:#181818;stroke-width:0.5;"/><text fill="#000000" font-family="sans-serif" font-size="12" lengthAdjust="spacing" textLength="83" x="267" y="347.1367">init parameters</text><line style="stroke:none;stroke-width:1.5;" x1="475" x2="755.5" y1="249.2969" y2="249.2969"/><polygon fill="#F1F1F1" points="403,254.2969,557,254.2969,547,289.3906,393,289.3906" style="stroke:#181818;stroke-width:0.5;"/><text fill="#000000" font-family="sans-serif" font-size="12" lengthAdjust="spacing" textLength="144" x="403" y="276.7539">Command type (as enum)</text><polygon fill="#F1F1F1" points="595,254.2969,650,254.2969,640,289.3906,585,289.3906" style="stroke:#181818;stroke-width:0.5;"/><text fill="#000000" font-family="sans-serif" font-size="12" lengthAdjust="spacing" textLength="45" x="595" y="276.7539">off value</text><polygon fill="#F1F1F1" points="688,254.2969,833,254.2969,823,289.3906,678,289.3906" style="stroke:#181818;stroke-width:0.5;"/><text fill="#000000" font-family="sans-serif" font-size="12" lengthAdjust="spacing" textLength="135" x="688" y="276.7539">function call to set output</text><line style="stroke:#181818;stroke-width:1.5;" x1="475" x2="755.5" y1="309.3906" y2="309.3906"/><line style="stroke:#181818;stroke-width:1.5;" x1="500" x2="704" y1="373.5625" y2="373.5625"/><polygon fill="#F1F1F1" points="433,393.5625,577,393.5625,567,428.6563,423,428.6563" style="stroke:#181818;stroke-width:0.5;"/><text fill="#000000" font-family="sans-serif" font-size="12" lengthAdjust="spacing" textLength="134" x="433" y="416.0195">cmd_number (as enum)</text><rect fill="#F1F1F1" height="35.0938" style="stroke:#181818;stroke-width:0.5;" width="198" x="605" y="393.5625"/><line style="stroke:#181818;stroke-width:0.5;" x1="610" x2="610" y1="393.5625" y2="428.6563"/><line style="stroke:#181818;stroke-width:0.5;" x1="798" x2="798" y1="393.5625" y2="428.6563"/><text fill="#000000" font-family="sans-serif" font-size="12" lengthAdjust="spacing" textLength="178" x="615" y="416.0195">empty temp_watchdog_ctx struct</text><line style="stroke:#181818;stroke-width:1.5;" x1="500" x2="704" y1="448.6563" y2="448.6563"/><line style="stroke:#181818;stroke-width:1.5;" x1="308.5" x2="613" y1="468.6563" y2="468.6563"/><rect fill="#F08080" height="35.0938" rx="12.5" ry="12.5" style="stroke:#181818;stroke-width:0.5;" width="164" x="465.5" y="488.6563"/><text fill="#000000" font-family="sans-serif" font-size="12" lengthAdjust="spacing" textLength="144" x="475.5" y="511.1133">call "register_output_cmd"</text><ellipse cx="547.5" cy="566.75" fill="none" rx="11" ry="11" style="stroke:#222222;stroke-width:1.0;"/><ellipse cx="547.5" cy="566.75" fill="#222222" rx="6" ry="6" style="stroke:#111111;stroke-width:1.0;"/><line style="stroke:#181818;stroke-width:1.0;" x1="61.5" x2="61.5" y1="51.5" y2="86.5"/><polygon fill="#181818" points="57.5,76.5,61.5,86.5,65.5,76.5,61.5,80.5" style="stroke:#181818;stroke-width:1.0;"/><line style="stroke:#181818;stroke-width:1.0;" x1="61.5" x2="61.5" y1="121.5938" y2="141.5938"/><polygon fill="#181818" points="57.5,131.5938,61.5,141.5938,65.5,131.5938,61.5,135.5938" style="stroke:#181818;stroke-width:1.0;"/><line style="stroke:#181818;stroke-width:1.5;stroke-dasharray:7.0,7.0;" x1="242.5" x2="242.5" y1="94.0938" y2="141.5938"/><polygon fill="#181818" points="238.5,131.5938,242.5,141.5938,246.5,131.5938,242.5,135.5938" style="stroke:#181818;stroke-width:1.0;"/><line style="stroke:#181818;stroke-width:1.5;stroke-dasharray:7.0,7.0;" x1="510" x2="510" y1="94.0938" y2="141.5938"/><polygon fill="#181818" points="506,131.5938,510,141.5938,514,131.5938,510,135.5938" style="stroke:#181818;stroke-width:1.0;"/><line style="stroke:#181818;stroke-width:1.5;stroke-dasharray:7.0,7.0;" x1="776.5" x2="776.5" y1="101.6406" y2="141.5938"/><polygon fill="#181818" points="772.5,131.5938,776.5,141.5938,780.5,131.5938,776.5,135.5938" style="stroke:#181818;stroke-width:1.0;"/><line style="stroke:#181818;stroke-width:1.5;stroke-dasharray:7.0,7.0;" x1="995" x2="995" y1="94.0938" y2="141.5938"/><polygon fill="#181818" points="991,131.5938,995,141.5938,999,131.5938,995,135.5938" style="stroke:#181818;stroke-width:1.0;"/><line style="stroke:#181818;stroke-width:1.0;" x1="547.5" x2="547.5" y1="143.0938" y2="161.5938"/><polygon fill="#181818" points="543.5,151.5938,547.5,161.5938,551.5,151.5938,547.5,155.5938" style="stroke:#181818;stroke-width:1.0;"/><line style="stroke:#181818;stroke-width:1.5;stroke-dasharray:7.0,7.0;" x1="475" x2="475" y1="289.3906" y2="309.3906"/><polygon fill="#181818" points="471,299.3906,475,309.3906,479,299.3906,475,303.3906" style="stroke:#181818;stroke-width:1.0;"/><line style="stroke:#181818;stroke-width:1.5;stroke-dasharray:7.0,7.0;" x1="617.5" x2="617.5" y1="289.3906" y2="309.3906"/><polygon fill="#181818" points="613.5,299.3906,617.5,309.3906,621.5,299.3906,617.5,303.3906" style="stroke:#181818;stroke-width:1.0;"/><line style="stroke:#181818;stroke-width:1.5;stroke-dasharray:7.0,7.0;" x1="755.5" x2="755.5" y1="289.3906" y2="309.3906"/><polygon fill="#181818" points="751.5,299.3906,755.5,309.3906,759.5,299.3906,755.5,303.3906" style="stroke:#181818;stroke-width:1.0;"/><line style="stroke:#181818;stroke-width:1.0;" x1="704" x2="704" y1="375.0625" y2="393.5625"/><polygon fill="#181818" points="700,383.5625,704,393.5625,708,383.5625,704,387.5625" style="stroke:#181818;stroke-width:1.0;"/><line style="stroke:#181818;stroke-width:1.5;stroke-dasharray:7.0,7.0;" x1="500" x2="500" y1="428.6563" y2="448.6563"/><polygon fill="#181818" points="496,438.6563,500,448.6563,504,438.6563,500,442.6563" style="stroke:#181818;stroke-width:1.0;"/><line style="stroke:#181818;stroke-width:1.0;" x1="704" x2="704" y1="428.6563" y2="448.6563"/><polygon fill="#181818" points="700,438.6563,704,448.6563,708,438.6563,704,442.6563" style="stroke:#181818;stroke-width:1.0;"/><line style="stroke:#000000;stroke-width:1.0;" x1="613" x2="613" y1="310.8906" y2="373.5625"/><polygon fill="#000000" points="609,363.5625,613,373.5625,617,363.5625,613,367.5625" style="stroke:#000000;stroke-width:1.0;"/><text fill="#000000" font-family="sans-serif" font-size="11" lengthAdjust="spacing" textLength="82" x="617" y="339.8096">save parameters</text><text fill="#000000" font-family="sans-serif" font-size="11" lengthAdjust="spacing" textLength="39" x="617" y="353.6455">in struct</text><line style="stroke:#181818;stroke-width:1.0;" x1="308.5" x2="308.5" y1="245.7969" y2="324.6797"/><polygon fill="#181818" points="304.5,314.6797,308.5,324.6797,312.5,314.6797,308.5,318.6797" style="stroke:#181818;stroke-width:1.0;"/><line style="stroke:#181818;stroke-width:1.0;" x1="308.5" x2="308.5" y1="359.7734" y2="468.6563"/><polygon fill="#181818" points="304.5,458.6563,308.5,468.6563,312.5,458.6563,308.5,462.6563" style="stroke:#181818;stroke-width:1.0;"/><line style="stroke:#181818;stroke-width:1.0;" x1="613" x2="613" y1="450.1563" y2="468.6563"/><polygon fill="#181818" points="609,458.6563,613,468.6563,617,458.6563,613,462.6563" style="stroke:#181818;stroke-width:1.0;"/><line style="stroke:#181818;stroke-width:1.0;" x1="547.5" x2="547.5" y1="470.1563" y2="488.6563"/><polygon fill="#181818" points="543.5,478.6563,547.5,488.6563,551.5,478.6563,547.5,482.6563" style="stroke:#181818;stroke-width:1.0;"/><line style="stroke:#181818;stroke-width:1.0;" x1="547.5" x2="547.5" y1="196.6875" y2="244.2969"/><polygon fill="#181818" points="543.5,234.2969,547.5,244.2969,551.5,234.2969,547.5,238.2969" style="stroke:#181818;stroke-width:1.0;"/><line style="stroke:#181818;stroke-width:1.0;" x1="547.5" x2="547.5" y1="523.75" y2="555.75"/><polygon fill="#181818" points="543.5,545.75,547.5,555.75,551.5,545.75,547.5,549.75" style="stroke:#181818;stroke-width:1.0;"/><!--SRC=[jLHDRuCm3BttLrZjWUrGzKwb7TRh_i4q8JSOY0O9IfnktUX_Nmg8ZvPkdRPoWiH-ptxF9e0gSKgmr0e4vhcjPk0VM-QIwxVbSoRZcDJByg6vOJJDJIYLP2ZHO45CnXxwJC0KfQg_0wZwa6eICkmgu0mP3B4poe9mnf1YO2fACkWFQTNcnsWpYhkIJYX_m5UQPIB9WhDa0BVQCUWTcOoGfKflm557D4HAcm9p-K7niAy6-3fcBwXbumHVKjF3yhv6ZzwGHHRhD1By3arMDKb2Acuz3yu7Ol4aqumtsc0U7ezWVdG-6jJV4StNC-ysopfzRgZqcaAY3P0NU0zUWTBn73vFXkowKJhjT8nnOTWk9OORNHJes-PzIN27rclWYllL86aiqLH5l-NKIG8xp1tTbcPa8B06Izng_prnFmPzrE8nH_7gey3YZWOcTJ5IjREr_WTRH157teYjNvk_cJ9QagiNuro5yLSm_RyyNn53gRI-twZHFV9z-UKup2phyWi0]--></g></svg>