<?xml version="1.0" encoding="us-ascii" standalone="no"?><svg xmlns="http://www.w3.org/2000/svg" xmlns:xlink="http://www.w3.org/1999/xlink" contentStyleType="text/css" height="2583px" preserveAspectRatio="none" style="width:3973px;height:2583px;background:#FFFFFF;" version="1.1" viewBox="0 0 3973 2583" width="3973px" zoomAndPan="magnify"><defs/><g><!--cluster model_handler--><g id="cluster_model_handler"><path d="M2038,1394.5 L2038,1504.5 A2.5,2.5 0 0 0 2040.5,1507 L2323.5,1507 A2.5,2.5 0 0 0 2326,1504.5 L2326,1402 L2316,1392 L2040.5,1392 A2.5,2.5 0 0 0 2038,1394.5 " fill="none" style="stroke:#181818;stroke-width:1.0;"/><path d="M2316,1392 L2316,1399.5 A2.5,2.5 0 0 0 2318.5,1402 L2326,1402 " fill="none" style="stroke:#181818;stroke-width:1.0;"/><text fill="#000000" font-family="sans-serif" font-size="14" font-weight="bold" lengthAdjust="spacing" textLength="105" x="2129.5" y="1408.5332">model_handler</text></g><!--cluster conversion_helpers--><g id="cluster_conversion_helpers"><path d="M6,1608.5 L6,1781.5 A2.5,2.5 0 0 0 8.5,1784 L353.5,1784 A2.5,2.5 0 0 0 356,1781.5 L356,1616 L346,1606 L8.5,1606 A2.5,2.5 0 0 0 6,1608.5 " fill="none" style="stroke:#181818;stroke-width:1.0;"/><path d="M346,1606 L346,1613.5 A2.5,2.5 0 0 0 348.5,1616 L356,1616 " fill="none" style="stroke:#181818;stroke-width:1.0;"/><text fill="#000000" font-family="sans-serif" font-size="14" font-weight="bold" lengthAdjust="spacing" textLength="142" x="110" y="1622.5332">conversion_helpers</text></g><!--cluster gpio_pwm_helpers--><g id="cluster_gpio_pwm_helpers"><path d="M988,8.5 L988,357.5 A2.5,2.5 0 0 0 990.5,360 L2332.5,360 A2.5,2.5 0 0 0 2335,357.5 L2335,16 L2325,6 L990.5,6 A2.5,2.5 0 0 0 988,8.5 " fill="none" style="stroke:#181818;stroke-width:1.0;"/><path d="M2325,6 L2325,13.5 A2.5,2.5 0 0 0 2327.5,16 L2335,16 " fill="none" style="stroke:#181818;stroke-width:1.0;"/><text fill="#000000" font-family="sans-serif" font-size="14" font-weight="bold" lengthAdjust="spacing" textLength="133" x="1595" y="22.5332">gpio_pwm_helpers</text></g><!--cluster adc--><g id="cluster_adc"><rect fill="none" height="152" rx="2.5" ry="2.5" style="stroke:#181818;stroke-width:1.0;stroke-dasharray:1.0,3.0;" width="1262" x="1041" y="58"/><text fill="#000000" font-family="sans-serif" font-size="14" font-weight="bold" lengthAdjust="spacing" textLength="25" x="1659.5" y="74.5332">adc</text></g><!--cluster health_model--><g id="cluster_health_model"><path d="M1613,843.5 L1613,1079.5 A2.5,2.5 0 0 0 1615.5,1082 L1820.5,1082 A2.5,2.5 0 0 0 1823,1079.5 L1823,851 L1813,841 L1615.5,841 A2.5,2.5 0 0 0 1613,843.5 " fill="none" style="stroke:#181818;stroke-width:1.0;"/><path d="M1813,841 L1813,848.5 A2.5,2.5 0 0 0 1815.5,851 L1823,851 " fill="none" style="stroke:#181818;stroke-width:1.0;"/><text fill="#000000" font-family="sans-serif" font-size="14" font-weight="bold" lengthAdjust="spacing" textLength="95" x="1670.5" y="857.5332">health_model</text></g><!--cluster lvl_cli_mod--><g id="cluster_lvl_cli_mod"><path d="M1563,1961.5 L1563,2353.5 A2.5,2.5 0 0 0 1565.5,2356 L3963.5,2356 A2.5,2.5 0 0 0 3966,2353.5 L3966,1969 L3956,1959 L1565.5,1959 A2.5,2.5 0 0 0 1563,1961.5 " fill="none" style="stroke:#181818;stroke-width:1.0;"/><path d="M3956,1959 L3956,1966.5 A2.5,2.5 0 0 0 3958.5,1969 L3966,1969 " fill="none" style="stroke:#181818;stroke-width:1.0;"/><text fill="#000000" font-family="sans-serif" font-size="14" font-weight="bold" lengthAdjust="spacing" textLength="79" x="2725" y="1975.5332">lvl_cli_mod</text></g><!--cluster dimm_decider_functionality--><g id="cluster_dimm_decider_functionality"><rect fill="none" height="206" rx="2.5" ry="2.5" style="stroke:#181818;stroke-width:1.0;stroke-dasharray:1.0,3.0;" width="1535" x="2399" y="2019"/><text fill="#000000" font-family="sans-serif" font-size="14" font-weight="bold" lengthAdjust="spacing" textLength="193" x="3070" y="2035.5332">dimm_decider_functionality</text></g><!--cluster lvl_model--><g id="cluster_lvl_model"><path d="M454,1226.5 L454,1514.5 A2.5,2.5 0 0 0 456.5,1517 L1868.5,1517 A2.5,2.5 0 0 0 1871,1514.5 L1871,1234 L1861,1224 L456.5,1224 A2.5,2.5 0 0 0 454,1226.5 " fill="none" style="stroke:#181818;stroke-width:1.0;"/><path d="M1861,1224 L1861,1231.5 A2.5,2.5 0 0 0 1863.5,1234 L1871,1234 " fill="none" style="stroke:#181818;stroke-width:1.0;"/><text fill="#000000" font-family="sans-serif" font-size="14" font-weight="bold" lengthAdjust="spacing" textLength="68" x="1128.5" y="1240.5332">lvl_model</text></g><!--cluster relais_cli_mod--><g id="cluster_relais_cli_mod"><path d="M1558,2411.5 L1558,2573.5 A2.5,2.5 0 0 0 1560.5,2576 L2661.5,2576 A2.5,2.5 0 0 0 2664,2573.5 L2664,2419 L2654,2409 L1560.5,2409 A2.5,2.5 0 0 0 1558,2411.5 " fill="none" style="stroke:#181818;stroke-width:1.0;"/><path d="M2654,2409 L2654,2416.5 A2.5,2.5 0 0 0 2656.5,2419 L2664,2419 " fill="none" style="stroke:#181818;stroke-width:1.0;"/><text fill="#000000" font-family="sans-serif" font-size="14" font-weight="bold" lengthAdjust="spacing" textLength="101" x="2060.5" y="2425.5332">relais_cli_mod</text></g><!--cluster relais_model--><g id="cluster_relais_model"><path d="M480,1691.5 L480,1916.5 A2.5,2.5 0 0 0 482.5,1919 L1810.5,1919 A2.5,2.5 0 0 0 1813,1916.5 L1813,1699 L1803,1689 L482.5,1689 A2.5,2.5 0 0 0 480,1691.5 " fill="none" style="stroke:#181818;stroke-width:1.0;"/><path d="M1803,1689 L1803,1696.5 A2.5,2.5 0 0 0 1805.5,1699 L1813,1699 " fill="none" style="stroke:#181818;stroke-width:1.0;"/><text fill="#000000" font-family="sans-serif" font-size="14" font-weight="bold" lengthAdjust="spacing" textLength="90" x="1101.5" y="1705.5332">relais_model</text></g><!--cluster temperature_watchdog--><g id="cluster_temperature_watchdog"><path d="M1570,402.5 L1570,664.5 A2.5,2.5 0 0 0 1572.5,667 L3855.5,667 A2.5,2.5 0 0 0 3858,664.5 L3858,410 L3848,400 L1572.5,400 A2.5,2.5 0 0 0 1570,402.5 " fill="none" style="stroke:#181818;stroke-width:1.0;"/><path d="M3848,400 L3848,407.5 A2.5,2.5 0 0 0 3850.5,410 L3858,410 " fill="none" style="stroke:#181818;stroke-width:1.0;"/><text fill="#000000" font-family="sans-serif" font-size="14" font-weight="bold" lengthAdjust="spacing" textLength="163" x="2632.5" y="416.5332">temperature_watchdog</text></g><!--entity model_handler_init--><g id="elem_model_handler_init"><polygon fill="#F1F1F1" points="2302,1450,2242,1436.2,2122,1436.2,2062,1450,2122,1463.8,2242,1463.8,2302,1450" style="stroke:#181818;stroke-width:0.5;"/><text fill="#000000" font-family="sans-serif" font-size="14" lengthAdjust="spacing" textLength="120" x="2122" y="1455.7332">model_handler_init</text></g><!--entity mesh_level2struct_level--><g id="elem_mesh_level2struct_level"><polygon fill="#F1F1F1" points="332,1664,256.5,1650.2,105.5,1650.2,30,1664,105.5,1677.8,256.5,1677.8,332,1664" style="stroke:#181818;stroke-width:0.5;"/><text fill="#000000" font-family="sans-serif" font-size="14" lengthAdjust="spacing" textLength="151" x="105.5" y="1669.7332">mesh_level2struct_level</text></g><!--entity struct_level2mesh_level--><g id="elem_struct_level2mesh_level"><polygon fill="#F1F1F1" points="332,1727,256.5,1713.2,105.5,1713.2,30,1727,105.5,1740.8,256.5,1740.8,332,1727" style="stroke:#181818;stroke-width:0.5;"/><text fill="#000000" font-family="sans-serif" font-size="14" lengthAdjust="spacing" textLength="151" x="105.5" y="1732.7332">struct_level2mesh_level</text></g><!--entity single_device_init--><g id="elem_single_device_init"><polygon fill="#F1F1F1" points="1245,303,1189,289.2,1077,289.2,1021,303,1077,316.8,1189,316.8,1245,303" style="stroke:#181818;stroke-width:0.5;"/><text fill="#000000" font-family="sans-serif" font-size="14" lengthAdjust="spacing" textLength="112" x="1077" y="308.7332">single_device_init</text></g><!--entity lc_pwm_output_set--><g id="elem_lc_pwm_output_set"><polygon fill="#F1F1F1" points="1254,240,1193.5,226.2,1072.5,226.2,1012,240,1072.5,253.8,1193.5,253.8,1254,240" style="stroke:#181818;stroke-width:0.5;"/><text fill="#000000" font-family="sans-serif" font-size="14" lengthAdjust="spacing" textLength="121" x="1072.5" y="245.7332">lc_pwm_output_set</text></g><!--entity configure_gpi_interrupt--><g id="elem_configure_gpi_interrupt"><polygon fill="#F1F1F1" points="1865,303,1791.5,289.2,1644.5,289.2,1571,303,1644.5,316.8,1791.5,316.8,1865,303" style="stroke:#181818;stroke-width:0.5;"/><text fill="#000000" font-family="sans-serif" font-size="14" lengthAdjust="spacing" textLength="147" x="1644.5" y="308.7332">configure_gpi_interrupt</text></g><!--class adc_channel_ctx--><g id="elem_adc_channel_ctx"><rect codeLine="19" fill="#F1F1F1" height="100.8281" id="adc_channel_ctx" rx="2.5" ry="2.5" style="stroke:#181818;stroke-width:0.5;" width="264" x="1586" y="93.59"/><ellipse cx="1660.75" cy="109.59" fill="#F1F1F1" rx="11" ry="11" style="stroke:#181818;stroke-width:1.0;"/><path d="M1658.8594,114.1525 Q1658.6406,114.4181 1658.5,114.4963 Q1658.3594,114.5744 1658.1719,114.5744 Q1657.7813,114.5744 1657.5313,114.3088 Q1657.2969,114.0431 1657.2969,113.4494 L1657.2969,112.2931 Q1657.2969,111.6838 1657.5313,111.4338 Q1657.7813,111.1681 1658.1719,111.1681 Q1658.4688,111.1681 1658.6719,111.3244 Q1658.875,111.4806 1658.9844,111.8556 Q1659.0938,112.215 1659.2031,112.3556 Q1659.4531,112.6056 1660.0625,112.8713 Q1660.6719,113.1369 1661.4063,113.1369 Q1662.5469,113.1369 1663.2656,112.6056 Q1663.7344,112.2775 1663.7344,111.8088 Q1663.7344,111.4963 1663.5156,111.215 Q1663.2969,110.9338 1662.7813,110.7619 Q1662.4531,110.6369 1661.2969,110.4181 Q1659.9063,110.1525 1659.1875,109.7931 Q1658.4688,109.4338 1658.0469,108.7775 Q1657.6406,108.1056 1657.6406,107.3244 Q1657.6406,106.1056 1658.6563,105.1994 Q1659.6875,104.2775 1661.3281,104.2775 Q1661.9844,104.2775 1662.5313,104.4181 Q1663.0938,104.5588 1663.5625,104.8556 Q1663.8906,104.5431 1664.2188,104.5431 Q1664.5938,104.5431 1664.8281,104.8088 Q1665.0625,105.0588 1665.0625,105.6681 L1665.0625,106.9494 Q1665.0625,107.5588 1664.8281,107.8244 Q1664.5938,108.0744 1664.2188,108.0744 Q1663.9063,108.0744 1663.6719,107.8869 Q1663.4844,107.7463 1663.3906,107.3244 Q1663.3125,106.9025 1663.1719,106.715 Q1662.9219,106.4025 1662.4375,106.1994 Q1661.9688,105.9806 1661.3281,105.9806 Q1660.4063,105.9806 1659.875,106.4025 Q1659.3438,106.8244 1659.3438,107.2931 Q1659.3438,107.6056 1659.5625,107.9025 Q1659.7813,108.1994 1660.2031,108.3713 Q1660.4844,108.4806 1661.7813,108.7463 Q1663.0938,108.9963 1663.7969,109.3088 Q1664.5,109.6056 1664.9688,110.2619 Q1665.4375,110.9181 1665.4375,111.8244 Q1665.4375,113.09 1664.5469,113.84 Q1663.3594,114.84 1661.5313,114.84 Q1660.8281,114.84 1660.1563,114.6681 Q1659.5,114.4963 1658.8594,114.1525 Z " fill="#000000"/><text fill="#000000" font-family="sans-serif" font-size="14" lengthAdjust="spacing" textLength="106" x="1681.25" y="115.3185">adc_channel_ctx</text><line style="stroke:#181818;stroke-width:0.5;" x1="1587" x2="1849" y1="125.59" y2="125.59"/><text fill="#000000" font-family="sans-serif" font-size="14" lengthAdjust="spacing" textLength="71" x="1592" y="144.1232">int16_t buf;</text><text fill="#000000" font-family="sans-serif" font-size="14" lengthAdjust="spacing" textLength="202" x="1592" y="161.7326">struct adc_sequence sequence;</text><text fill="#000000" font-family="sans-serif" font-size="14" lengthAdjust="spacing" textLength="252" x="1592" y="179.342">const struct adc_dt_spec *adc_channel;</text><line style="stroke:#181818;stroke-width:0.5;" x1="1587" x2="1849" y1="186.4181" y2="186.4181"/></g><!--entity adc_pin_init--><g id="elem_adc_pin_init"><polygon fill="#F1F1F1" points="1209,144,1171,130.2,1095,130.2,1057,144,1095,157.8,1171,157.8,1209,144" style="stroke:#181818;stroke-width:0.5;"/><text fill="#000000" font-family="sans-serif" font-size="14" lengthAdjust="spacing" textLength="76" x="1095" y="149.7332">adc_pin_init</text></g><!--entity read_adc_digital--><g id="elem_read_adc_digital"><polygon fill="#F1F1F1" points="2287,176,2234.5,162.2,2129.5,162.2,2077,176,2129.5,189.8,2234.5,189.8,2287,176" style="stroke:#181818;stroke-width:0.5;"/><text fill="#000000" font-family="sans-serif" font-size="14" lengthAdjust="spacing" textLength="105" x="2129.5" y="181.7332">read_adc_digital</text></g><!--entity read_adc_volt--><g id="elem_read_adc_volt"><polygon fill="#F1F1F1" points="2272,113,2227,99.2,2137,99.2,2092,113,2137,126.8,2227,126.8,2272,113" style="stroke:#181818;stroke-width:0.5;"/><text fill="#000000" font-family="sans-serif" font-size="14" lengthAdjust="spacing" textLength="90" x="2137" y="118.7332">read_adc_volt</text></g><!--entity attention_on--><g id="elem_attention_on"><polygon fill="#F1F1F1" points="1797,899,1757.5,885.2,1678.5,885.2,1639,899,1678.5,912.8,1757.5,912.8,1797,899" style="stroke:#181818;stroke-width:0.5;"/><text fill="#000000" font-family="sans-serif" font-size="14" lengthAdjust="spacing" textLength="79" x="1678.5" y="904.7332">attention_on</text></g><!--entity attention_off--><g id="elem_attention_off"><polygon fill="#F1F1F1" points="1797,962,1757.5,948.2,1678.5,948.2,1639,962,1678.5,975.8,1757.5,975.8,1797,962" style="stroke:#181818;stroke-width:0.5;"/><text fill="#000000" font-family="sans-serif" font-size="14" lengthAdjust="spacing" textLength="79" x="1678.5" y="967.7332">attention_off</text></g><!--entity attention_init--><g id="elem_attention_init"><polygon fill="#F1F1F1" points="1799,1025,1758.5,1011.2,1677.5,1011.2,1637,1025,1677.5,1038.8,1758.5,1038.8,1799,1025" style="stroke:#181818;stroke-width:0.5;"/><text fill="#000000" font-family="sans-serif" font-size="14" lengthAdjust="spacing" textLength="81" x="1677.5" y="1030.7332">attention_init</text></g><!--class dimmable_cli_ctx--><g id="elem_dimmable_cli_ctx"><rect codeLine="35" fill="#F1F1F1" height="100.8281" id="dimmable_cli_ctx" rx="2.5" ry="2.5" style="stroke:#181818;stroke-width:0.5;" width="188" x="2088" y="2131.59"/><ellipse cx="2125.5" cy="2147.59" fill="#F1F1F1" rx="11" ry="11" style="stroke:#181818;stroke-width:1.0;"/><path d="M2123.6094,2152.1525 Q2123.3906,2152.4181 2123.25,2152.4963 Q2123.1094,2152.5744 2122.9219,2152.5744 Q2122.5313,2152.5744 2122.2813,2152.3088 Q2122.0469,2152.0431 2122.0469,2151.4494 L2122.0469,2150.2931 Q2122.0469,2149.6838 2122.2813,2149.4338 Q2122.5313,2149.1681 2122.9219,2149.1681 Q2123.2188,2149.1681 2123.4219,2149.3244 Q2123.625,2149.4806 2123.7344,2149.8556 Q2123.8438,2150.215 2123.9531,2150.3556 Q2124.2031,2150.6056 2124.8125,2150.8713 Q2125.4219,2151.1369 2126.1563,2151.1369 Q2127.2969,2151.1369 2128.0156,2150.6056 Q2128.4844,2150.2775 2128.4844,2149.8088 Q2128.4844,2149.4963 2128.2656,2149.215 Q2128.0469,2148.9338 2127.5313,2148.7619 Q2127.2031,2148.6369 2126.0469,2148.4181 Q2124.6563,2148.1525 2123.9375,2147.7931 Q2123.2188,2147.4338 2122.7969,2146.7775 Q2122.3906,2146.1056 2122.3906,2145.3244 Q2122.3906,2144.1056 2123.4063,2143.1994 Q2124.4375,2142.2775 2126.0781,2142.2775 Q2126.7344,2142.2775 2127.2813,2142.4181 Q2127.8438,2142.5588 2128.3125,2142.8556 Q2128.6406,2142.5431 2128.9688,2142.5431 Q2129.3438,2142.5431 2129.5781,2142.8088 Q2129.8125,2143.0588 2129.8125,2143.6681 L2129.8125,2144.9494 Q2129.8125,2145.5588 2129.5781,2145.8244 Q2129.3438,2146.0744 2128.9688,2146.0744 Q2128.6563,2146.0744 2128.4219,2145.8869 Q2128.2344,2145.7463 2128.1406,2145.3244 Q2128.0625,2144.9025 2127.9219,2144.715 Q2127.6719,2144.4025 2127.1875,2144.1994 Q2126.7188,2143.9806 2126.0781,2143.9806 Q2125.1563,2143.9806 2124.625,2144.4025 Q2124.0938,2144.8244 2124.0938,2145.2931 Q2124.0938,2145.6056 2124.3125,2145.9025 Q2124.5313,2146.1994 2124.9531,2146.3713 Q2125.2344,2146.4806 2126.5313,2146.7463 Q2127.8438,2146.9963 2128.5469,2147.3088 Q2129.25,2147.6056 2129.7188,2148.2619 Q2130.1875,2148.9181 2130.1875,2149.8244 Q2130.1875,2151.09 2129.2969,2151.84 Q2128.1094,2152.84 2126.2813,2152.84 Q2125.5781,2152.84 2124.9063,2152.6681 Q2124.25,2152.4963 2123.6094,2152.1525 Z " fill="#000000"/><text fill="#000000" font-family="sans-serif" font-size="14" lengthAdjust="spacing" textLength="106" x="2144.5" y="2153.3185">dimmable_cli_ctx</text><line style="stroke:#181818;stroke-width:0.5;" x1="2089" x2="2275" y1="2163.59" y2="2163.59"/><text fill="#000000" font-family="sans-serif" font-size="14" lengthAdjust="spacing" textLength="125" x="2094" y="2182.1232">uint16_t current_lvl;</text><text fill="#000000" font-family="sans-serif" font-size="14" lengthAdjust="spacing" textLength="117" x="2094" y="2199.7326">uint16_t target_lvl;</text><text fill="#000000" font-family="sans-serif" font-size="14" lengthAdjust="spacing" textLength="176" x="2094" y="2217.342">struct bt_mesh_lvl_cli client;</text><line style="stroke:#181818;stroke-width:0.5;" x1="2089" x2="2275" y1="2224.4181" y2="2224.4181"/></g><!--entity level_status_handler--><g id="elem_level_status_handler"><polygon fill="#F1F1F1" points="1849,2105,1783.5,2091.2,1652.5,2091.2,1587,2105,1652.5,2118.8,1783.5,2118.8,1849,2105" style="stroke:#181818;stroke-width:0.5;"/><text fill="#000000" font-family="sans-serif" font-size="14" lengthAdjust="spacing" textLength="131" x="1652.5" y="2110.7332">level_status_handler</text></g><!--entity set_level--><g id="elem_set_level"><polygon fill="#F1F1F1" points="2617,2318,2589,2304.2,2533,2304.2,2505,2318,2533,2331.8,2589,2331.8,2617,2318" style="stroke:#181818;stroke-width:0.5;"/><text fill="#000000" font-family="sans-serif" font-size="14" lengthAdjust="spacing" textLength="56" x="2533" y="2323.7332">set_level</text></g><!--entity move_level--><g id="elem_move_level"><polygon fill="#F1F1F1" points="2632,2255,2596.5,2241.2,2525.5,2241.2,2490,2255,2525.5,2268.8,2596.5,2268.8,2632,2255" style="stroke:#181818;stroke-width:0.5;"/><text fill="#000000" font-family="sans-serif" font-size="14" lengthAdjust="spacing" textLength="71" x="2525.5" y="2260.7332">move_level</text></g><!--class onOff_dim_decider_data--><g id="elem_onOff_dim_decider_data"><rect codeLine="45" fill="#F1F1F1" height="153.6563" id="onOff_dim_decider_data" rx="2.5" ry="2.5" style="stroke:#181818;stroke-width:0.5;" width="232" x="3147.5" y="2055.17"/><ellipse cx="3182.3" cy="2071.17" fill="#F1F1F1" rx="11" ry="11" style="stroke:#181818;stroke-width:1.0;"/><path d="M3180.4094,2075.7325 Q3180.1906,2075.9981 3180.05,2076.0763 Q3179.9094,2076.1544 3179.7219,2076.1544 Q3179.3313,2076.1544 3179.0813,2075.8888 Q3178.8469,2075.6231 3178.8469,2075.0294 L3178.8469,2073.8731 Q3178.8469,2073.2638 3179.0813,2073.0138 Q3179.3313,2072.7481 3179.7219,2072.7481 Q3180.0188,2072.7481 3180.2219,2072.9044 Q3180.425,2073.0606 3180.5344,2073.4356 Q3180.6438,2073.795 3180.7531,2073.9356 Q3181.0031,2074.1856 3181.6125,2074.4513 Q3182.2219,2074.7169 3182.9563,2074.7169 Q3184.0969,2074.7169 3184.8156,2074.1856 Q3185.2844,2073.8575 3185.2844,2073.3888 Q3185.2844,2073.0763 3185.0656,2072.795 Q3184.8469,2072.5138 3184.3313,2072.3419 Q3184.0031,2072.2169 3182.8469,2071.9981 Q3181.4563,2071.7325 3180.7375,2071.3731 Q3180.0188,2071.0138 3179.5969,2070.3575 Q3179.1906,2069.6856 3179.1906,2068.9044 Q3179.1906,2067.6856 3180.2063,2066.7794 Q3181.2375,2065.8575 3182.8781,2065.8575 Q3183.5344,2065.8575 3184.0813,2065.9981 Q3184.6438,2066.1388 3185.1125,2066.4356 Q3185.4406,2066.1231 3185.7688,2066.1231 Q3186.1438,2066.1231 3186.3781,2066.3888 Q3186.6125,2066.6388 3186.6125,2067.2481 L3186.6125,2068.5294 Q3186.6125,2069.1388 3186.3781,2069.4044 Q3186.1438,2069.6544 3185.7688,2069.6544 Q3185.4563,2069.6544 3185.2219,2069.4669 Q3185.0344,2069.3263 3184.9406,2068.9044 Q3184.8625,2068.4825 3184.7219,2068.295 Q3184.4719,2067.9825 3183.9875,2067.7794 Q3183.5188,2067.5606 3182.8781,2067.5606 Q3181.9563,2067.5606 3181.425,2067.9825 Q3180.8938,2068.4044 3180.8938,2068.8731 Q3180.8938,2069.1856 3181.1125,2069.4825 Q3181.3313,2069.7794 3181.7531,2069.9513 Q3182.0344,2070.0606 3183.3313,2070.3263 Q3184.6438,2070.5763 3185.3469,2070.8888 Q3186.05,2071.1856 3186.5188,2071.8419 Q3186.9875,2072.4981 3186.9875,2073.4044 Q3186.9875,2074.67 3186.0969,2075.42 Q3184.9094,2076.42 3183.0813,2076.42 Q3182.3781,2076.42 3181.7063,2076.2481 Q3181.05,2076.0763 3180.4094,2075.7325 Z " fill="#000000"/><text fill="#000000" font-family="sans-serif" font-size="14" lengthAdjust="spacing" textLength="156" x="3200.7" y="2076.8985">onOff_dim_decider_data</text><line style="stroke:#181818;stroke-width:0.5;" x1="3148.5" x2="3378.5" y1="2087.17" y2="2087.17"/><text fill="#000000" font-family="sans-serif" font-size="14" lengthAdjust="spacing" textLength="216" x="3153.5" y="2105.7032">struct dimmable_cli_ctx *client_ctx;</text><text fill="#000000" font-family="sans-serif" font-size="14" lengthAdjust="spacing" textLength="102" x="3153.5" y="2123.3126">uint16_t last_lvl;</text><text fill="#000000" font-family="sans-serif" font-size="14" lengthAdjust="spacing" textLength="220" x="3153.5" y="2140.922">struct k_work_delayable dec_work;</text><text fill="#000000" font-family="sans-serif" font-size="14" lengthAdjust="spacing" textLength="127" x="3153.5" y="2158.5313">bool last_increased;</text><text fill="#000000" font-family="sans-serif" font-size="14" lengthAdjust="spacing" textLength="115" x="3153.5" y="2176.1407">int64_t timestamp;</text><text fill="#000000" font-family="sans-serif" font-size="14" lengthAdjust="spacing" textLength="116" x="3153.5" y="2193.7501">bool last_pressed;</text><line style="stroke:#181818;stroke-width:0.5;" x1="3148.5" x2="3378.5" y1="2200.8263" y2="2200.8263"/></g><!--entity onOff_dim_decider_init--><g id="elem_onOff_dim_decider_init"><polygon fill="#F1F1F1" points="2707,2132,2634,2118.2,2488,2118.2,2415,2132,2488,2145.8,2634,2145.8,2707,2132" style="stroke:#181818;stroke-width:0.5;"/><text fill="#000000" font-family="sans-serif" font-size="14" lengthAdjust="spacing" textLength="146" x="2488" y="2137.7332">onOff_dim_decider_init</text></g><!--entity onOff_dim_decider_pressed--><g id="elem_onOff_dim_decider_pressed"><polygon fill="#F1F1F1" points="3914,2094,3824.5,2080.2,3645.5,2080.2,3556,2094,3645.5,2107.8,3824.5,2107.8,3914,2094" style="stroke:#181818;stroke-width:0.5;"/><text fill="#000000" font-family="sans-serif" font-size="14" lengthAdjust="spacing" textLength="179" x="3645.5" y="2099.7332">onOff_dim_decider_pressed</text></g><!--entity onOff_dim_decider_released--><g id="elem_onOff_dim_decider_released"><polygon fill="#F1F1F1" points="3918,2157,3826.5,2143.2,3643.5,2143.2,3552,2157,3643.5,2170.8,3826.5,2170.8,3918,2157" style="stroke:#181818;stroke-width:0.5;"/><text fill="#000000" font-family="sans-serif" font-size="14" lengthAdjust="spacing" textLength="183" x="3643.5" y="2162.7332">onOff_dim_decider_released</text></g><!--class dimmable_srv_ctx--><g id="elem_dimmable_srv_ctx"><rect codeLine="59" fill="#F1F1F1" height="188.875" id="dimmable_srv_ctx" rx="2.5" ry="2.5" style="stroke:#181818;stroke-width:0.5;" width="504" x="881" y="1304.56"/><ellipse cx="1072.75" cy="1320.56" fill="#F1F1F1" rx="11" ry="11" style="stroke:#181818;stroke-width:1.0;"/><path d="M1070.8594,1325.1225 Q1070.6406,1325.3881 1070.5,1325.4663 Q1070.3594,1325.5444 1070.1719,1325.5444 Q1069.7813,1325.5444 1069.5313,1325.2788 Q1069.2969,1325.0131 1069.2969,1324.4194 L1069.2969,1323.2631 Q1069.2969,1322.6538 1069.5313,1322.4038 Q1069.7813,1322.1381 1070.1719,1322.1381 Q1070.4688,1322.1381 1070.6719,1322.2944 Q1070.875,1322.4506 1070.9844,1322.8256 Q1071.0938,1323.185 1071.2031,1323.3256 Q1071.4531,1323.5756 1072.0625,1323.8413 Q1072.6719,1324.1069 1073.4063,1324.1069 Q1074.5469,1324.1069 1075.2656,1323.5756 Q1075.7344,1323.2475 1075.7344,1322.7788 Q1075.7344,1322.4663 1075.5156,1322.185 Q1075.2969,1321.9038 1074.7813,1321.7319 Q1074.4531,1321.6069 1073.2969,1321.3881 Q1071.9063,1321.1225 1071.1875,1320.7631 Q1070.4688,1320.4038 1070.0469,1319.7475 Q1069.6406,1319.0756 1069.6406,1318.2944 Q1069.6406,1317.0756 1070.6563,1316.1694 Q1071.6875,1315.2475 1073.3281,1315.2475 Q1073.9844,1315.2475 1074.5313,1315.3881 Q1075.0938,1315.5288 1075.5625,1315.8256 Q1075.8906,1315.5131 1076.2188,1315.5131 Q1076.5938,1315.5131 1076.8281,1315.7788 Q1077.0625,1316.0288 1077.0625,1316.6381 L1077.0625,1317.9194 Q1077.0625,1318.5288 1076.8281,1318.7944 Q1076.5938,1319.0444 1076.2188,1319.0444 Q1075.9063,1319.0444 1075.6719,1318.8569 Q1075.4844,1318.7163 1075.3906,1318.2944 Q1075.3125,1317.8725 1075.1719,1317.685 Q1074.9219,1317.3725 1074.4375,1317.1694 Q1073.9688,1316.9506 1073.3281,1316.9506 Q1072.4063,1316.9506 1071.875,1317.3725 Q1071.3438,1317.7944 1071.3438,1318.2631 Q1071.3438,1318.5756 1071.5625,1318.8725 Q1071.7813,1319.1694 1072.2031,1319.3413 Q1072.4844,1319.4506 1073.7813,1319.7163 Q1075.0938,1319.9663 1075.7969,1320.2788 Q1076.5,1320.5756 1076.9688,1321.2319 Q1077.4375,1321.8881 1077.4375,1322.7944 Q1077.4375,1324.06 1076.5469,1324.81 Q1075.3594,1325.81 1073.5313,1325.81 Q1072.8281,1325.81 1072.1563,1325.6381 Q1071.5,1325.4663 1070.8594,1325.1225 Z " fill="#000000"/><text fill="#000000" font-family="sans-serif" font-size="14" lengthAdjust="spacing" textLength="112" x="1093.25" y="1326.2885">dimmable_srv_ctx</text><line style="stroke:#181818;stroke-width:0.5;" x1="882" x2="1384" y1="1336.56" y2="1336.56"/><text fill="#000000" font-family="sans-serif" font-size="14" lengthAdjust="spacing" textLength="168" x="887" y="1355.0932">struct bt_mesh_lvl_srv srv;</text><text fill="#000000" font-family="sans-serif" font-size="14" lengthAdjust="spacing" textLength="105" x="1111" y="1355.0932">//server instance</text><text fill="#000000" font-family="sans-serif" font-size="14" lengthAdjust="spacing" textLength="189" x="887" y="1372.7026">struct k_work_delayable work;</text><text fill="#000000" font-family="sans-serif" font-size="14" lengthAdjust="spacing" textLength="155" x="887" y="1390.312">uint32_t remaining_time;</text><text fill="#000000" font-family="sans-serif" font-size="14" lengthAdjust="spacing" textLength="133" x="887" y="1407.9213">uint32_t time_period;</text><text fill="#000000" font-family="sans-serif" font-size="14" lengthAdjust="spacing" textLength="125" x="887" y="1425.5307">uint16_t current_lvl;</text><text fill="#000000" font-family="sans-serif" font-size="14" lengthAdjust="spacing" textLength="117" x="887" y="1443.1401">uint16_t target_lvl;</text><text fill="#000000" font-family="sans-serif" font-size="14" lengthAdjust="spacing" textLength="120" x="887" y="1460.7495">int16_t move_step;</text><line style="stroke:#181818;stroke-width:0.5;" x1="882" x2="1384" y1="1467.8256" y2="1467.8256"/><text fill="#000000" font-family="sans-serif" font-size="14" lengthAdjust="spacing" textLength="244" x="887" y="1486.3588">uint16_t (*pwm_output)(uint16_t level);</text><text fill="#000000" font-family="sans-serif" font-size="14" lengthAdjust="spacing" textLength="236" x="1143" y="1486.3588">//function pointer to execute set value</text></g><!--entity dimmable_set--><g id="elem_dimmable_set"><polygon fill="#F1F1F1" points="1805,1290,1761.5,1276.2,1674.5,1276.2,1631,1290,1674.5,1303.8,1761.5,1303.8,1805,1290" style="stroke:#181818;stroke-width:0.5;"/><text fill="#000000" font-family="sans-serif" font-size="14" lengthAdjust="spacing" textLength="87" x="1674.5" y="1295.7332">dimmable_set</text></g><!--entity dimmable_get--><g id="elem_dimmable_get"><polygon fill="#F1F1F1" points="1806,1353,1762,1339.2,1674,1339.2,1630,1353,1674,1366.8,1762,1366.8,1806,1353" style="stroke:#181818;stroke-width:0.5;"/><text fill="#000000" font-family="sans-serif" font-size="14" lengthAdjust="spacing" textLength="88" x="1674" y="1358.7332">dimmable_get</text></g><!--entity dimmable_move_set--><g id="elem_dimmable_move_set"><polygon fill="#F1F1F1" points="1847,1416,1782.5,1402.2,1653.5,1402.2,1589,1416,1653.5,1429.8,1782.5,1429.8,1847,1416" style="stroke:#181818;stroke-width:0.5;"/><text fill="#000000" font-family="sans-serif" font-size="14" lengthAdjust="spacing" textLength="129" x="1653.5" y="1421.7332">dimmable_move_set</text></g><!--entity dimmable_work--><g id="elem_dimmable_work"><polygon fill="#F1F1F1" points="1815,1479,1766.5,1465.2,1669.5,1465.2,1621,1479,1669.5,1492.8,1766.5,1492.8,1815,1479" style="stroke:#181818;stroke-width:0.5;"/><text fill="#000000" font-family="sans-serif" font-size="14" lengthAdjust="spacing" textLength="97" x="1669.5" y="1484.7332">dimmable_work</text></g><!--entity dimmable_update--><g id="elem_dimmable_update"><polygon fill="#F1F1F1" points="702,1469,646,1455.2,534,1455.2,478,1469,534,1482.8,646,1482.8,702,1469" style="stroke:#181818;stroke-width:0.5;"/><text fill="#000000" font-family="sans-serif" font-size="14" lengthAdjust="spacing" textLength="112" x="534" y="1474.7332">dimmable_update</text></g><!--class relais_cli_ctx--><g id="elem_relais_cli_ctx"><rect codeLine="76" fill="#F1F1F1" height="83.2188" id="relais_cli_ctx" rx="2.5" ry="2.5" style="stroke:#181818;stroke-width:0.5;" width="207" x="2078.5" y="2468.39"/><ellipse cx="2137.75" cy="2484.39" fill="#F1F1F1" rx="11" ry="11" style="stroke:#181818;stroke-width:1.0;"/><path d="M2135.8594,2488.9525 Q2135.6406,2489.2181 2135.5,2489.2963 Q2135.3594,2489.3744 2135.1719,2489.3744 Q2134.7813,2489.3744 2134.5313,2489.1088 Q2134.2969,2488.8431 2134.2969,2488.2494 L2134.2969,2487.0931 Q2134.2969,2486.4838 2134.5313,2486.2338 Q2134.7813,2485.9681 2135.1719,2485.9681 Q2135.4688,2485.9681 2135.6719,2486.1244 Q2135.875,2486.2806 2135.9844,2486.6556 Q2136.0938,2487.015 2136.2031,2487.1556 Q2136.4531,2487.4056 2137.0625,2487.6713 Q2137.6719,2487.9369 2138.4063,2487.9369 Q2139.5469,2487.9369 2140.2656,2487.4056 Q2140.7344,2487.0775 2140.7344,2486.6088 Q2140.7344,2486.2963 2140.5156,2486.015 Q2140.2969,2485.7338 2139.7813,2485.5619 Q2139.4531,2485.4369 2138.2969,2485.2181 Q2136.9063,2484.9525 2136.1875,2484.5931 Q2135.4688,2484.2338 2135.0469,2483.5775 Q2134.6406,2482.9056 2134.6406,2482.1244 Q2134.6406,2480.9056 2135.6563,2479.9994 Q2136.6875,2479.0775 2138.3281,2479.0775 Q2138.9844,2479.0775 2139.5313,2479.2181 Q2140.0938,2479.3588 2140.5625,2479.6556 Q2140.8906,2479.3431 2141.2188,2479.3431 Q2141.5938,2479.3431 2141.8281,2479.6088 Q2142.0625,2479.8588 2142.0625,2480.4681 L2142.0625,2481.7494 Q2142.0625,2482.3588 2141.8281,2482.6244 Q2141.5938,2482.8744 2141.2188,2482.8744 Q2140.9063,2482.8744 2140.6719,2482.6869 Q2140.4844,2482.5463 2140.3906,2482.1244 Q2140.3125,2481.7025 2140.1719,2481.515 Q2139.9219,2481.2025 2139.4375,2480.9994 Q2138.9688,2480.7806 2138.3281,2480.7806 Q2137.4063,2480.7806 2136.875,2481.2025 Q2136.3438,2481.6244 2136.3438,2482.0931 Q2136.3438,2482.4056 2136.5625,2482.7025 Q2136.7813,2482.9994 2137.2031,2483.1713 Q2137.4844,2483.2806 2138.7813,2483.5463 Q2140.0938,2483.7963 2140.7969,2484.1088 Q2141.5,2484.4056 2141.9688,2485.0619 Q2142.4375,2485.7181 2142.4375,2486.6244 Q2142.4375,2487.89 2141.5469,2488.64 Q2140.3594,2489.64 2138.5313,2489.64 Q2137.8281,2489.64 2137.1563,2489.4681 Q2136.5,2489.2963 2135.8594,2488.9525 Z " fill="#000000"/><text fill="#000000" font-family="sans-serif" font-size="14" lengthAdjust="spacing" textLength="80" x="2158.25" y="2490.1185">relais_cli_ctx</text><line style="stroke:#181818;stroke-width:0.5;" x1="2079.5" x2="2284.5" y1="2500.39" y2="2500.39"/><text fill="#000000" font-family="sans-serif" font-size="14" lengthAdjust="spacing" textLength="73" x="2084.5" y="2518.9232">bool status;</text><text fill="#000000" font-family="sans-serif" font-size="14" lengthAdjust="spacing" textLength="195" x="2084.5" y="2536.5326">struct bt_mesh_onoff_cli client;</text><line style="stroke:#181818;stroke-width:0.5;" x1="2079.5" x2="2284.5" y1="2543.6088" y2="2543.6088"/></g><!--entity relais_status_handler--><g id="elem_relais_status_handler"><polygon fill="#F1F1F1" points="1854,2500,1786,2486.2,1650,2486.2,1582,2500,1650,2513.8,1786,2513.8,1854,2500" style="stroke:#181818;stroke-width:0.5;"/><text fill="#000000" font-family="sans-serif" font-size="14" lengthAdjust="spacing" textLength="136" x="1650" y="2505.7332">relais_status_handler</text></g><!--entity toggle_onoff--><g id="elem_toggle_onoff"><polygon fill="#F1F1F1" points="2640,2538,2600.5,2524.2,2521.5,2524.2,2482,2538,2521.5,2551.8,2600.5,2551.8,2640,2538" style="stroke:#181818;stroke-width:0.5;"/><text fill="#000000" font-family="sans-serif" font-size="14" lengthAdjust="spacing" textLength="79" x="2521.5" y="2543.7332">toggle_onoff</text></g><!--entity set_onoff--><g id="elem_set_onoff"><polygon fill="#F1F1F1" points="2620,2475,2590.5,2461.2,2531.5,2461.2,2502,2475,2531.5,2488.8,2590.5,2488.8,2620,2475" style="stroke:#181818;stroke-width:0.5;"/><text fill="#000000" font-family="sans-serif" font-size="14" lengthAdjust="spacing" textLength="59" x="2531.5" y="2480.7332">set_onoff</text></g><!--class relais_srv_ctx--><g id="elem_relais_srv_ctx"><rect codeLine="85" fill="#F1F1F1" height="136.0469" id="relais_srv_ctx" rx="2.5" ry="2.5" style="stroke:#181818;stroke-width:0.5;" width="272" x="997" y="1743.98"/><ellipse cx="1085.75" cy="1759.98" fill="#F1F1F1" rx="11" ry="11" style="stroke:#181818;stroke-width:1.0;"/><path d="M1083.8594,1764.5425 Q1083.6406,1764.8081 1083.5,1764.8863 Q1083.3594,1764.9644 1083.1719,1764.9644 Q1082.7813,1764.9644 1082.5313,1764.6988 Q1082.2969,1764.4331 1082.2969,1763.8394 L1082.2969,1762.6831 Q1082.2969,1762.0738 1082.5313,1761.8238 Q1082.7813,1761.5581 1083.1719,1761.5581 Q1083.4688,1761.5581 1083.6719,1761.7144 Q1083.875,1761.8706 1083.9844,1762.2456 Q1084.0938,1762.605 1084.2031,1762.7456 Q1084.4531,1762.9956 1085.0625,1763.2613 Q1085.6719,1763.5269 1086.4063,1763.5269 Q1087.5469,1763.5269 1088.2656,1762.9956 Q1088.7344,1762.6675 1088.7344,1762.1988 Q1088.7344,1761.8863 1088.5156,1761.605 Q1088.2969,1761.3238 1087.7813,1761.1519 Q1087.4531,1761.0269 1086.2969,1760.8081 Q1084.9063,1760.5425 1084.1875,1760.1831 Q1083.4688,1759.8238 1083.0469,1759.1675 Q1082.6406,1758.4956 1082.6406,1757.7144 Q1082.6406,1756.4956 1083.6563,1755.5894 Q1084.6875,1754.6675 1086.3281,1754.6675 Q1086.9844,1754.6675 1087.5313,1754.8081 Q1088.0938,1754.9488 1088.5625,1755.2456 Q1088.8906,1754.9331 1089.2188,1754.9331 Q1089.5938,1754.9331 1089.8281,1755.1988 Q1090.0625,1755.4488 1090.0625,1756.0581 L1090.0625,1757.3394 Q1090.0625,1757.9488 1089.8281,1758.2144 Q1089.5938,1758.4644 1089.2188,1758.4644 Q1088.9063,1758.4644 1088.6719,1758.2769 Q1088.4844,1758.1363 1088.3906,1757.7144 Q1088.3125,1757.2925 1088.1719,1757.105 Q1087.9219,1756.7925 1087.4375,1756.5894 Q1086.9688,1756.3706 1086.3281,1756.3706 Q1085.4063,1756.3706 1084.875,1756.7925 Q1084.3438,1757.2144 1084.3438,1757.6831 Q1084.3438,1757.9956 1084.5625,1758.2925 Q1084.7813,1758.5894 1085.2031,1758.7613 Q1085.4844,1758.8706 1086.7813,1759.1363 Q1088.0938,1759.3863 1088.7969,1759.6988 Q1089.5,1759.9956 1089.9688,1760.6519 Q1090.4375,1761.3081 1090.4375,1762.2144 Q1090.4375,1763.48 1089.5469,1764.23 Q1088.3594,1765.23 1086.5313,1765.23 Q1085.8281,1765.23 1085.1563,1765.0581 Q1084.5,1764.8863 1083.8594,1764.5425 Z " fill="#000000"/><text fill="#000000" font-family="sans-serif" font-size="14" lengthAdjust="spacing" textLength="86" x="1106.25" y="1765.7085">relais_srv_ctx</text><line style="stroke:#181818;stroke-width:0.5;" x1="998" x2="1268" y1="1775.98" y2="1775.98"/><text fill="#000000" font-family="sans-serif" font-size="14" lengthAdjust="spacing" textLength="187" x="1003" y="1794.5132">struct bt_mesh_onoff_srv srv;</text><text fill="#000000" font-family="sans-serif" font-size="14" lengthAdjust="spacing" textLength="189" x="1003" y="1812.1226">struct k_work_delayable work;</text><text fill="#000000" font-family="sans-serif" font-size="14" lengthAdjust="spacing" textLength="121" x="1003" y="1829.732">uint32_t remaining;</text><text fill="#000000" font-family="sans-serif" font-size="14" lengthAdjust="spacing" textLength="69" x="1003" y="1847.3413">bool value;</text><line style="stroke:#181818;stroke-width:0.5;" x1="998" x2="1268" y1="1854.4175" y2="1854.4175"/><text fill="#000000" font-family="sans-serif" font-size="14" lengthAdjust="spacing" textLength="260" x="1003" y="1872.9507">bool (*relais_output)(bool onOFF_value);</text></g><!--entity relais_set--><g id="elem_relais_set"><polygon fill="#F1F1F1" points="1779,1818,1748.5,1804.2,1687.5,1804.2,1657,1818,1687.5,1831.8,1748.5,1831.8,1779,1818" style="stroke:#181818;stroke-width:0.5;"/><text fill="#000000" font-family="sans-serif" font-size="14" lengthAdjust="spacing" textLength="61" x="1687.5" y="1823.7332">relais_set</text></g><!--entity relais_get--><g id="elem_relais_get"><polygon fill="#F1F1F1" points="1780,1881,1749,1867.2,1687,1867.2,1656,1881,1687,1894.8,1749,1894.8,1780,1881" style="stroke:#181818;stroke-width:0.5;"/><text fill="#000000" font-family="sans-serif" font-size="14" lengthAdjust="spacing" textLength="62" x="1687" y="1886.7332">relais_get</text></g><!--entity relais_work--><g id="elem_relais_work"><polygon fill="#F1F1F1" points="1789,1755,1753.5,1741.2,1682.5,1741.2,1647,1755,1682.5,1768.8,1753.5,1768.8,1789,1755" style="stroke:#181818;stroke-width:0.5;"/><text fill="#000000" font-family="sans-serif" font-size="14" lengthAdjust="spacing" textLength="71" x="1682.5" y="1760.7332">relais_work</text></g><!--entity relais_update--><g id="elem_relais_update"><polygon fill="#F1F1F1" points="676,1778,633,1764.2,547,1764.2,504,1778,547,1791.8,633,1791.8,676,1778" style="stroke:#181818;stroke-width:0.5;"/><text fill="#000000" font-family="sans-serif" font-size="14" lengthAdjust="spacing" textLength="86" x="547" y="1783.7332">relais_update</text></g><!--class output_command_type--><g id="elem_output_command_type"><rect codeLine="98" fill="#F1F1F1" height="83.2188" id="output_command_type" rx="2.5" ry="2.5" style="stroke:#181818;stroke-width:0.5;" width="248" x="1594" y="459.39"/><ellipse cx="1641.75" cy="475.39" fill="#EB937F" rx="11" ry="11" style="stroke:#181818;stroke-width:1.0;"/><path d="M1640.6094,476.1869 L1640.6094,478.6869 L1644.9375,478.6869 L1644.9375,477.765 Q1644.9375,477.1556 1645.1719,476.89 Q1645.4219,476.6244 1645.7969,476.6244 Q1646.1719,476.6244 1646.4063,476.89 Q1646.6406,477.1556 1646.6406,477.765 L1646.6406,480.39 L1638.6406,480.39 Q1638.0156,480.39 1637.75,480.1556 Q1637.5,479.9212 1637.5,479.5306 Q1637.5,479.1556 1637.7656,478.9212 Q1638.0313,478.6869 1638.6406,478.6869 L1638.9063,478.6869 L1638.9063,472.0306 L1638.6406,472.0306 Q1638.0156,472.0306 1637.75,471.7962 Q1637.5,471.5619 1637.5,471.1712 Q1637.5,470.7962 1637.75,470.5619 Q1638.0156,470.3275 1638.6406,470.3275 L1646.2656,470.3275 L1646.2656,472.9212 Q1646.2656,473.5306 1646.0313,473.7962 Q1645.8125,474.0462 1645.4219,474.0462 Q1645.0469,474.0462 1644.8125,473.7962 Q1644.5781,473.5306 1644.5781,472.9212 L1644.5781,472.0306 L1640.6094,472.0306 L1640.6094,474.4837 L1642.0938,474.4837 Q1642.0938,473.8275 1642.2188,473.64 Q1642.4844,473.2337 1642.9531,473.2337 Q1643.3281,473.2337 1643.5625,473.4994 Q1643.7969,473.7494 1643.7969,474.3587 L1643.7969,476.3275 Q1643.7969,476.8744 1643.6719,477.0619 Q1643.4063,477.4525 1642.9531,477.4525 Q1642.4844,477.4525 1642.2188,477.0462 Q1642.0938,476.8587 1642.0938,476.1869 L1640.6094,476.1869 Z " fill="#000000"/><text fill="#000000" font-family="sans-serif" font-size="14" lengthAdjust="spacing" textLength="144" x="1662.25" y="481.1185">output_command_type</text><line style="stroke:#181818;stroke-width:0.5;" x1="1595" x2="1841" y1="491.39" y2="491.39"/><text fill="#000000" font-family="sans-serif" font-size="14" lengthAdjust="spacing" textLength="236" x="1600" y="509.9232">OUTPUT_COMMAND_TYPE_ONOFF</text><text fill="#000000" font-family="sans-serif" font-size="14" lengthAdjust="spacing" textLength="230" x="1600" y="527.5326">OUTPUT_COMMAND_TYPE_LEVEL</text><line style="stroke:#181818;stroke-width:0.5;" x1="1595" x2="1841" y1="534.6087" y2="534.6087"/></g><!--class output_command--><g id="elem_output_command"><rect codeLine="102" fill="#F1F1F1" height="100.8281" id="output_command" rx="2.5" ry="2.5" style="stroke:#181818;stroke-width:0.5;" width="180" x="2092" y="450.59"/><ellipse cx="2124.55" cy="466.59" fill="#F1F1F1" rx="11" ry="11" style="stroke:#181818;stroke-width:1.0;"/><path d="M2122.6594,471.1525 Q2122.4406,471.4181 2122.3,471.4963 Q2122.1594,471.5744 2121.9719,471.5744 Q2121.5813,471.5744 2121.3313,471.3088 Q2121.0969,471.0431 2121.0969,470.4494 L2121.0969,469.2931 Q2121.0969,468.6838 2121.3313,468.4338 Q2121.5813,468.1681 2121.9719,468.1681 Q2122.2688,468.1681 2122.4719,468.3244 Q2122.675,468.4806 2122.7844,468.8556 Q2122.8938,469.215 2123.0031,469.3556 Q2123.2531,469.6056 2123.8625,469.8713 Q2124.4719,470.1369 2125.2063,470.1369 Q2126.3469,470.1369 2127.0656,469.6056 Q2127.5344,469.2775 2127.5344,468.8088 Q2127.5344,468.4963 2127.3156,468.215 Q2127.0969,467.9338 2126.5813,467.7619 Q2126.2531,467.6369 2125.0969,467.4181 Q2123.7063,467.1525 2122.9875,466.7931 Q2122.2688,466.4338 2121.8469,465.7775 Q2121.4406,465.1056 2121.4406,464.3244 Q2121.4406,463.1056 2122.4563,462.1994 Q2123.4875,461.2775 2125.1281,461.2775 Q2125.7844,461.2775 2126.3313,461.4181 Q2126.8938,461.5588 2127.3625,461.8556 Q2127.6906,461.5431 2128.0188,461.5431 Q2128.3938,461.5431 2128.6281,461.8088 Q2128.8625,462.0588 2128.8625,462.6681 L2128.8625,463.9494 Q2128.8625,464.5588 2128.6281,464.8244 Q2128.3938,465.0744 2128.0188,465.0744 Q2127.7063,465.0744 2127.4719,464.8869 Q2127.2844,464.7463 2127.1906,464.3244 Q2127.1125,463.9025 2126.9719,463.715 Q2126.7219,463.4025 2126.2375,463.1994 Q2125.7688,462.9806 2125.1281,462.9806 Q2124.2063,462.9806 2123.675,463.4025 Q2123.1438,463.8244 2123.1438,464.2931 Q2123.1438,464.6056 2123.3625,464.9025 Q2123.5813,465.1994 2124.0031,465.3713 Q2124.2844,465.4806 2125.5813,465.7463 Q2126.8938,465.9963 2127.5969,466.3088 Q2128.3,466.6056 2128.7688,467.2619 Q2129.2375,467.9181 2129.2375,468.8244 Q2129.2375,470.09 2128.3469,470.84 Q2127.1594,471.84 2125.3313,471.84 Q2124.6281,471.84 2123.9563,471.6681 Q2123.3,471.4963 2122.6594,471.1525 Z " fill="#000000"/><text fill="#000000" font-family="sans-serif" font-size="14" lengthAdjust="spacing" textLength="109" x="2142.45" y="472.3185">output_command</text><line style="stroke:#181818;stroke-width:0.5;" x1="2093" x2="2271" y1="482.59" y2="482.59"/><text fill="#000000" font-family="sans-serif" font-size="14" lengthAdjust="spacing" textLength="80" x="2098" y="501.1232">int cmd_type</text><text fill="#000000" font-family="sans-serif" font-size="14" lengthAdjust="spacing" textLength="97" x="2098" y="518.7326">union off_value</text><text fill="#000000" font-family="sans-serif" font-size="14" lengthAdjust="spacing" textLength="168" x="2098" y="536.342">union function_set_pointer</text><line style="stroke:#181818;stroke-width:0.5;" x1="2093" x2="2271" y1="543.4181" y2="543.4181"/></g><!--class temp_watchdog_ctx--><g id="elem_temp_watchdog_ctx"><rect codeLine="107" fill="#F1F1F1" height="188.875" id="temp_watchdog_ctx" rx="2.5" ry="2.5" style="stroke:#181818;stroke-width:0.5;" width="455" x="3036" y="445.56"/><ellipse cx="3197.25" cy="461.56" fill="#F1F1F1" rx="11" ry="11" style="stroke:#181818;stroke-width:1.0;"/><path d="M3195.3594,466.1225 Q3195.1406,466.3881 3195,466.4662 Q3194.8594,466.5444 3194.6719,466.5444 Q3194.2813,466.5444 3194.0313,466.2787 Q3193.7969,466.0131 3193.7969,465.4194 L3193.7969,464.2631 Q3193.7969,463.6537 3194.0313,463.4037 Q3194.2813,463.1381 3194.6719,463.1381 Q3194.9688,463.1381 3195.1719,463.2944 Q3195.375,463.4506 3195.4844,463.8256 Q3195.5938,464.185 3195.7031,464.3256 Q3195.9531,464.5756 3196.5625,464.8412 Q3197.1719,465.1069 3197.9063,465.1069 Q3199.0469,465.1069 3199.7656,464.5756 Q3200.2344,464.2475 3200.2344,463.7787 Q3200.2344,463.4662 3200.0156,463.185 Q3199.7969,462.9037 3199.2813,462.7319 Q3198.9531,462.6069 3197.7969,462.3881 Q3196.4063,462.1225 3195.6875,461.7631 Q3194.9688,461.4037 3194.5469,460.7475 Q3194.1406,460.0756 3194.1406,459.2944 Q3194.1406,458.0756 3195.1563,457.1694 Q3196.1875,456.2475 3197.8281,456.2475 Q3198.4844,456.2475 3199.0313,456.3881 Q3199.5938,456.5287 3200.0625,456.8256 Q3200.3906,456.5131 3200.7188,456.5131 Q3201.0938,456.5131 3201.3281,456.7787 Q3201.5625,457.0287 3201.5625,457.6381 L3201.5625,458.9194 Q3201.5625,459.5287 3201.3281,459.7944 Q3201.0938,460.0444 3200.7188,460.0444 Q3200.4063,460.0444 3200.1719,459.8569 Q3199.9844,459.7162 3199.8906,459.2944 Q3199.8125,458.8725 3199.6719,458.685 Q3199.4219,458.3725 3198.9375,458.1694 Q3198.4688,457.9506 3197.8281,457.9506 Q3196.9063,457.9506 3196.375,458.3725 Q3195.8438,458.7944 3195.8438,459.2631 Q3195.8438,459.5756 3196.0625,459.8725 Q3196.2813,460.1694 3196.7031,460.3412 Q3196.9844,460.4506 3198.2813,460.7162 Q3199.5938,460.9662 3200.2969,461.2787 Q3201,461.5756 3201.4688,462.2319 Q3201.9375,462.8881 3201.9375,463.7944 Q3201.9375,465.06 3201.0469,465.81 Q3199.8594,466.81 3198.0313,466.81 Q3197.3281,466.81 3196.6563,466.6381 Q3196,466.4662 3195.3594,466.1225 Z " fill="#000000"/><text fill="#000000" font-family="sans-serif" font-size="14" lengthAdjust="spacing" textLength="124" x="3217.75" y="467.2885">temp_watchdog_ctx</text><line style="stroke:#181818;stroke-width:0.5;" x1="3037" x2="3490" y1="477.56" y2="477.56"/><text fill="#000000" font-family="sans-serif" font-size="14" lengthAdjust="spacing" textLength="82" x="3042" y="496.0932">int16_t temp;</text><text fill="#000000" font-family="sans-serif" font-size="14" lengthAdjust="spacing" textLength="128" x="3042" y="513.7026">int64_t last_fetched;</text><text fill="#000000" font-family="sans-serif" font-size="14" lengthAdjust="spacing" textLength="189" x="3042" y="531.312">struct k_work_delayable work;</text><text fill="#000000" font-family="sans-serif" font-size="14" lengthAdjust="spacing" textLength="443" x="3042" y="548.9213">struct output_command* output_commands[NUMBER_OF_OUTPUTS];</text><text fill="#000000" font-family="sans-serif" font-size="14" lengthAdjust="spacing" textLength="107" x="3042" y="566.5307">bool overheated;</text><line style="stroke:#181818;stroke-width:0.5;" x1="3037" x2="3490" y1="573.6069" y2="573.6069"/><text fill="#000000" font-family="sans-serif" font-size="14" lengthAdjust="spacing" textLength="218" x="3042" y="592.1401">int16_t (*fetch_temperature)(void);</text><text fill="#000000" font-family="sans-serif" font-size="14" lengthAdjust="spacing" textLength="202" x="3042" y="609.7495">void (*notify_overheating)(void);</text><text fill="#000000" font-family="sans-serif" font-size="14" lengthAdjust="spacing" textLength="195" x="3042" y="627.3588">void (*notify_normalized)(void);</text></g><!--entity init_temperature_watchdog--><g id="elem_init_temperature_watchdog"><polygon fill="#F1F1F1" points="2732,558,2646.5,544.2,2475.5,544.2,2390,558,2475.5,571.8,2646.5,571.8,2732,558" style="stroke:#181818;stroke-width:0.5;"/><text fill="#000000" font-family="sans-serif" font-size="14" lengthAdjust="spacing" textLength="171" x="2475.5" y="563.7332">init_temperature_watchdog</text></g><!--entity safely_switch_X--><g id="elem_safely_switch_X"><polygon fill="#F1F1F1" points="3834,540,3784.5,526.2,3685.5,526.2,3636,540,3685.5,553.8,3784.5,553.8,3834,540" style="stroke:#181818;stroke-width:0.5;"/><text fill="#000000" font-family="sans-serif" font-size="14" lengthAdjust="spacing" textLength="99" x="3685.5" y="545.7332">safely_switch_X</text></g><!--entity register_output_cmd--><g id="elem_register_output_cmd"><polygon fill="#F1F1F1" points="2691,458,2626,444.2,2496,444.2,2431,458,2496,471.8,2626,471.8,2691,458" style="stroke:#181818;stroke-width:0.5;"/><text fill="#000000" font-family="sans-serif" font-size="14" lengthAdjust="spacing" textLength="130" x="2496" y="463.7332">register_output_cmd</text></g><!--entity deregister_output_cmd--><g id="elem_deregister_output_cmd"><polygon fill="#F1F1F1" points="2707,621,2634,607.2,2488,607.2,2415,621,2488,634.8,2634,634.8,2707,621" style="stroke:#181818;stroke-width:0.5;"/><text fill="#000000" font-family="sans-serif" font-size="14" lengthAdjust="spacing" textLength="146" x="2488" y="626.7332">deregister_output_cmd</text></g><!--entity main--><g id="elem_main"><path d="M2157,817.7 L2157,850.3094 A2.5,2.5 0 0 0 2159.5,852.8094 L2204.5,852.8094 A2.5,2.5 0 0 0 2207,850.3094 L2207,825.2 L2197,815.2 L2159.5,815.2 A2.5,2.5 0 0 0 2157,817.7 " fill="#F1F1F1" style="stroke:#181818;stroke-width:0.5;"/><path d="M2197,815.2 L2197,822.7 A2.5,2.5 0 0 0 2199.5,825.2 L2207,825.2 " fill="#F1F1F1" style="stroke:#181818;stroke-width:0.5;"/><text fill="#000000" font-family="sans-serif" font-size="14" lengthAdjust="spacing" textLength="30" x="2167" y="839.7332">main</text></g><!--link temperature_watchdog to main--><g id="link_temperature_watchdog_main"><path codeLine="124" d="M1813.812,667.0081 C1814.2518,667.0636 1814.6925,667.1194 1815.1342,667.1756 C1816.0175,667.288 1816.9047,667.402 1817.7956,667.5175 C1819.5774,667.7484 1821.3741,667.9854 1823.185,668.2288 C1881.1325,676.015 1953.54,690.225 2014,716 C2069.4,739.62 2124.72,783.76 2155.73,810.85 " fill="none" id="temperature_watchdog-to-main" style="stroke:#0000FF;stroke-width:1.0;stroke-dasharray:7.0,7.0;"/><polygon fill="#0000FF" points="2159.13,814.71,2155.0246,805.7576,2155.3796,811.4033,2149.7339,811.7583,2159.13,814.71" style="stroke:#0000FF;stroke-width:1.0;"/><text fill="#000000" font-family="sans-serif" font-size="13" lengthAdjust="spacing" textLength="48" x="1930.5" y="677.4951">included</text></g><!--link gpio_pwm_helpers to main--><g id="link_gpio_pwm_helpers_main"><path codeLine="125" d="M1141.1795,360.4547 C1141.3414,360.643 1141.506,360.8342 1141.6732,361.0284 C1142.3421,361.8049 1143.053,362.628 1143.8053,363.4963 C1149.8237,370.4428 1158.4911,380.2822 1169.4647,392.31 C1191.4119,416.3656 1222.5837,449.175 1260.2375,485.1025 C1335.545,556.9575 1436.78,641.285 1542,693 C1758.74,799.53 2056.15,826.36 2150.8,832.4 " fill="none" id="gpio_pwm_helpers-to-main" style="stroke:#0000FF;stroke-width:1.0;stroke-dasharray:7.0,7.0;"/><polygon fill="#0000FF" points="2155.73,832.77,2146.9857,828.2382,2150.739,832.4705,2146.5066,836.2238,2155.73,832.77" style="stroke:#0000FF;stroke-width:1.0;"/><text fill="#000000" font-family="sans-serif" font-size="13" lengthAdjust="spacing" textLength="48" x="1694" y="689.4951">included</text></g><!--link health_model to main--><g id="link_health_model_main"><path codeLine="126" d="M1749.6848,1082.025 C1750.264,1082.1583 1750.8502,1082.2923 1751.4433,1082.4269 C1770.4209,1086.7344 1796.4031,1091.6925 1825.7838,1094.7175 C1884.545,1100.7675 1956.9,1099.085 2014,1069 C2100.98,1023.17 2152.8,909.31 2172.21,858.81 " fill="none" id="health_model-to-main" style="stroke:#0000FF;stroke-width:1.0;stroke-dasharray:7.0,7.0;"/><polygon fill="#0000FF" points="2174.31,854.26,2167.3858,861.264,2172.5419,858.9369,2174.869,864.093,2174.31,854.26" style="stroke:#0000FF;stroke-width:1.0;"/><text fill="#000000" font-family="sans-serif" font-size="13" lengthAdjust="spacing" textLength="48" x="1930.5" y="1065.4951">included</text></g><!--link temperature_watchdog to model_handler--><g id="link_temperature_watchdog_model_handler"><path codeLine="129" d="M1738.2234,667.1856 C1738.5042,667.3072 1738.7877,667.43 1739.0738,667.554 C1739.646,667.8021 1740.2288,668.055 1740.822,668.3127 C1742.0082,668.8282 1743.2359,669.363 1744.5031,669.9164 C1749.572,672.1302 1755.2743,674.6433 1761.4966,677.4206 C1786.3856,688.53 1819.5938,703.8675 1853.8575,721.19 C1922.385,755.835 1995.135,798.42 2014,831 C2023.03,846.6 2009.95,1466.59 2022,1480 C2045.415,1506.055 2084.2975,1511.065 2117.75,1509.4337 C2126.1131,1509.0259 2134.1369,1508.203 2141.4947,1507.1901 C2141.7247,1507.1585 2141.9539,1507.1266 2142.1826,1507.0946 " fill="none" id="temperature_watchdog-to-model_handler" style="stroke:#0000FF;stroke-width:1.0;stroke-dasharray:7.0,7.0;"/><polygon fill="#0000FF" points="2142.1826,1507.0946,2132.7148,1504.3815,2137.2309,1507.7881,2133.8243,1512.3042,2142.1826,1507.0946" style="stroke:#0000FF;stroke-width:1.0;"/><text fill="#000000" font-family="sans-serif" font-size="13" lengthAdjust="spacing" textLength="48" x="1930.5" y="743.4951">included</text></g><!--link health_model to model_handler--><g id="link_health_model_model_handler"><path codeLine="130" d="M1823.5213,1081.6699 C1824.0971,1081.8071 1824.673,1081.9465 1825.2489,1082.0879 C1826.4006,1082.3707 1827.5522,1082.6621 1828.7031,1082.9621 C1831.005,1083.5622 1833.3041,1084.1971 1835.5963,1084.8687 C1853.9331,1090.2419 1871.8175,1097.965 1887,1109 C1892.8,1113.21 1889.46,1118.45 1895,1123 C1938.11,1158.43 1980.86,1118.11 2014,1163 C2024.46,1177.17 2010.14,1466.97 2022,1480 C2045.58,1505.9 2084.465,1510.9075 2117.8775,1509.3138 C2126.2306,1508.9153 2134.2417,1508.1043 2141.5861,1507.104 C2141.8156,1507.0727 2142.0445,1507.0413 2142.2727,1507.0097 " fill="none" id="health_model-to-model_handler" style="stroke:#0000FF;stroke-width:1.0;stroke-dasharray:7.0,7.0;"/><polygon fill="#0000FF" points="2142.2727,1507.0097,2132.8089,1504.2829,2137.32,1507.696,2133.9069,1512.2072,2142.2727,1507.0097" style="stroke:#0000FF;stroke-width:1.0;"/><text fill="#000000" font-family="sans-serif" font-size="13" lengthAdjust="spacing" textLength="48" x="1930.5" y="1119.4951">included</text></g><!--link relais_cli_mod to model_handler--><g id="link_relais_cli_mod_model_handler"><path codeLine="131" d="M1960.5284,2408.9243 C1960.9824,2408.6856 1961.4354,2408.4452 1961.8874,2408.2032 C1963.6953,2407.2354 1965.4869,2406.2416 1967.2609,2405.2211 C1970.8091,2403.1803 1974.2871,2401.0331 1977.6852,2398.7744 C1991.2775,2389.7398 2003.5913,2378.9225 2014,2366 C2026.93,2349.94 2018.6,2015.33 2022,1995 C2040.965,1881.735 2080.245,1758.78 2115.0162,1663.625 C2132.4019,1616.0475 2148.6603,1575.42 2160.6886,1546.4288 C2166.7027,1531.9331 2171.6593,1520.3466 2175.1705,1512.2548 C2175.6094,1511.2434 2176.0257,1510.2865 2176.4187,1509.3854 C2176.6152,1508.9349 2176.8058,1508.4982 2176.9906,1508.0757 C2177.0829,1507.8644 2177.1738,1507.6567 2177.2632,1507.4525 " fill="none" id="relais_cli_mod-to-model_handler" style="stroke:#0000FF;stroke-width:1.0;stroke-dasharray:7.0,7.0;"/><polygon fill="#0000FF" points="2177.2632,1507.4525,2169.9901,1514.0934,2175.2583,1512.0329,2177.3188,1517.3012,2177.2632,1507.4525" style="stroke:#0000FF;stroke-width:1.0;"/><text fill="#000000" font-family="sans-serif" font-size="13" lengthAdjust="spacing" textLength="48" x="1930.5" y="2362.4951">included</text></g><!--link relais_model to model_handler--><g id="link_relais_model_model_handler"><path codeLine="132" d="M652.7859,1688.8344 C653.2433,1688.6463 653.7021,1688.4582 654.1623,1688.2699 C656.0033,1687.5169 657.867,1686.7621 659.7509,1686.0075 C667.2868,1682.9889 675.1468,1679.9719 683.1708,1677.0719 C699.2188,1671.2719 715.9225,1665.94 732,1662 C1288.69,1525.56 1445.15,1592.22 2014,1522 C2050.6,1517.48 2091.6275,1511.8375 2123.8575,1507.2725 C2124.3611,1507.2012 2124.8625,1507.1301 2125.3618,1507.0593 " fill="none" id="relais_model-to-model_handler" style="stroke:#0000FF;stroke-width:1.0;stroke-dasharray:7.0,7.0;"/><polygon fill="#0000FF" points="2125.3618,1507.0593,2115.8893,1504.3625,2120.4113,1507.7613,2117.0125,1512.2833,2125.3618,1507.0593" style="stroke:#0000FF;stroke-width:1.0;"/><text fill="#000000" font-family="sans-serif" font-size="13" lengthAdjust="spacing" textLength="48" x="1450.5" y="1556.4951">included</text></g><!--link lvl_cli_mod to model_handler--><g id="link_lvl_cli_mod_model_handler"><path codeLine="133" d="M1893.3597,1958.8949 C1894.3681,1958.5746 1895.3767,1958.2505 1896.3853,1957.9228 C1898.4025,1957.2674 1900.4198,1956.5972 1902.4361,1955.9118 C1910.5016,1953.1706 1918.552,1950.1876 1926.5211,1946.9416 C1958.3975,1933.9575 1988.9725,1916.765 2014,1894 C2083.95,1830.375 2125.5975,1732.665 2149.8088,1650.3475 C2161.9144,1609.1887 2169.6609,1571.8781 2174.4067,1544.6003 C2176.7796,1530.9614 2178.4023,1519.8307 2179.4446,1511.9813 C2179.5749,1511.0001 2179.6961,1510.0702 2179.8086,1509.1931 C2179.8648,1508.7545 2179.9189,1508.3291 2179.9708,1507.9172 C2179.9967,1507.7112 2180.0222,1507.5085 2180.047,1507.3092 " fill="none" id="lvl_cli_mod-to-model_handler" style="stroke:#0000FF;stroke-width:1.0;stroke-dasharray:7.0,7.0;"/><polygon fill="#0000FF" points="2180.047,1507.3092,2174.9624,1515.7441,2179.4274,1512.2707,2182.9008,1516.7356,2180.047,1507.3092" style="stroke:#0000FF;stroke-width:1.0;"/><text fill="#000000" font-family="sans-serif" font-size="13" lengthAdjust="spacing" textLength="48" x="1930.5" y="1890.4951">included</text></g><!--link lvl_model to model_handler--><g id="link_lvl_model_model_handler"><path codeLine="134" d="M1001.1978,1223.623 C1006.0669,1223.3416 1010.9592,1223.0608 1015.8735,1222.781 C1094.5027,1218.303 1178.7728,1214.0503 1263.8487,1210.6588 C1604.1525,1197.0925 1957.35,1197.305 2014,1252 C2032.24,1269.61 2004.84,1461.34 2022,1480 C2045.71,1505.785 2084.5975,1510.79 2117.9788,1509.2238 C2126.3241,1508.8322 2134.3252,1508.0299 2141.6591,1507.039 " fill="none" id="lvl_model-to-model_handler" style="stroke:#0000FF;stroke-width:1.0;stroke-dasharray:7.0,7.0;"/><polygon fill="#0000FF" points="2141.6591,1507.039,2132.2045,1504.2801,2136.7041,1507.7085,2133.2758,1512.2081,2141.6591,1507.039" style="stroke:#0000FF;stroke-width:1.0;"/><text fill="#000000" font-family="sans-serif" font-size="13" lengthAdjust="spacing" textLength="48" x="1450.5" y="1199.4951">included</text></g><!--link gpio_pwm_helpers to model_handler--><g id="link_gpio_pwm_helpers_model_handler"><path codeLine="135" d="M1135.066,360.7137 C1135.101,360.9845 1135.1368,361.2613 1135.1736,361.5441 C1135.3206,362.6753 1135.4823,363.9024 1135.6592,365.2229 C1136.0131,367.8639 1136.4277,370.8785 1136.907,374.2467 C1138.8241,387.7193 1141.7759,406.8491 1146.0125,430.357 C1154.4856,477.3728 1168.0975,541.9006 1188.8475,613.7063 C1230.3475,757.3175 1300.4,930.04 1415,1050 C1457.86,1094.87 1482.99,1088.8 1542,1108 C1592.89,1124.56 1979.54,1163.05 2014,1204 C2033.75,1227.47 2001.3,1457.35 2022,1480 C2045.63,1505.86 2084.5175,1510.8675 2117.9188,1509.2838 C2126.2691,1508.8878 2134.2765,1508.0799 2141.6169,1507.0829 " fill="none" id="gpio_pwm_helpers-to-model_handler" style="stroke:#0000FF;stroke-width:1.0;stroke-dasharray:7.0,7.0;"/><polygon fill="#0000FF" points="2141.6169,1507.0829,2132.1604,1504.3306,2136.6624,1507.7559,2133.2371,1512.2578,2141.6169,1507.0829" style="stroke:#0000FF;stroke-width:1.0;"/><text fill="#000000" font-family="sans-serif" font-size="13" lengthAdjust="spacing" textLength="48" x="1694" y="1104.4951">included</text></g><!--link gpio_pwm_helpers to health_model--><g id="link_gpio_pwm_helpers_health_model"><path codeLine="138" d="M1135.9411,360.7545 C1136.0719,361.3251 1136.2094,361.9223 1136.3536,362.5458 C1136.6422,363.7927 1136.9579,365.1445 1137.3012,366.5982 C1137.9877,369.5056 1138.7842,372.8205 1139.6936,376.5186 C1143.3311,391.3109 1148.7737,412.2343 1156.1981,437.7336 C1171.0469,488.7322 1193.8225,558.0344 1225.9375,633.1987 C1290.1675,783.5275 1391.755,957.305 1542,1055 C1558.14,1065.495 1576.9344,1071.975 1596.0992,1075.7806 C1600.8904,1076.732 1605.7048,1077.5163 1610.5066,1078.1543 C1611.1069,1078.2341 1611.7069,1078.3116 1612.3067,1078.3868 " fill="none" id="gpio_pwm_helpers-to-health_model" style="stroke:#0000FF;stroke-width:1.0;stroke-dasharray:7.0,7.0;"/><polygon fill="#0000FF" points="1612.3067,1078.3868,1603.8745,1073.2978,1607.3455,1077.7645,1602.8788,1081.2356,1612.3067,1078.3868" style="stroke:#0000FF;stroke-width:1.0;"/><text fill="#000000" font-family="sans-serif" font-size="13" lengthAdjust="spacing" textLength="48" x="1450.5" y="953.4951">included</text></g><!--link conversion_helpers to lvl_cli_mod--><g id="link_conversion_helpers_lvl_cli_mod"><path codeLine="139" d="M193.1756,1784.1696 C193.3354,1784.2841 193.4969,1784.3997 193.66,1784.5163 C193.9861,1784.7495 194.3185,1784.9869 194.6573,1785.2285 C195.3347,1785.7115 196.0373,1786.2111 196.7645,1786.7265 C199.6733,1788.7881 202.9759,1791.1036 206.6395,1793.6344 C221.2941,1803.7575 241.7256,1817.325 265.8413,1831.865 C314.0725,1860.945 377.04,1893.915 438,1911 C574.545,1949.265 892.335,1968.2675 1176.9625,1977.7025 C1319.2763,1982.42 1453.2994,1984.7456 1552.2309,1985.8913 C1555.3225,1985.9271 1558.3799,1985.9617 1561.4021,1985.9952 " fill="none" id="conversion_helpers-to-lvl_cli_mod" style="stroke:#0000FF;stroke-width:1.0;stroke-dasharray:7.0,7.0;"/><polygon fill="#0000FF" points="1561.4021,1985.9952,1552.4471,1981.8956,1556.4025,1985.9398,1552.3583,1989.8951,1561.4021,1985.9952" style="stroke:#0000FF;stroke-width:1.0;"/><text fill="#000000" font-family="sans-serif" font-size="13" lengthAdjust="spacing" textLength="48" x="767.5" y="1949.4951">included</text></g><!--link conversion_helpers to lvl_model--><g id="link_conversion_helpers_lvl_model"><path codeLine="140" d="M217.2499,1784.1132 C217.7407,1784.1998 218.2352,1784.286 218.7335,1784.3719 C219.7299,1784.5435 220.7411,1784.7135 221.7664,1784.8814 C223.8168,1785.217 225.9233,1785.5439 228.0802,1785.8581 C236.7076,1787.1148 246.1403,1788.1672 256.0113,1788.7563 C295.495,1791.1125 341.99,1786.055 372,1757 C532.09,1602.01 274.33,1411.21 438,1260 C441.0369,1257.1944 444.2716,1254.7037 447.6685,1252.4999 C449.3669,1251.398 451.1058,1250.3677 452.8807,1249.4057 C453.1026,1249.2855 453.325,1249.1663 453.548,1249.0481 " fill="none" id="conversion_helpers-to-lvl_model" style="stroke:#0000FF;stroke-width:1.0;stroke-dasharray:7.0,7.0;"/><polygon fill="#0000FF" points="453.548,1249.0481,443.7226,1249.7267,449.1297,1251.3888,447.4676,1256.7959,453.548,1249.0481" style="stroke:#0000FF;stroke-width:1.0;"/><text fill="#000000" font-family="sans-serif" font-size="13" lengthAdjust="spacing" textLength="48" x="381" y="1265.4951">included</text></g><!--reverse link output_command_type to output_command--><g id="link_output_command_type_output_command"><path codeLine="145" d="M1855.75,501 C1932.03,501 2024.85,501 2091.78,501 " fill="none" id="output_command_type-backto-output_command" style="stroke:#181818;stroke-width:1.0;"/><polygon fill="#181818" points="1843.2,501,1849.2,505,1855.2,501,1849.2,497,1843.2,501" style="stroke:#181818;stroke-width:1.0;"/></g><!--reverse link output_command to temp_watchdog_ctx--><g id="link_output_command_temp_watchdog_ctx"><path codeLine="146" d="M2285.96,501.86 C2441.85,503.54 2747.05,508.27 3006,521 C3015.7,521.48 3025.6,522.01 3035.61,522.59 " fill="none" id="output_command-backto-temp_watchdog_ctx" style="stroke:#181818;stroke-width:1.0;"/><polygon fill="#181818" points="2273.26,501.72,2279.2156,505.7858,2285.2593,501.852,2279.3036,497.7862,2273.26,501.72" style="stroke:#181818;stroke-width:1.0;"/></g><!--link output_command to register_output_cmd--><g id="link_output_command_register_output_cmd"><path codeLine="147" d="M2272.34,490.81 C2326.72,484.61 2396.48,476.65 2453.68,470.13 " fill="none" id="output_command-to-register_output_cmd" style="stroke:#181818;stroke-width:1.0;stroke-dasharray:7.0,7.0;"/><polygon fill="none" points="2452.87,463.06,2473.54,467.75,2454.46,476.97,2452.87,463.06" style="stroke:#181818;stroke-width:1.0;"/></g><!--link register_output_cmd to temp_watchdog_ctx--><g id="link_register_output_cmd_temp_watchdog_ctx"><path codeLine="148" d="M2653.1,466.47 C2742.92,475.04 2884.07,489.13 3006,504 C3013.89,504.96 3021.91,505.96 3030.01,506.99 " fill="none" id="register_output_cmd-to-temp_watchdog_ctx" style="stroke:#181818;stroke-width:1.0;"/><polygon fill="#181818" points="3034.63,507.71,3026.2047,502.6096,3029.6697,507.081,3025.1983,510.5461,3034.63,507.71" style="stroke:#181818;stroke-width:1.0;"/><text fill="#000000" font-family="sans-serif" font-size="13" lengthAdjust="spacing" textLength="125" x="2821.5" y="474.4951">add output_command</text></g><!--link deregister_output_cmd to temp_watchdog_ctx--><g id="link_deregister_output_cmd_temp_watchdog_ctx"><path codeLine="149" d="M2666.25,612.82 C2756.34,605.34 2889.96,593.3 3006,579 C3013.9,578.03 3021.93,577 3030.04,575.94 " fill="none" id="deregister_output_cmd-to-temp_watchdog_ctx" style="stroke:#181818;stroke-width:1.0;"/><polygon fill="#181818" points="3034.66,575.19,3025.2124,572.4074,3029.7034,575.8471,3026.2637,580.338,3034.66,575.19" style="stroke:#181818;stroke-width:1.0;"/><text fill="#000000" font-family="sans-serif" font-size="13" lengthAdjust="spacing" textLength="242" x="2763" y="575.4951">remove output_command by cmd_number</text></g><!--link init_temperature_watchdog to temp_watchdog_ctx--><g id="link_init_temperature_watchdog_temp_watchdog_ctx"><path codeLine="150" d="M2710.99,554.17 C2803.64,551.79 2924.73,548.68 3029.84,545.98 " fill="none" id="init_temperature_watchdog-to-temp_watchdog_ctx" style="stroke:#181818;stroke-width:1.0;"/><polygon fill="#181818" points="3034.78,545.83,3025.6802,542.0627,3029.7817,545.9585,3025.8858,550.06,3034.78,545.83" style="stroke:#181818;stroke-width:1.0;"/><text fill="#000000" font-family="sans-serif" font-size="13" lengthAdjust="spacing" textLength="124" x="2822" y="543.4951">initialize empty struct</text></g><!--link temp_watchdog_ctx to safely_switch_X--><g id="link_temp_watchdog_ctx_safely_switch_X"><path codeLine="151" d="M3491.34,540 C3533.55,540 3576.09,540 3613.51,540 " fill="none" id="temp_watchdog_ctx-to-safely_switch_X" style="stroke:#181818;stroke-width:1.0;stroke-dasharray:7.0,7.0;"/><polygon fill="none" points="3613.33,533,3633.33,540,3613.33,547,3613.33,533" style="stroke:#181818;stroke-width:1.0;"/></g><!--reverse link relais_srv_ctx to relais_get--><g id="link_relais_srv_ctx_relais_get"><path codeLine="155" d="M1274.86,1828.67 C1402.08,1843.73 1582.09,1865.03 1667.86,1875.18 " fill="none" id="relais_srv_ctx-backto-relais_get" style="stroke:#181818;stroke-width:1.0;"/><polygon fill="#181818" points="1270.22,1828,1278.6902,1833.0256,1275.1857,1828.585,1279.6262,1825.0805,1270.22,1828" style="stroke:#181818;stroke-width:1.0;"/><text fill="#000000" font-family="sans-serif" font-size="13" lengthAdjust="spacing" textLength="117" x="1416" y="1841.4951">write updated values</text></g><!--link relais_srv_ctx to relais_set--><g id="link_relais_srv_ctx_relais_set"><path codeLine="156" d="M1269.22,1813.39 C1382.97,1814.56 1541.79,1816.2 1636.53,1817.17 " fill="none" id="relais_srv_ctx-to-relais_set" style="stroke:#181818;stroke-width:1.0;stroke-dasharray:7.0,7.0;"/><polygon fill="none" points="1636.52,1810.18,1656.45,1817.39,1636.38,1824.18,1636.52,1810.18" style="stroke:#181818;stroke-width:1.0;"/></g><!--link relais_srv_ctx to relais_work--><g id="link_relais_srv_ctx_relais_work"><path codeLine="157" d="M1269.22,1798.78 C1384.06,1787.55 1544.84,1771.83 1639.24,1762.6 " fill="none" id="relais_srv_ctx-to-relais_work" style="stroke:#181818;stroke-width:1.0;stroke-dasharray:7.0,7.0;"/><polygon fill="none" points="1638.45,1755.55,1659.04,1760.57,1639.81,1769.48,1638.45,1755.55" style="stroke:#181818;stroke-width:1.0;"/></g><!--link relais_update to relais_srv_ctx--><g id="link_relais_update_relais_srv_ctx"><path codeLine="158" d="M663.4,1782.55 C746.76,1787.79 885.69,1796.52 990.68,1803.12 " fill="none" id="relais_update-to-relais_srv_ctx" style="stroke:#181818;stroke-width:1.0;"/><polygon fill="#181818" points="995.6,1803.49,986.8695,1798.9317,990.6099,1803.1754,986.3662,1806.9159,995.6,1803.49" style="stroke:#181818;stroke-width:1.0;"/><text fill="#000000" font-family="sans-serif" font-size="13" lengthAdjust="spacing" textLength="117" x="733" y="1783.4951">write updated values</text></g><!--link relais_cli_ctx to toggle_onoff--><g id="link_relais_cli_ctx_toggle_onoff"><path codeLine="162" d="M2285.52,2517.61 C2344.45,2521.99 2417.66,2527.43 2473.65,2531.59 " fill="none" id="relais_cli_ctx-to-toggle_onoff" style="stroke:#181818;stroke-width:1.0;stroke-dasharray:7.0,7.0;"/><polygon fill="none" points="2474.15,2524.68,2493.58,2533.14,2473.11,2538.64,2474.15,2524.68" style="stroke:#181818;stroke-width:1.0;"/></g><!--link relais_cli_ctx to set_onoff--><g id="link_relais_cli_ctx_set_onoff"><path codeLine="163" d="M2285.52,2500.48 C2350.38,2494.46 2432.54,2486.83 2489.99,2481.5 " fill="none" id="relais_cli_ctx-to-set_onoff" style="stroke:#181818;stroke-width:1.0;stroke-dasharray:7.0,7.0;"/><polygon fill="none" points="2489.15,2474.45,2509.71,2479.58,2490.45,2488.39,2489.15,2474.45" style="stroke:#181818;stroke-width:1.0;"/></g><!--link relais_status_handler to relais_cli_ctx--><g id="link_relais_status_handler_relais_cli_ctx"><path codeLine="164" d="M1806.16,2510.09 C1834.46,2512.92 1866.02,2515.6 1895,2517 C1947.83,2519.55 1961.12,2518.11 2014,2517 C2032.8,2516.61 2052.78,2515.96 2072.14,2515.22 " fill="none" id="relais_status_handler-to-relais_cli_ctx" style="stroke:#181818;stroke-width:1.0;"/><polygon fill="#181818" points="2077.13,2514.99,2067.9769,2511.354,2072.134,2515.1904,2068.2976,2519.3475,2077.13,2514.99" style="stroke:#181818;stroke-width:1.0;"/><text fill="#000000" font-family="sans-serif" font-size="13" lengthAdjust="spacing" textLength="117" x="1896" y="2513.4951">write updated values</text></g><!--reverse link dimmable_srv_ctx to dimmable_get--><g id="link_dimmable_srv_ctx_dimmable_get"><path codeLine="168" d="M1391.32,1378.7 C1484.51,1371.34 1582.42,1363.62 1646.25,1358.58 " fill="none" id="dimmable_srv_ctx-backto-dimmable_get" style="stroke:#181818;stroke-width:1.0;"/><polygon fill="#181818" points="1386.47,1379.16,1395.7611,1382.4274,1391.454,1378.7601,1395.1213,1374.4531,1386.47,1379.16" style="stroke:#181818;stroke-width:1.0;"/><text fill="#000000" font-family="sans-serif" font-size="13" lengthAdjust="spacing" textLength="117" x="1416" y="1363.4951">write updated values</text></g><!--link dimmable_srv_ctx to dimmable_set--><g id="link_dimmable_srv_ctx_dimmable_set"><path codeLine="169" d="M1385.16,1346.69 C1395.23,1344.74 1405.21,1342.84 1415,1341 C1490.62,1326.82 1577.23,1312.37 1638.25,1302.5 " fill="none" id="dimmable_srv_ctx-to-dimmable_set" style="stroke:#181818;stroke-width:1.0;stroke-dasharray:7.0,7.0;"/><polygon fill="none" points="1636.85,1295.47,1657.71,1299.2,1639.08,1309.29,1636.85,1295.47" style="stroke:#181818;stroke-width:1.0;"/></g><!--link dimmable_srv_ctx to dimmable_move_set--><g id="link_dimmable_srv_ctx_dimmable_move_set"><path codeLine="170" d="M1385.47,1406.33 C1452.86,1408.3 1523.15,1410.35 1581.58,1412.05 " fill="none" id="dimmable_srv_ctx-to-dimmable_move_set" style="stroke:#181818;stroke-width:1.0;stroke-dasharray:7.0,7.0;"/><polygon fill="none" points="1581.75,1405.08,1601.54,1412.66,1581.34,1419.08,1581.75,1405.08" style="stroke:#181818;stroke-width:1.0;"/></g><!--link dimmable_srv_ctx to dimmable_work--><g id="link_dimmable_srv_ctx_dimmable_work"><path codeLine="171" d="M1385.47,1433.51 C1473.16,1445.54 1565.77,1458.25 1630.75,1467.16 " fill="none" id="dimmable_srv_ctx-to-dimmable_work" style="stroke:#181818;stroke-width:1.0;stroke-dasharray:7.0,7.0;"/><polygon fill="none" points="1631.4,1460.33,1650.26,1469.98,1629.49,1474.2,1631.4,1460.33" style="stroke:#181818;stroke-width:1.0;"/></g><!--link dimmable_update to dimmable_srv_ctx--><g id="link_dimmable_update_dimmable_srv_ctx"><path codeLine="172" d="M665.09,1459.41 C719.99,1452.31 798.3,1442.18 875.14,1432.24 " fill="none" id="dimmable_update-to-dimmable_srv_ctx" style="stroke:#181818;stroke-width:1.0;"/><polygon fill="#181818" points="879.67,1431.52,870.2303,1428.7107,874.7115,1432.163,871.2592,1436.6442,879.67,1431.52" style="stroke:#181818;stroke-width:1.0;"/><text fill="#000000" font-family="sans-serif" font-size="13" lengthAdjust="spacing" textLength="117" x="733" y="1432.4951">write updated values</text></g><!--link dimmable_cli_ctx to set_level--><g id="link_dimmable_cli_ctx_set_level"><path codeLine="176" d="M2270.56,2232.82 C2306.58,2251.89 2349.33,2272.26 2390,2286 C2423.45,2297.3 2462.03,2304.97 2493.97,2309.96 " fill="none" id="dimmable_cli_ctx-to-set_level" style="stroke:#181818;stroke-width:1.0;stroke-dasharray:7.0,7.0;"/><polygon fill="none" points="2494.6,2303.12,2513.38,2312.93,2492.58,2316.98,2494.6,2303.12" style="stroke:#181818;stroke-width:1.0;"/></g><!--link dimmable_cli_ctx to move_level--><g id="link_dimmable_cli_ctx_move_level"><path codeLine="177" d="M2276.39,2202.02 C2311.91,2209.48 2352.78,2217.85 2390,2225 C2422.88,2231.31 2459.44,2237.83 2490.2,2243.17 " fill="none" id="dimmable_cli_ctx-to-move_level" style="stroke:#181818;stroke-width:1.0;stroke-dasharray:7.0,7.0;"/><polygon fill="none" points="2490.94,2236.37,2509.46,2246.66,2488.56,2250.16,2490.94,2236.37" style="stroke:#181818;stroke-width:1.0;"/></g><!--link level_status_handler to dimmable_cli_ctx--><g id="link_level_status_handler_dimmable_cli_ctx"><path codeLine="178" d="M1792.72,2117.29 C1870.99,2130.33 1995.15,2151.03 2081.94,2165.49 " fill="none" id="level_status_handler-to-dimmable_cli_ctx" style="stroke:#181818;stroke-width:1.0;"/><polygon fill="#181818" points="2086.6,2166.43,2078.3699,2161.0203,2081.6665,2165.6173,2077.0695,2168.9139,2086.6,2166.43" style="stroke:#181818;stroke-width:1.0;"/><text fill="#000000" font-family="sans-serif" font-size="13" lengthAdjust="spacing" textLength="117" x="1896" y="2130.4951">write updated values</text></g><!--reverse link dimmable_cli_ctx to onOff_dim_decider_data--><g id="link_dimmable_cli_ctx_onOff_dim_decider_data"><path codeLine="180" d="M2290.11,2179.05 C2400.78,2175.82 2578.52,2170.14 2732,2163 C2875.08,2156.34 3039.72,2146.36 3147.16,2139.53 " fill="none" id="dimmable_cli_ctx-backto-onOff_dim_decider_data" style="stroke:#181818;stroke-width:1.0;"/><polygon fill="#181818" points="2277.28,2179.45,2283.396,2183.2703,2289.2747,2179.0941,2283.1587,2175.2738,2277.28,2179.45" style="stroke:#181818;stroke-width:1.0;"/></g><!--link dimmable_cli_ctx to onOff_dim_decider_init--><g id="link_dimmable_cli_ctx_onOff_dim_decider_init"><path codeLine="181" d="M2276.38,2166.59 C2311.9,2160.99 2352.77,2154.85 2390,2150 C2406.83,2147.81 2424.63,2145.7 2442.11,2143.74 " fill="none" id="dimmable_cli_ctx-to-onOff_dim_decider_init" style="stroke:#181818;stroke-width:1.0;stroke-dasharray:7.0,7.0;"/><polygon fill="none" points="2441.17,2136.69,2461.81,2141.48,2442.69,2150.61,2441.17,2136.69" style="stroke:#181818;stroke-width:1.0;"/></g><!--link onOff_dim_decider_init to onOff_dim_decider_data--><g id="link_onOff_dim_decider_init_onOff_dim_decider_data"><path codeLine="182" d="M2709.27,2132 C2837.66,2132 3021.6,2132 3141.54,2132 " fill="none" id="onOff_dim_decider_init-to-onOff_dim_decider_data" style="stroke:#181818;stroke-width:1.0;"/><polygon fill="#181818" points="3146.21,2132,3137.21,2128,3141.21,2132,3137.21,2136,3146.21,2132" style="stroke:#181818;stroke-width:1.0;"/><text fill="#000000" font-family="sans-serif" font-size="13" lengthAdjust="spacing" textLength="124" x="2822" y="2128.4951">initialize empty struct</text></g><!--link onOff_dim_decider_data to onOff_dim_decider_pressed--><g id="link_onOff_dim_decider_data_onOff_dim_decider_pressed"><path codeLine="183" d="M3379.95,2122.66 C3444.79,2117.41 3526.16,2110.82 3594.54,2105.29 " fill="none" id="onOff_dim_decider_data-to-onOff_dim_decider_pressed" style="stroke:#181818;stroke-width:1.0;stroke-dasharray:7.0,7.0;"/><polygon fill="none" points="3593.81,2098.24,3614.31,2103.61,3594.94,2112.2,3593.81,2098.24" style="stroke:#181818;stroke-width:1.0;"/></g><!--link onOff_dim_decider_data to onOff_dim_decider_released--><g id="link_onOff_dim_decider_data_onOff_dim_decider_released"><path codeLine="184" d="M3379.95,2138.15 C3439.24,2141.3 3512.36,2145.2 3576.73,2148.63 " fill="none" id="onOff_dim_decider_data-to-onOff_dim_decider_released" style="stroke:#181818;stroke-width:1.0;stroke-dasharray:7.0,7.0;"/><polygon fill="none" points="3576.69,2141.67,3596.29,2149.72,3575.94,2155.65,3576.69,2141.67" style="stroke:#181818;stroke-width:1.0;"/></g><!--link adc_pin_init to adc_channel_ctx--><g id="link_adc_pin_init_adc_channel_ctx"><path codeLine="188" d="M1210.22,144 C1303.85,144 1464.46,144 1579.79,144 " fill="none" id="adc_pin_init-to-adc_channel_ctx" style="stroke:#181818;stroke-width:1.0;"/><polygon fill="#181818" points="1584.59,144,1575.59,140,1579.59,144,1575.59,148,1584.59,144" style="stroke:#181818;stroke-width:1.0;"/><text fill="#000000" font-family="sans-serif" font-size="13" lengthAdjust="spacing" textLength="84" x="1432.5" y="140.4951">initialize struct</text></g><!--link adc_channel_ctx to read_adc_digital--><g id="link_adc_channel_ctx_read_adc_digital"><path codeLine="189" d="M1850.46,153.11 C1922.22,158.08 2009.83,164.14 2076.82,168.78 " fill="none" id="adc_channel_ctx-to-read_adc_digital" style="stroke:#181818;stroke-width:1.0;stroke-dasharray:7.0,7.0;"/><polygon fill="none" points="2076.88,161.84,2096.35,170.21,2075.92,175.81,2076.88,161.84" style="stroke:#181818;stroke-width:1.0;"/></g><!--link adc_channel_ctx to read_adc_volt--><g id="link_adc_channel_ctx_read_adc_volt"><path codeLine="190" d="M1850.46,135.18 C1925.6,130.14 2018.11,123.93 2086.14,119.37 " fill="none" id="adc_channel_ctx-to-read_adc_volt" style="stroke:#181818;stroke-width:1.0;stroke-dasharray:7.0,7.0;"/><polygon fill="none" points="2085.44,112.33,2105.86,117.97,2086.37,126.3,2085.44,112.33" style="stroke:#181818;stroke-width:1.0;"/></g><!--link attention_on to model_handler--><g id="link_attention_on_model_handler"><path codeLine="195" d="M1803.97,902.56 C1886.05,906.89 1999.98,915.61 2014,931 C2034.54,953.55 2001.59,1457.34 2022,1480 C2045.445,1506.025 2084.33,1511.035 2117.7763,1509.4113 C2126.1378,1509.0053 2134.1595,1508.1848 2141.5149,1507.1743 C2141.7448,1507.1427 2141.974,1507.111 2142.2026,1507.079 " fill="none" id="attention_on-model_handler" style="stroke:#008000;stroke-width:1.0;stroke-dasharray:7.0,7.0;"/><polygon fill="none" points="1791.07,901.86,1796.8602,906.1581,1803.0547,902.4665,1797.2645,898.1684,1791.07,901.86" style="stroke:#008000;stroke-width:1.0;"/><polygon fill="#008000" points="2142.2026,1507.079,2132.7355,1504.3632,2137.2507,1507.7711,2133.8428,1512.2862,2142.2026,1507.079" style="stroke:#008000;stroke-width:1.0;"/><text fill="#000000" font-family="sans-serif" font-size="13" lengthAdjust="spacing" textLength="88" x="1910.5" y="906.4951">function pointer</text></g><!--link attention_off to model_handler--><g id="link_attention_off_model_handler"><path codeLine="196" d="M1796.82,969.31 C1825.99,973.97 1858.86,981.57 1887,994 C1891.07,995.8 1891.12,997.83 1895,1000 C1944.63,1027.75 1981.58,1000.28 2014,1047 C2027.72,1066.77 2005.86,1462.15 2022,1480 C2045.495,1505.98 2084.38,1510.9875 2117.8138,1509.3738 C2126.1722,1508.9703 2134.1899,1508.153 2141.5413,1507.1462 C2141.771,1507.1147 2142.0001,1507.0831 2142.2285,1507.0513 " fill="none" id="attention_off-model_handler" style="stroke:#008000;stroke-width:1.0;stroke-dasharray:7.0,7.0;"/><polygon fill="none" points="1784.27,967.31,1789.626,972.1383,1796.143,969.0514,1790.7869,964.223,1784.27,967.31" style="stroke:#008000;stroke-width:1.0;"/><polygon fill="#008000" points="2142.2285,1507.0513,2132.7626,1504.3316,2137.2764,1507.7413,2133.8667,1512.255,2142.2285,1507.0513" style="stroke:#008000;stroke-width:1.0;"/><text fill="#000000" font-family="sans-serif" font-size="13" lengthAdjust="spacing" textLength="88" x="1910.5" y="996.4951">function pointer</text></g><!--link level_status_handler to model_handler--><g id="link_level_status_handler_model_handler"><path codeLine="200" d="M1848.1,2098.93 C1861.52,2096.02 1874.72,2092.14 1887,2087 C1954.3,2058.83 1972.3,2042.86 2014,1983 C2078.525,1890.37 2120.13,1770.53 2145.675,1673.2737 C2158.4475,1624.6456 2167.205,1581.6634 2172.805,1550.5514 C2175.605,1534.9954 2177.6156,1522.4069 2178.9441,1513.564 C2179.2762,1511.3533 2179.5656,1509.3766 2179.8142,1507.6463 C2179.8452,1507.43 2179.8756,1507.2175 2179.9054,1507.0089 " fill="none" id="level_status_handler-model_handler" style="stroke:#008000;stroke-width:1.0;stroke-dasharray:7.0,7.0;"/><polygon fill="none" points="1835.64,2101.53,1842.2882,2104.323,1847.4234,2099.2604,1840.7752,2096.4674,1835.64,2101.53" style="stroke:#008000;stroke-width:1.0;"/><polygon fill="#008000" points="2179.9054,1507.0089,2174.6732,1515.353,2179.1986,1511.9587,2182.5929,1516.4841,2179.9054,1507.0089" style="stroke:#008000;stroke-width:1.0;"/><text fill="#000000" font-family="sans-serif" font-size="13" lengthAdjust="spacing" textLength="88" x="1910.5" y="1979.4951">function pointer</text></g><!--link relais_status_handler to model_handler--><g id="link_relais_status_handler_model_handler"><path codeLine="204" d="M1859.31,2496.95 C1925.17,2492.21 1993.64,2481.32 2014,2457 C2022.24,2447.16 2019.91,2007.66 2022,1995 C2040.725,1881.695 2080.0025,1758.74 2114.8325,1663.595 C2132.2475,1616.0225 2148.5506,1575.4025 2160.6169,1546.4175 C2166.65,1531.925 2171.6239,1520.3413 2175.148,1512.2516 C2175.5885,1511.2404 2176.0063,1510.2837 2176.4008,1509.3829 C2176.598,1508.9324 2176.7894,1508.4959 2176.9748,1508.0735 C2177.0675,1507.8623 2177.1587,1507.6546 2177.2484,1507.4504 " fill="none" id="relais_status_handler-model_handler" style="stroke:#008000;stroke-width:1.0;stroke-dasharray:7.0,7.0;"/><polygon fill="none" points="1846.75,2497.85,1853.0007,2501.4457,1858.7239,2497.0588,1852.4732,2493.4631,1846.75,2497.85" style="stroke:#008000;stroke-width:1.0;"/><polygon fill="#008000" points="2177.2484,1507.4504,2169.9655,1514.0805,2175.2368,1512.0279,2177.2894,1517.2992,2177.2484,1507.4504" style="stroke:#008000;stroke-width:1.0;"/><text fill="#000000" font-family="sans-serif" font-size="13" lengthAdjust="spacing" textLength="88" x="1910.5" y="2453.4951">function pointer</text></g><!--link dimmable_update to model_handler--><g id="link_dimmable_update_model_handler"><path codeLine="206" d="M668.74,1483.36 C726.95,1493.36 808.66,1505.79 881,1511 C1166.905,1531.595 1489.08,1528.8025 1741.175,1520.7588 C1867.2225,1516.7369 1975.75,1511.4022 2053.4638,1507.0217 " fill="none" id="dimmable_update-model_handler" style="stroke:#008000;stroke-width:1.0;stroke-dasharray:7.0,7.0;"/><polygon fill="none" points="656.21,1481.01,661.4359,1485.9789,668.0325,1483.0661,662.8066,1478.0972,656.21,1481.01" style="stroke:#008000;stroke-width:1.0;"/><polygon fill="#008000" points="2053.4638,1507.0217,2044.2529,1503.5346,2048.4717,1507.3031,2044.7031,1511.5219,2053.4638,1507.0217" style="stroke:#008000;stroke-width:1.0;"/><text fill="#000000" font-family="sans-serif" font-size="13" lengthAdjust="spacing" textLength="88" x="1430.5" y="1521.4951">function pointer</text></g><!--link dimmable_move_set to model_handler--><g id="link_dimmable_move_set_model_handler"><path codeLine="207" d="M1803.17,1431.27 C1830.01,1436.35 1859.8,1442.19 1887,1448 C1947.3,1460.88 1961.29,1469.21 2022,1480 C2026.3113,1480.7663 2030.6939,1481.5101 2035.1228,1482.2315 C2035.6764,1482.3216 2036.2307,1482.4114 2036.7857,1482.5009 C2037.0632,1482.5456 2037.3409,1482.5903 2037.6187,1482.6348 " fill="none" id="dimmable_move_set-model_handler" style="stroke:#008000;stroke-width:1.0;stroke-dasharray:7.0,7.0;"/><polygon fill="none" points="1790.44,1428.69,1795.598,1433.7293,1802.2336,1430.9062,1797.0755,1425.8669,1790.44,1428.69" style="stroke:#008000;stroke-width:1.0;"/><polygon fill="#008000" points="2037.6187,1482.6348,2029.3656,1477.2602,2032.6818,1481.8431,2028.0989,1485.1593,2037.6187,1482.6348" style="stroke:#008000;stroke-width:1.0;"/><text fill="#000000" font-family="sans-serif" font-size="13" lengthAdjust="spacing" textLength="88" x="1910.5" y="1446.4951">function pointer</text></g><!--link dimmable_get to model_handler--><g id="link_dimmable_get_model_handler"><path codeLine="208" d="M1806.7,1348.65 C1874.02,1350.49 1963.72,1365.19 2014,1424 C2030.34,1443.11 2004.02,1462.43 2022,1480 C2047.05,1504.485 2085.96,1509.47 2119.0175,1508.2188 C2123.1497,1508.0623 2127.1904,1507.8085 2131.1012,1507.4831 C2132.0789,1507.4018 2133.0485,1507.316 2134.0094,1507.2261 C2134.4898,1507.1811 2134.968,1507.1352 2135.444,1507.0882 C2135.682,1507.0648 2135.9194,1507.0411 2136.1563,1507.0171 " fill="none" id="dimmable_get-model_handler" style="stroke:#008000;stroke-width:1.0;stroke-dasharray:7.0,7.0;"/><polygon fill="none" points="1794.12,1348.44,1800.0578,1352.5318,1806.1186,1348.6246,1800.1808,1344.5328,1794.12,1348.44" style="stroke:#008000;stroke-width:1.0;"/><polygon fill="#008000" points="2136.1563,1507.0171,2126.7997,1503.9424,2131.1816,1507.5199,2127.6041,1511.9019,2136.1563,1507.0171" style="stroke:#008000;stroke-width:1.0;"/><text fill="#000000" font-family="sans-serif" font-size="13" lengthAdjust="spacing" textLength="88" x="1910.5" y="1355.4951">function pointer</text></g><!--link dimmable_set to model_handler--><g id="link_dimmable_set_model_handler"><path codeLine="209" d="M1787.32,1277.97 C1855.42,1270.33 1957.75,1271.42 2014,1333 C2036.06,1357.15 1999.63,1456.13 2022,1480 C2045.955,1505.555 2084.8475,1510.5575 2118.17,1509.0475 C2122.3353,1508.8587 2126.4136,1508.5682 2130.3648,1508.2034 C2132.3404,1508.021 2134.2842,1507.82 2136.1913,1507.6038 C2137.1448,1507.4957 2138.0891,1507.3839 2139.0236,1507.2686 C2139.4909,1507.211 2139.9557,1507.1526 2140.4179,1507.0933 C2140.6491,1507.0637 2140.8796,1507.0339 2141.1094,1507.0039 " fill="none" id="dimmable_set-model_handler" style="stroke:#008000;stroke-width:1.0;stroke-dasharray:7.0,7.0;"/><polygon fill="none" points="1774.75,1279.66,1781.2002,1282.884,1786.6571,1278.17,1780.2069,1274.9459,1774.75,1279.66" style="stroke:#008000;stroke-width:1.0;"/><polygon fill="#008000" points="2141.1094,1507.0039,2131.6674,1504.2026,2136.1515,1507.6511,2132.703,1512.1353,2141.1094,1507.0039" style="stroke:#008000;stroke-width:1.0;"/><text fill="#000000" font-family="sans-serif" font-size="13" lengthAdjust="spacing" textLength="88" x="1910.5" y="1274.4951">function pointer</text></g><!--link relais_update to model_handler--><g id="link_relais_update_model_handler"><path codeLine="211" d="M662.45,1766.71 C675.61,1764.54 689.23,1762.25 702,1760 C781.75,1745.96 801.22,1739.88 881,1726 C1326.96,1648.42 1441.3,1646.06 1887,1567 C1943.64,1556.95 1957.9,1554.73 2014,1542 C2050.785,1533.65 2091.815,1523.1025 2124,1514.5437 C2132.0463,1512.4041 2139.5397,1510.3887 2146.2758,1508.563 C2147.9598,1508.1066 2149.5965,1507.662 2151.1827,1507.2303 C2151.3809,1507.1764 2151.5784,1507.1226 2151.7751,1507.069 " fill="none" id="relais_update-model_handler" style="stroke:#008000;stroke-width:1.0;stroke-dasharray:7.0,7.0;"/><polygon fill="none" points="649.95,1768.91,656.5141,1771.8953,661.7945,1766.9843,655.2303,1763.999,649.95,1768.91" style="stroke:#008000;stroke-width:1.0;"/><polygon fill="#008000" points="2151.7751,1507.069,2142.0403,1505.5741,2146.9507,1508.3827,2144.1422,1513.2931,2151.7751,1507.069" style="stroke:#008000;stroke-width:1.0;"/><text fill="#000000" font-family="sans-serif" font-size="13" lengthAdjust="spacing" textLength="88" x="1430.5" y="1621.4951">function pointer</text></g><!--link relais_set to model_handler--><g id="link_relais_set_model_handler"><path codeLine="212" d="M1786.21,1813.07 C1850.8,1805.21 1948.06,1784.83 2014,1732 C2062.94,1692.79 2104.16,1635.7325 2133.4038,1587.895 C2148.0256,1563.9763 2159.6534,1542.3625 2167.7552,1526.4372 C2171.806,1518.4745 2174.9754,1511.934 2177.1967,1507.2385 " fill="none" id="relais_set-model_handler" style="stroke:#008000;stroke-width:1.0;stroke-dasharray:7.0,7.0;"/><polygon fill="none" points="1773.55,1814.6,1779.957,1817.9091,1785.4758,1813.2676,1779.0688,1809.9585,1773.55,1814.6" style="stroke:#008000;stroke-width:1.0;"/><polygon fill="#008000" points="2177.1967,1507.2385,2169.7321,1513.6635,2175.0585,1511.7582,2176.9638,1517.0846,2177.1967,1507.2385" style="stroke:#008000;stroke-width:1.0;"/><text fill="#000000" font-family="sans-serif" font-size="13" lengthAdjust="spacing" textLength="88" x="1910.5" y="1728.4951">function pointer</text></g><!--link relais_get to model_handler--><g id="link_relais_get_model_handler"><path codeLine="213" d="M1791.21,1882.19 C1856.01,1879.6 1950.43,1866.37 2014,1816 C2075.43,1767.325 2116.845,1689.7725 2143.0663,1623.56 C2156.1769,1590.4538 2165.4891,1560.1825 2171.6055,1537.7734 C2174.6637,1526.5689 2176.9229,1517.3299 2178.4586,1510.6849 C2178.6505,1509.8543 2178.8312,1509.0642 2179.0007,1508.3158 C2179.0854,1507.9416 2179.1674,1507.5779 2179.2466,1507.2248 " fill="none" id="relais_get-model_handler" style="stroke:#008000;stroke-width:1.0;stroke-dasharray:7.0,7.0;"/><polygon fill="none" points="1778.45,1882.59,1784.5618,1886.417,1790.4451,1882.2473,1784.3333,1878.4203,1778.45,1882.59" style="stroke:#008000;stroke-width:1.0;"/><polygon fill="#008000" points="2179.2466,1507.2248,2173.3743,1515.1315,2178.1526,1512.1036,2181.1805,1516.8819,2179.2466,1507.2248" style="stroke:#008000;stroke-width:1.0;"/><text fill="#000000" font-family="sans-serif" font-size="13" lengthAdjust="spacing" textLength="88" x="1910.5" y="1812.4951">function pointer</text></g><!--link attention_on to main--><g id="link_attention_on_main"><path codeLine="218" d="M1787.93,888.64 C1820.4,883.8 1859.68,878.02 1895,873 C1983.62,860.41 2087.81,846.4 2142.7,839.08 " fill="none" id="attention_on-main" style="stroke:#008000;stroke-width:1.0;stroke-dasharray:7.0,7.0;"/><polygon fill="none" points="1775.46,890.64,1781.9836,893.7128,1787.3292,888.8728,1780.8055,885.8,1775.46,890.64" style="stroke:#008000;stroke-width:1.0;"/><polygon fill="#008000" points="2155.5,837.25,2146.0511,834.4718,2150.5437,837.9094,2147.1061,842.4019,2155.5,837.25" style="stroke:#008000;stroke-width:1.0;"/><line style="stroke:#008000;stroke-width:1.0;" x1="2150.5437" x2="2142.62" y1="837.9094" y2="838.96"/><text fill="#000000" font-family="sans-serif" font-size="13" lengthAdjust="spacing" textLength="88" x="1910.5" y="853.4951">function pointer</text></g><!--link attention_off to main--><g id="link_attention_off_main"><path codeLine="219" d="M1789.62,971.11 C1850.68,976.38 1940.45,977.77 2014,953 C2068.93,934.5 2121.53,891.4 2152.56,862.48 " fill="none" id="attention_off-main" style="stroke:#008000;stroke-width:1.0;stroke-dasharray:7.0,7.0;"/><polygon fill="none" points="1776.89,969.82,1782.4901,974.363,1788.8375,970.9409,1783.2374,966.3979,1776.89,969.82" style="stroke:#008000;stroke-width:1.0;"/><polygon fill="#008000" points="2161.6,853.9,2152.3277,857.2202,2157.983,857.3521,2157.851,863.0074,2161.6,853.9" style="stroke:#008000;stroke-width:1.0;"/><line style="stroke:#008000;stroke-width:1.0;" x1="2157.983" x2="2152.19" y1="857.3521" y2="862.87"/><text fill="#000000" font-family="sans-serif" font-size="13" lengthAdjust="spacing" textLength="88" x="1910.5" y="949.4951">function pointer</text></g><!--SRC=[hLXRJ-Gs57uclyBIFW0ZmQgqsWUcGke5-hB0QWjLgwgoF8cJiTOJfuapmspBV- -ndOljs3C3D1BIu7FnyV5tFX-RqrmYAL3DYgL46QjfAfaeauHmBZOhziJA8abonYbQ4LPslqH6ELwICkEqHlya2BubVIA5A5qPPYMJoREnIaMvfdK3tl6IyWf- -gQqMM9ErvHVDB9kKsd-SNHimSLeqCzHL4pWQhEApD30QZZ56Lspb9hWR35FjQrePTLAt51N2l7dh6XhYc4MC9QqhjjA9bf9vOqevuXaANh7MKdFCo4bpReGr6U2LneuXGoLaAXKFbaAwWF7ttp04YtQVEu8BEk6_jtICgMe_-5gGgIDjFKpM4r5KpIpfXvDdeTV_LALMiNACKEsiAOamzehAvWaFAwm5joOF_VxiwI4ooNM8F7sXa2oIeKz3F2B2F8y8h5nnjUGLixK9DqKNIOojbgH1Uo_ahg9R_kifsrTWqyCJkPJgIHrGJrXvtmXiO6ZcHt17_YP9sE21vGfmE964jasVQ6uAAKXvA_4cdR37kBKkW3JASkWulAsr1LCE9FRFK0KvNsUmpQErXcHnCDZB7apiqBrsqNVa2rE6YzNbhylU2FgBp0n9rlb5q48UiZLNWZ1ZIDMfW2iXcPplrm-VAUsXa7w9LbLCVkgferZFONzD1_10fYgTRuFqAmfrujmoqA1ngu9F-TDlVO06q0TA27ucnyTlN_Vq1gu5f83AG5wIFObtqsysi5lBo2fDLMa3wI9LNh1yrH52J1GBHCPo8_-ZuhgPHhnZQJL71q5NP_CHhe-FHbnfuhaT0vfw8i1LKBpjJhfw1DDMwceKw8ruIqDbEYOUEyC60H5J622ZabLdiEIjeBQepqW02Q4DM4QisGk9ZJM3Qz4wKcKGA9x2AgRO0T3IL6eSrGxcr2N6NKN4W1tFyi-Q9k8Ut2_6SbpDrqQ0TxOoQoBhKUM7eLQlhd1MX-mjIDjtjvtmqLuU0A8Rjo5WwGhA37O3cW-DaIcoqmKNSPesQvGrx6a0i1KPbXkAsebzFxnuTFZ0_xf_lRsXxkVySCVdwxn_HsiPgV6n-lVhZzQo-pF36SgQnR8D4fNPl8n_wMgFhM1OwcDutrvgfpXhaIdCwh53wlsi3BG2BM9lpyJDE_d52njtX_PGukmbTpJaxLWsUbBKHPCpSpxl_dpxl7sn-lF-Fu6ctp_-jVeGiqB4PL2idoBWKDgQ9Kau7KIagjPYde5H_rNcaqK3MexJtq2NCYgums7mEKMDSaft-9cmrIwVlVWMZ2WwBflcW41Bh_HaCPpaXph-mH4aF8sW_Cm2F7pyokZzcu1w46Ne_gaqO-hEZrdN4r5PDzTTaJaN7yEc6-tliVrXriSF8FT4H-eVh3ly4RijkbJtOIjdGHEZ0FNI6Lah_4bDf5P4XMaGW1oIa9z8RATdPrvun5rhJbXj9Zo-Vc_Lz4ICvU0YGoTdLq5EFCIBdLPBCPWbKOTmLaAjEB7kjXg-eVZQD6nk27R2CD4lIiBfYaDWHJkC8PT1uzJ6vsb44cfJ-sZgHVKDSLwnwqCEct8zx0zuuaDuMng1isYEOupqouqCUDkkvmsO8_QSFvRUcOodI3FCXAEjKRJrONNs7UCUlv92nTJ75iwVpbEVsY7szll25VtwE4TcTnwr9xOZVU-NPauqEkOzFG7g3hD_07wpcvwhRrEqCH-Rug26pgvZ0yxDRuRnFMibuHUCVGcuGRSUuX679rJSsFmfM5Fd7kkus6nZZhoiB6VN2A6aN3yQ__Bh8Ud0BNPwY14S12YxdmQVDfFSNfj_kkXioXlERvknpoHzxlTslenRpYwaNqjLD-nERKzeDgFUaW4MeDVQafBM8D_KmzvoFFNkJYsAsaS7UibrBDy1cXVefHmtbWcO-aSQXEihDSjmw5uAoYRoWzVoi3hXvg4QVyjEsBeFqgOht8zuUutkYdUxE7LCHmxVKkaItYLvx57UPFzYtFJN_jUpXhwolOgijXjcIJ_0G00]--></g></svg>