<?xml version="1.0" encoding="us-ascii" standalone="no"?><svg xmlns="http://www.w3.org/2000/svg" xmlns:xlink="http://www.w3.org/1999/xlink" contentStyleType="text/css" height="598px" preserveAspectRatio="none" style="width:944px;height:598px;background:#FFFFFF;" version="1.1" viewBox="0 0 944 598" width="944px" zoomAndPan="magnify"><defs/><g><!--cluster Node--><g id="cluster_Node"><polygon fill="none" points="16,16,26,6,927,6,927,571.44,917,581.44,16,581.44,16,16" style="stroke:#181818;stroke-width:1.0;"/><line style="stroke:#181818;stroke-width:1.0;" x1="917" x2="927" y1="16" y2="6"/><line style="stroke:#181818;stroke-width:1.0;" x1="16" x2="917" y1="16" y2="16"/><line style="stroke:#181818;stroke-width:1.0;" x1="917" x2="917" y1="16" y2="581.44"/><text fill="#000000" font-family="sans-serif" font-size="14" font-weight="bold" lengthAdjust="spacing" textLength="37" x="449" y="33.5332">Node</text></g><!--cluster element1--><g id="cluster_element1"><rect fill="none" height="223.22" rx="2.5" ry="2.5" style="stroke:#181818;stroke-width:1.0;" width="525" x="370" y="63"/><rect fill="none" height="10" style="stroke:#181818;stroke-width:1.0;" width="15" x="875" y="68"/><rect fill="none" height="2" style="stroke:#181818;stroke-width:1.0;" width="4" x="873" y="70"/><rect fill="none" height="2" style="stroke:#181818;stroke-width:1.0;" width="4" x="873" y="74"/><text fill="#000000" font-family="sans-serif" font-size="14" font-weight="bold" lengthAdjust="spacing" textLength="69" x="598" y="90.5332">Element 1</text></g><!--cluster element2--><g id="cluster_element2"><rect fill="none" height="223.22" rx="2.5" ry="2.5" style="stroke:#181818;stroke-width:1.0;" width="282" x="48" y="63"/><rect fill="none" height="10" style="stroke:#181818;stroke-width:1.0;" width="15" x="310" y="68"/><rect fill="none" height="2" style="stroke:#181818;stroke-width:1.0;" width="4" x="308" y="70"/><rect fill="none" height="2" style="stroke:#181818;stroke-width:1.0;" width="4" x="308" y="74"/><text fill="#000000" font-family="sans-serif" font-size="14" font-weight="bold" lengthAdjust="spacing" textLength="69" x="154.5" y="90.5332">Element 2</text></g><!--cluster elementn--><g id="cluster_elementn"><rect fill="none" height="223.22" rx="2.5" ry="2.5" style="stroke:#181818;stroke-width:1.0;" width="282" x="363" y="326.22"/><rect fill="none" height="10" style="stroke:#181818;stroke-width:1.0;" width="15" x="625" y="331.22"/><rect fill="none" height="2" style="stroke:#181818;stroke-width:1.0;" width="4" x="623" y="333.22"/><rect fill="none" height="2" style="stroke:#181818;stroke-width:1.0;" width="4" x="623" y="337.22"/><text fill="#000000" font-family="sans-serif" font-size="14" font-weight="bold" lengthAdjust="spacing" textLength="70" x="469" y="353.7532">Element n</text></g><!--entity configserver--><g id="elem_configserver"><rect fill="#F1F1F1" height="47.6094" rx="2.5" ry="2.5" style="stroke:#181818;stroke-width:0.5;" width="171" x="413.5" y="107"/><path d="M470.5,107 L470.5,112 L463.5,119 L413.5,119 " fill="none" style="stroke:#181818;stroke-width:0.5;"/><text fill="#000000" font-family="sans-serif" font-size="14" lengthAdjust="spacing" textLength="131" x="428.5" y="141.5332">Configuration Server</text></g><!--entity healthserver--><g id="elem_healthserver"><rect fill="#F1F1F1" height="47.6094" rx="2.5" ry="2.5" style="stroke:#181818;stroke-width:0.5;" width="126" x="620" y="107"/><path d="M662,107 L662,112 L655,119 L620,119 " fill="none" style="stroke:#181818;stroke-width:0.5;"/><text fill="#000000" font-family="sans-serif" font-size="14" lengthAdjust="spacing" textLength="86" x="635" y="141.5332">Health Server</text></g><!--entity model1a--><g id="elem_model1a"><rect fill="#F1F1F1" height="47.6094" rx="2.5" ry="2.5" style="stroke:#181818;stroke-width:0.5;" width="90" x="781" y="107"/><path d="M811,107 L811,112 L804,119 L781,119 " fill="none" style="stroke:#181818;stroke-width:0.5;"/><text fill="#000000" font-family="sans-serif" font-size="14" lengthAdjust="spacing" textLength="50" x="796" y="141.5332">Model a</text></g><!--entity model1b--><g id="elem_model1b"><rect fill="#F1F1F1" height="47.6094" rx="2.5" ry="2.5" style="stroke:#181818;stroke-width:0.5;" width="90" x="433" y="214.61"/><path d="M463,214.61 L463,219.61 L456,226.61 L433,226.61 " fill="none" style="stroke:#181818;stroke-width:0.5;"/><text fill="#000000" font-family="sans-serif" font-size="14" lengthAdjust="spacing" textLength="50" x="448" y="249.1432">Model b</text></g><!--entity model1n--><g id="elem_model1n"><rect fill="#F1F1F1" height="47.6094" rx="2.5" ry="2.5" style="stroke:#181818;stroke-width:0.5;" width="90" x="558" y="214.61"/><path d="M588,214.61 L588,219.61 L581,226.61 L558,226.61 " fill="none" style="stroke:#181818;stroke-width:0.5;"/><text fill="#000000" font-family="sans-serif" font-size="14" lengthAdjust="spacing" textLength="50" x="573" y="249.1432">Model n</text></g><!--entity model2a--><g id="elem_model2a"><rect fill="#F1F1F1" height="47.6094" rx="2.5" ry="2.5" style="stroke:#181818;stroke-width:0.5;" width="90" x="72" y="107"/><path d="M102,107 L102,112 L95,119 L72,119 " fill="none" style="stroke:#181818;stroke-width:0.5;"/><text fill="#000000" font-family="sans-serif" font-size="14" lengthAdjust="spacing" textLength="50" x="87" y="141.5332">Model a</text></g><!--entity model2b--><g id="elem_model2b"><rect fill="#F1F1F1" height="47.6094" rx="2.5" ry="2.5" style="stroke:#181818;stroke-width:0.5;" width="90" x="197" y="107"/><path d="M227,107 L227,112 L220,119 L197,119 " fill="none" style="stroke:#181818;stroke-width:0.5;"/><text fill="#000000" font-family="sans-serif" font-size="14" lengthAdjust="spacing" textLength="50" x="212" y="141.5332">Model b</text></g><!--entity model2n--><g id="elem_model2n"><rect fill="#F1F1F1" height="47.6094" rx="2.5" ry="2.5" style="stroke:#181818;stroke-width:0.5;" width="90" x="72" y="214.61"/><path d="M102,214.61 L102,219.61 L95,226.61 L72,226.61 " fill="none" style="stroke:#181818;stroke-width:0.5;"/><text fill="#000000" font-family="sans-serif" font-size="14" lengthAdjust="spacing" textLength="50" x="87" y="249.1432">Model n</text></g><!--entity model3a--><g id="elem_model3a"><rect fill="#F1F1F1" height="47.6094" rx="2.5" ry="2.5" style="stroke:#181818;stroke-width:0.5;" width="90" x="406" y="370.22"/><path d="M436,370.22 L436,375.22 L429,382.22 L406,382.22 " fill="none" style="stroke:#181818;stroke-width:0.5;"/><text fill="#000000" font-family="sans-serif" font-size="14" lengthAdjust="spacing" textLength="50" x="421" y="404.7532">Model a</text></g><!--entity model3b--><g id="elem_model3b"><rect fill="#F1F1F1" height="47.6094" rx="2.5" ry="2.5" style="stroke:#181818;stroke-width:0.5;" width="90" x="531" y="370.22"/><path d="M561,370.22 L561,375.22 L554,382.22 L531,382.22 " fill="none" style="stroke:#181818;stroke-width:0.5;"/><text fill="#000000" font-family="sans-serif" font-size="14" lengthAdjust="spacing" textLength="50" x="546" y="404.7532">Model b</text></g><!--entity model3n--><g id="elem_model3n"><rect fill="#F1F1F1" height="47.6094" rx="2.5" ry="2.5" style="stroke:#181818;stroke-width:0.5;" width="90" x="406" y="477.83"/><path d="M436,477.83 L436,482.83 L429,489.83 L406,489.83 " fill="none" style="stroke:#181818;stroke-width:0.5;"/><text fill="#000000" font-family="sans-serif" font-size="14" lengthAdjust="spacing" textLength="50" x="421" y="512.3632">Model n</text></g><!--link element1 to element2--><!--link element2 to elementn--><!--SRC=[ZPAn3i8W441tlkBInQb3wUvYJ5nqSJGEjBqMalOm55rC_zs2sX3R1cyWn_4WxovieCNQWjLWL2CjLCfWQPKcnaXN22UtF1cCKUhkfWd9Gh9liND9be3e0T-xxCEvg8te49ATfberToFSYt16yq3ZhvJ-eFU5tqi75AsL8IrzPPa-Ze8j2CzrBi_4Cb84IB6CK82GHuQrpddOEPztFjFYSIqUr-8HBGgrw0-jFAwLnxNohzR0sFGRqejKLOLqzJyhtKxJOjFOrX1YBm00]--></g></svg>