<?xml version="1.0" encoding="us-ascii" standalone="no"?><svg xmlns="http://www.w3.org/2000/svg" xmlns:xlink="http://www.w3.org/1999/xlink" contentStyleType="text/css" height="145px" preserveAspectRatio="none" style="width:454px;height:145px;background:#FFFFFF;" version="1.1" viewBox="0 0 454 145" width="454px" zoomAndPan="magnify"><defs/><g><!--entity user--><g id="elem_user"><ellipse cx="396.5" cy="14" fill="#F1F1F1" rx="8" ry="8" style="stroke:#181818;stroke-width:0.5;"/><path d="M396.5,22 L396.5,49 M383.5,30 L409.5,30 M396.5,49 L383.5,64 M396.5,49 L409.5,64 " fill="none" style="stroke:#181818;stroke-width:0.5;"/><text fill="#000000" font-family="sans-serif" font-size="14" lengthAdjust="spacing" textLength="101" x="346" y="80.0332">User with phone</text></g><!--entity NodeA--><g id="elem_NodeA"><polygon fill="#F1F1F1" points="16,43.5,26,33.5,102,33.5,102,71.1094,92,81.1094,16,81.1094,16,43.5" style="stroke:#181818;stroke-width:0.5;"/><line style="stroke:#181818;stroke-width:0.5;" x1="92" x2="102" y1="43.5" y2="33.5"/><line style="stroke:#181818;stroke-width:0.5;" x1="16" x2="92" y1="43.5" y2="43.5"/><line style="stroke:#181818;stroke-width:0.5;" x1="92" x2="92" y1="43.5" y2="81.1094"/><text fill="#000000" font-family="sans-serif" font-size="14" lengthAdjust="spacing" textLength="46" x="31" y="68.0332">Node A</text></g><!--entity NodeB--><g id="elem_NodeB"><polygon fill="#F1F1F1" points="181,90.5,191,80.5,267,80.5,267,118.1094,257,128.1094,181,128.1094,181,90.5" style="stroke:#181818;stroke-width:0.5;"/><line style="stroke:#181818;stroke-width:0.5;" x1="257" x2="267" y1="90.5" y2="80.5"/><line style="stroke:#181818;stroke-width:0.5;" x1="181" x2="257" y1="90.5" y2="90.5"/><line style="stroke:#181818;stroke-width:0.5;" x1="257" x2="257" y1="90.5" y2="128.1094"/><text fill="#000000" font-family="sans-serif" font-size="14" lengthAdjust="spacing" textLength="46" x="196" y="115.0332">Node B</text></g><!--link NodeA to NodeB--><g id="link_NodeA_NodeB"><path d="M110.79,71.95 C130.29,77.57 152.54,83.99 172.06,89.62 " fill="none" id="NodeA-NodeB" style="stroke:#181818;stroke-width:1.0;stroke-dasharray:1.0,3.0;"/><polygon fill="#181818" points="103.4,69.53,110.2568,74.6275,111.9179,68.862,103.4,69.53" style="stroke:#181818;stroke-width:1.0;"/><polygon fill="#181818" points="179.53,92.06,172.6732,86.9625,171.0121,92.728,179.53,92.06" style="stroke:#181818;stroke-width:1.0;"/><text fill="#000000" font-family="sans-serif" font-size="13" lengthAdjust="spacing" textLength="17" x="133" y="75.8051">ble</text></g><!--link NodeA to user--><g id="link_NodeA_user"><path d="M111.07,54.38 C118.1,54.01 125.23,53.64 132,53.31 C205.31,49.71 223.64,48.61 297,46.31 C309.85,45.9 323.64,45.56 336.72,45.29 " fill="none" id="NodeA-user" style="stroke:#181818;stroke-width:1.0;stroke-dasharray:1.0,3.0;"/><polygon fill="#181818" points="103.26,54.87,111.4136,57.4232,111.082,51.4324,103.26,54.87" style="stroke:#181818;stroke-width:1.0;"/><polygon fill="#181818" points="344.64,45.1,336.5776,42.2721,336.7061,48.2707,344.64,45.1" style="stroke:#181818;stroke-width:1.0;"/><text fill="#000000" font-family="sans-serif" font-size="13" lengthAdjust="spacing" textLength="17" x="215.5" y="43.8051">ble</text></g><!--link NodeB to user--><g id="link_NodeB_user"><path d="M275.44,86.56 C294.84,79.73 317.14,71.88 337.21,64.82 " fill="none" id="NodeB-user" style="stroke:#181818;stroke-width:1.0;stroke-dasharray:1.0,3.0;"/><polygon fill="#181818" points="268.15,89.47,276.6923,89.6415,274.6987,83.9824,268.15,89.47" style="stroke:#181818;stroke-width:1.0;"/><polygon fill="#181818" points="344.66,61.84,336.1177,61.6685,338.1113,67.3276,344.66,61.84" style="stroke:#181818;stroke-width:1.0;"/><text fill="#000000" font-family="sans-serif" font-size="13" lengthAdjust="spacing" textLength="17" x="298" y="68.8051">ble</text></g><!--SRC=[RSn12eCm48NX_PpYCSSG2PW3kEi1h1cRW6HA777dsTjO40BT38_lXrbbCPYYf5SqX5HajgIPQ9fD2_YnIS6HBE8TDGjZsh1_ZIXh4F1Oxt1ndKFZ_dPFT6Nq_NawzpDquESgtARwlId-R_a0]--></g></svg>