<?xml version="1.0" encoding="us-ascii" standalone="no"?><svg xmlns="http://www.w3.org/2000/svg" xmlns:xlink="http://www.w3.org/1999/xlink" contentStyleType="text/css" height="689px" preserveAspectRatio="none" style="width:542px;height:689px;background:#FFFFFF;" version="1.1" viewBox="0 0 542 689" width="542px" zoomAndPan="magnify"><defs/><g><ellipse cx="281.5" cy="20" fill="#222222" rx="10" ry="10" style="stroke:#222222;stroke-width:1.0;"/><rect fill="#F1F1F1" height="35.0938" rx="12.5" ry="12.5" style="stroke:#181818;stroke-width:0.5;" width="192" x="185.5" y="50"/><text fill="#000000" font-family="sans-serif" font-size="12" lengthAdjust="spacing" textLength="172" x="195.5" y="72.457">initialise temperature watchdog</text><path d="M10,95.0938 L10,154.1484 A0,0 0 0 0 10,154.1484 L179,154.1484 A0,0 0 0 0 179,154.1484 L179,128.6211 L199,124.6211 L179,120.6211 L179,105.0938 L169,95.0938 L10,95.0938 A0,0 0 0 0 10,95.0938 " fill="#FEFFDD" style="stroke:#181818;stroke-width:0.5;"/><path d="M169,95.0938 L169,105.0938 L179,105.0938 L169,95.0938 " fill="#FEFFDD" style="stroke:#181818;stroke-width:0.5;"/><text fill="#000000" font-family="sans-serif" font-size="13" lengthAdjust="spacing" textLength="144" x="16" y="113.5889">new commands can also</text><text fill="#000000" font-family="sans-serif" font-size="13" lengthAdjust="spacing" textLength="104" x="16" y="129.9404">be registered later</text><text fill="#000000" font-family="sans-serif" font-size="13" lengthAdjust="spacing" textLength="126" x="16" y="146.292">during the infinity loop</text><rect fill="#F1F1F1" height="35.0938" rx="12.5" ry="12.5" style="stroke:#181818;stroke-width:0.5;" width="165" x="199" y="107.0742"/><text fill="#000000" font-family="sans-serif" font-size="12" lengthAdjust="spacing" textLength="145" x="209" y="129.5313">register output commands</text><rect fill="#F1F1F1" height="35.0938" rx="12.5" ry="12.5" style="stroke:#181818;stroke-width:0.5;" width="241" x="161" y="218.1484"/><text fill="#000000" font-family="sans-serif" font-size="12" lengthAdjust="spacing" textLength="221" x="171" y="240.6055">read and save current temperature value</text><polygon fill="#F1F1F1" points="231,273.2422,332,273.2422,344,285.2422,332,297.2422,231,297.2422,219,285.2422,231,273.2422" style="stroke:#181818;stroke-width:0.5;"/><text fill="#000000" font-family="sans-serif" font-size="11" lengthAdjust="spacing" textLength="101" x="231" y="289.7432">currently overheated</text><text fill="#000000" font-family="sans-serif" font-size="11" lengthAdjust="spacing" textLength="24" x="195" y="282.8252">false</text><text fill="#000000" font-family="sans-serif" font-size="11" lengthAdjust="spacing" textLength="19" x="344" y="282.8252">true</text><rect fill="#F1F1F1" height="35.0938" rx="12.5" ry="12.5" style="stroke:#181818;stroke-width:0.5;" width="138" x="95.75" y="356.1602"/><text fill="#000000" font-family="sans-serif" font-size="12" lengthAdjust="spacing" textLength="118" x="105.75" y="378.6172">set overheated to true</text><rect fill="#F1F1F1" height="35.0938" rx="12.5" ry="12.5" style="stroke:#181818;stroke-width:0.5;" width="183" x="73.25" y="426.2539"/><text fill="#000000" font-family="sans-serif" font-size="12" lengthAdjust="spacing" textLength="163" x="83.25" y="448.7109">call notify overheating function</text><rect fill="#F1F1F1" height="35.0938" rx="12.5" ry="12.5" style="stroke:#181818;stroke-width:0.5;" width="176" x="76.75" y="491.4297"/><text fill="#000000" font-family="sans-serif" font-size="12" lengthAdjust="spacing" textLength="156" x="86.75" y="513.8867">turn off all registered outputs</text><polygon fill="#F1F1F1" points="119.75,307.2422,209.75,307.2422,221.75,319.2422,209.75,331.2422,119.75,331.2422,107.75,319.2422,119.75,307.2422" style="stroke:#181818;stroke-width:0.5;"/><text fill="#000000" font-family="sans-serif" font-size="11" lengthAdjust="spacing" textLength="32" x="168.75" y="342.6611">to high</text><text fill="#000000" font-family="sans-serif" font-size="11" lengthAdjust="spacing" textLength="90" x="119.75" y="323.7432">Temperature value</text><text fill="#000000" font-family="sans-serif" font-size="11" lengthAdjust="spacing" textLength="11" x="221.75" y="316.8252">ok</text><polygon fill="#F1F1F1" points="164.75,546.5234,176.75,558.5234,164.75,570.5234,152.75,558.5234,164.75,546.5234" style="stroke:#181818;stroke-width:0.5;"/><rect fill="#F1F1F1" height="35.0938" rx="12.5" ry="12.5" style="stroke:#181818;stroke-width:0.5;" width="144" x="326.25" y="356.1602"/><text fill="#000000" font-family="sans-serif" font-size="12" lengthAdjust="spacing" textLength="124" x="336.25" y="378.6172">set overheated to false</text><rect fill="#F1F1F1" height="35.0938" rx="12.5" ry="12.5" style="stroke:#181818;stroke-width:0.5;" width="180" x="308.25" y="426.2539"/><text fill="#000000" font-family="sans-serif" font-size="12" lengthAdjust="spacing" textLength="160" x="318.25" y="448.7109">call notify normalized function</text><polygon fill="#F1F1F1" points="353.25,307.2422,443.25,307.2422,455.25,319.2422,443.25,331.2422,353.25,331.2422,341.25,319.2422,353.25,307.2422" style="stroke:#181818;stroke-width:0.5;"/><text fill="#000000" font-family="sans-serif" font-size="11" lengthAdjust="spacing" textLength="11" x="402.25" y="342.6611">ok</text><text fill="#000000" font-family="sans-serif" font-size="11" lengthAdjust="spacing" textLength="90" x="353.25" y="323.7432">Temperature value</text><text fill="#000000" font-family="sans-serif" font-size="11" lengthAdjust="spacing" textLength="32" x="455.25" y="316.8252">to high</text><polygon fill="#F1F1F1" points="398.25,481.3477,410.25,493.3477,398.25,505.3477,386.25,493.3477,398.25,481.3477" style="stroke:#181818;stroke-width:0.5;"/><polygon fill="#F1F1F1" points="281.5,576.5234,293.5,588.5234,281.5,600.5234,269.5,588.5234,281.5,576.5234" style="stroke:#181818;stroke-width:0.5;"/><rect fill="#F1F1F1" height="35.0938" rx="12.5" ry="12.5" style="stroke:#181818;stroke-width:0.5;" width="82" x="240.5" y="620.5234"/><text fill="#000000" font-family="sans-serif" font-size="12" lengthAdjust="spacing" textLength="62" x="250.5" y="642.9805">reschedule</text><polygon fill="#F1F1F1" points="252,174.1484,311,174.1484,323,186.1484,311,198.1484,252,198.1484,240,186.1484,252,174.1484" style="stroke:#181818;stroke-width:0.5;"/><text fill="#000000" font-family="sans-serif" font-size="11" lengthAdjust="spacing" textLength="59" x="252" y="190.6494">loop forever</text><line style="stroke:#181818;stroke-width:1.0;" x1="281.5" x2="281.5" y1="30" y2="50"/><polygon fill="#181818" points="277.5,40,281.5,50,285.5,40,281.5,44" style="stroke:#181818;stroke-width:1.0;"/><line style="stroke:#181818;stroke-width:1.0;" x1="281.5" x2="281.5" y1="85.0938" y2="107.0742"/><polygon fill="#181818" points="277.5,97.0742,281.5,107.0742,285.5,97.0742,281.5,101.0742" style="stroke:#181818;stroke-width:1.0;"/><line style="stroke:#181818;stroke-width:1.0;" x1="164.75" x2="164.75" y1="391.2539" y2="426.2539"/><polygon fill="#181818" points="160.75,416.2539,164.75,426.2539,168.75,416.2539,164.75,420.2539" style="stroke:#181818;stroke-width:1.0;"/><line style="stroke:#181818;stroke-width:1.0;" x1="164.75" x2="164.75" y1="461.3477" y2="491.4297"/><polygon fill="#181818" points="160.75,481.4297,164.75,491.4297,168.75,481.4297,164.75,485.4297" style="stroke:#181818;stroke-width:1.0;"/><line style="stroke:#181818;stroke-width:1.0;" x1="164.75" x2="164.75" y1="331.2422" y2="356.1602"/><polygon fill="#181818" points="160.75,346.1602,164.75,356.1602,168.75,346.1602,164.75,350.1602" style="stroke:#181818;stroke-width:1.0;"/><line style="stroke:#181818;stroke-width:1.0;" x1="221.75" x2="266.25" y1="319.2422" y2="319.2422"/><polygon fill="#181818" points="262.25,433.8008,266.25,443.8008,270.25,433.8008,266.25,437.8008" style="stroke:#181818;stroke-width:1.0;"/><line style="stroke:#181818;stroke-width:1.0;" x1="266.25" x2="266.25" y1="319.2422" y2="558.5234"/><line style="stroke:#181818;stroke-width:1.0;" x1="266.25" x2="176.75" y1="558.5234" y2="558.5234"/><polygon fill="#181818" points="186.75,554.5234,176.75,558.5234,186.75,562.5234,182.75,558.5234" style="stroke:#181818;stroke-width:1.0;"/><line style="stroke:#181818;stroke-width:1.0;" x1="164.75" x2="164.75" y1="526.5234" y2="546.5234"/><polygon fill="#181818" points="160.75,536.5234,164.75,546.5234,168.75,536.5234,164.75,540.5234" style="stroke:#181818;stroke-width:1.0;"/><line style="stroke:#181818;stroke-width:1.0;" x1="398.25" x2="398.25" y1="391.2539" y2="426.2539"/><polygon fill="#181818" points="394.25,416.2539,398.25,426.2539,402.25,416.2539,398.25,420.2539" style="stroke:#181818;stroke-width:1.0;"/><line style="stroke:#181818;stroke-width:1.0;" x1="398.25" x2="398.25" y1="331.2422" y2="356.1602"/><polygon fill="#181818" points="394.25,346.1602,398.25,356.1602,402.25,346.1602,398.25,350.1602" style="stroke:#181818;stroke-width:1.0;"/><line style="stroke:#181818;stroke-width:1.0;" x1="455.25" x2="498.25" y1="319.2422" y2="319.2422"/><polygon fill="#181818" points="494.25,398.7539,498.25,408.7539,502.25,398.7539,498.25,402.7539" style="stroke:#181818;stroke-width:1.0;"/><line style="stroke:#181818;stroke-width:1.0;" x1="498.25" x2="498.25" y1="319.2422" y2="493.3477"/><line style="stroke:#181818;stroke-width:1.0;" x1="498.25" x2="410.25" y1="493.3477" y2="493.3477"/><polygon fill="#181818" points="420.25,489.3477,410.25,493.3477,420.25,497.3477,416.25,493.3477" style="stroke:#181818;stroke-width:1.0;"/><line style="stroke:#181818;stroke-width:1.0;" x1="398.25" x2="398.25" y1="461.3477" y2="481.3477"/><polygon fill="#181818" points="394.25,471.3477,398.25,481.3477,402.25,471.3477,398.25,475.3477" style="stroke:#181818;stroke-width:1.0;"/><line style="stroke:#181818;stroke-width:1.0;" x1="219" x2="164.75" y1="285.2422" y2="285.2422"/><line style="stroke:#181818;stroke-width:1.0;" x1="164.75" x2="164.75" y1="285.2422" y2="307.2422"/><polygon fill="#181818" points="160.75,297.2422,164.75,307.2422,168.75,297.2422,164.75,301.2422" style="stroke:#181818;stroke-width:1.0;"/><line style="stroke:#181818;stroke-width:1.0;" x1="344" x2="398.25" y1="285.2422" y2="285.2422"/><line style="stroke:#181818;stroke-width:1.0;" x1="398.25" x2="398.25" y1="285.2422" y2="307.2422"/><polygon fill="#181818" points="394.25,297.2422,398.25,307.2422,402.25,297.2422,398.25,301.2422" style="stroke:#181818;stroke-width:1.0;"/><line style="stroke:#181818;stroke-width:1.0;" x1="164.75" x2="164.75" y1="570.5234" y2="588.5234"/><line style="stroke:#181818;stroke-width:1.0;" x1="164.75" x2="269.5" y1="588.5234" y2="588.5234"/><polygon fill="#181818" points="259.5,584.5234,269.5,588.5234,259.5,592.5234,263.5,588.5234" style="stroke:#181818;stroke-width:1.0;"/><line style="stroke:#181818;stroke-width:1.0;" x1="398.25" x2="398.25" y1="505.3477" y2="588.5234"/><line style="stroke:#181818;stroke-width:1.0;" x1="398.25" x2="293.5" y1="588.5234" y2="588.5234"/><polygon fill="#181818" points="303.5,584.5234,293.5,588.5234,303.5,592.5234,299.5,588.5234" style="stroke:#181818;stroke-width:1.0;"/><line style="stroke:#181818;stroke-width:1.0;" x1="281.5" x2="281.5" y1="253.2422" y2="273.2422"/><polygon fill="#181818" points="277.5,263.2422,281.5,273.2422,285.5,263.2422,281.5,267.2422" style="stroke:#181818;stroke-width:1.0;"/><line style="stroke:#181818;stroke-width:1.0;" x1="281.5" x2="281.5" y1="600.5234" y2="620.5234"/><polygon fill="#181818" points="277.5,610.5234,281.5,620.5234,285.5,610.5234,281.5,614.5234" style="stroke:#181818;stroke-width:1.0;"/><line style="stroke:#181818;stroke-width:1.0;" x1="281.5" x2="281.5" y1="198.1484" y2="218.1484"/><polygon fill="#181818" points="277.5,208.1484,281.5,218.1484,285.5,208.1484,281.5,212.1484" style="stroke:#181818;stroke-width:1.0;"/><line style="stroke:#181818;stroke-width:1.0;" x1="281.5" x2="281.5" y1="655.6172" y2="665.6172"/><line style="stroke:#181818;stroke-width:1.0;" x1="281.5" x2="516.25" y1="665.6172" y2="665.6172"/><polygon fill="#181818" points="512.25,439.8008,516.25,429.8008,520.25,439.8008,516.25,435.8008" style="stroke:#181818;stroke-width:1.0;"/><line style="stroke:#181818;stroke-width:1.0;" x1="516.25" x2="516.25" y1="186.1484" y2="665.6172"/><line style="stroke:#181818;stroke-width:1.0;" x1="516.25" x2="323" y1="186.1484" y2="186.1484"/><polygon fill="#181818" points="333,182.1484,323,186.1484,333,190.1484,329,186.1484" style="stroke:#181818;stroke-width:1.0;"/><line style="stroke:#181818;stroke-width:1.0;" x1="281.5" x2="281.5" y1="142.168" y2="174.1484"/><polygon fill="#181818" points="277.5,164.1484,281.5,174.1484,285.5,164.1484,281.5,168.1484" style="stroke:#181818;stroke-width:1.0;"/><!--SRC=[dP91RWCX34NtdCBBoI8NIAIUehkg2mfciCgO24oYvFGraqucJTGkoWhXp_VxXYgsYDaHav1DL144fmCMAwqWdAouwFEuDxk28rN10hd9eGcuF4sMVTqRpeAGC8W1NOodMmsSPR2fPfXB7mYB2tf8jhlD1TyAyGWI4OX3Ppb3olbWa3rqUtEAb126VWWX5pnYsSnNbSjwq6PGxH71jLAGvKU8eqqDzxEQ0WpVadI6h2uH5SDlUc-68IWiNeqN-UkZqwAL3976kAfdd8fovmigah9qlucSJQddeh12z064naueyuDSUpFa4A1VkvlWzINggaQbXo5_hamwG0fchNMO_-PxTlybyJp5Fo9pBfF-jOkgdnFV4Tzs-iZLHVGjgQqUpx_1RDyYUO_yldqn7iMw-0K0]--></g></svg>