<?xml version="1.0" encoding="us-ascii" standalone="no"?><svg xmlns="http://www.w3.org/2000/svg" xmlns:xlink="http://www.w3.org/1999/xlink" contentStyleType="text/css" height="1415px" preserveAspectRatio="none" style="width:2448px;height:1415px;background:#FFFFFF;" version="1.1" viewBox="0 0 2448 1415" width="2448px" zoomAndPan="magnify"><defs/><g><rect fill="none" height="22.6406" style="stroke:none;stroke-width:1.0;" width="2415.5" x="15" y="12.4551"/><ellipse cx="214" cy="50.0957" fill="#222222" rx="10" ry="10" style="stroke:#222222;stroke-width:1.0;"/><path d="M144.5,80.0957 L139.5,97.6426 L144.5,115.1895 M283.5,80.0957 L288.5,97.6426 L283.5,115.1895 " fill="#F1F1F1" style="stroke:#181818;stroke-width:0.5;"/><text fill="#000000" font-family="sans-serif" font-size="12" lengthAdjust="spacing" textLength="129" x="149.5" y="102.5527">when button is pressed</text><polygon fill="#F1F1F1" points="116,135.1895,322,135.1895,312,170.2832,106,170.2832" style="stroke:#181818;stroke-width:0.5;"/><text fill="#000000" font-family="sans-serif" font-size="12" lengthAdjust="spacing" textLength="196" x="116" y="157.6465">toggle_onoff(relais_cli_ctx) is called</text><rect fill="#F1F1F1" height="35.0938" rx="12.5" ry="12.5" style="stroke:#181818;stroke-width:0.5;" width="291" x="68.5" y="464.8457"/><text fill="#000000" font-family="sans-serif" font-size="12" lengthAdjust="spacing" textLength="268" x="81.5" y="487.3027">stack calls "relais_set" of the relais_srv_ctx struct</text><polygon fill="#F1F1F1" points="92.5,590.127,345.5,590.127,335.5,625.2207,82.5,625.2207" style="stroke:#181818;stroke-width:0.5;"/><text fill="#000000" font-family="sans-serif" font-size="12" lengthAdjust="spacing" textLength="243" x="92.5" y="612.584">call "relaisX_safe_setWrapper(onOff_value)"</text><polygon fill="#F1F1F1" points="58,804.3262,380,804.3262,370,839.4199,48,839.4199" style="stroke:#181818;stroke-width:0.5;"/><text fill="#000000" font-family="sans-serif" font-size="12" lengthAdjust="spacing" textLength="312" x="58" y="826.7832">call function "execute_relaisX_set_wrapper(onOff_value)"</text><rect fill="#F1F1F1" height="35.0938" rx="12.5" ry="12.5" style="stroke:#181818;stroke-width:0.5;" width="258" x="85" y="859.4199"/><text fill="#000000" font-family="sans-serif" font-size="12" lengthAdjust="spacing" textLength="238" x="95" y="881.877">call function "gpio_pin_set_dt(onOff_value)"</text><rect fill="#F1F1F1" height="35.0938" rx="12.5" ry="12.5" style="stroke:#181818;stroke-width:0.5;" width="152" x="138" y="1062.5254"/><text fill="#000000" font-family="sans-serif" font-size="12" lengthAdjust="spacing" textLength="132" x="148" y="1084.9824">stack calls "relais_get()"</text><rect fill="#F1F1F1" height="35.0938" rx="12.5" ry="12.5" style="stroke:#181818;stroke-width:0.5;" width="218" x="105" y="1227.8066"/><text fill="#000000" font-family="sans-serif" font-size="12" lengthAdjust="spacing" textLength="198" x="115" y="1250.2637">stack calls "relais_status_handler()"</text><polygon fill="#F1F1F1" points="179,1013.6074,249,1013.6074,261,1025.6074,249,1037.6074,179,1037.6074,167,1025.6074,179,1013.6074" style="stroke:#181818;stroke-width:0.5;"/><text fill="#000000" font-family="sans-serif" font-size="11" lengthAdjust="spacing" textLength="18" x="218" y="1049.0264">yes</text><text fill="#000000" font-family="sans-serif" font-size="11" lengthAdjust="spacing" textLength="70" x="179" y="1030.1084">ack demanded</text><text fill="#000000" font-family="sans-serif" font-size="11" lengthAdjust="spacing" textLength="12" x="155" y="1023.1904">no</text><polygon fill="#F1F1F1" points="214,1337.9941,226,1349.9941,214,1361.9941,202,1349.9941,214,1337.9941" style="stroke:#181818;stroke-width:0.5;"/><ellipse cx="214" cy="1392.9941" fill="none" rx="11" ry="11" style="stroke:#222222;stroke-width:1.0;"/><ellipse cx="214" cy="1392.9941" fill="#222222" rx="6" ry="6" style="stroke:#111111;stroke-width:1.0;"/><line style="stroke:#000000;stroke-width:1.5;" x1="15" x2="15" y1="12.4551" y2="1403.9941"/><rect fill="#F1F1F1" height="35.0938" rx="12.5" ry="12.5" style="stroke:#181818;stroke-width:0.5;" width="344" x="662.5" y="190.2832"/><text fill="#000000" font-family="sans-serif" font-size="12" lengthAdjust="spacing" textLength="324" x="672.5" y="212.7402">ack_unack_handler(relais_client_ctx, onOff_value) is called</text><polygon fill="#F1F1F1" points="802.5,245.377,866.5,245.377,878.5,257.377,866.5,269.377,802.5,269.377,790.5,257.377,802.5,245.377" style="stroke:#181818;stroke-width:0.5;"/><text fill="#000000" font-family="sans-serif" font-size="11" lengthAdjust="spacing" textLength="64" x="802.5" y="261.8779">address type</text><text fill="#000000" font-family="sans-serif" font-size="11" lengthAdjust="spacing" textLength="35" x="755.5" y="254.96">unicast</text><text fill="#000000" font-family="sans-serif" font-size="11" lengthAdjust="spacing" textLength="56" x="878.5" y="254.96">non unicast</text><path d="M676,290.0371 L676,349.0918 L973,349.0918 L973,300.0371 L963,290.0371 L676,290.0371 " fill="#FEFFDD" style="stroke:#181818;stroke-width:0.5;"/><path d="M963,290.0371 L963,300.0371 L973,300.0371 L963,290.0371 " fill="#FEFFDD" style="stroke:#181818;stroke-width:0.5;"/><text fill="#000000" font-family="sans-serif" font-size="13" lengthAdjust="spacing" textLength="131" x="682" y="308.5322">with an ack-command,</text><text fill="#000000" font-family="sans-serif" font-size="13" lengthAdjust="spacing" textLength="173" x="682" y="324.8838">the server will return its status</text><text fill="#000000" font-family="sans-serif" font-size="13" lengthAdjust="spacing" textLength="276" x="682" y="341.2354">and save it to the passed bt_mesh_onoff_status</text><rect fill="#F1F1F1" height="80.375" rx="12.5" ry="12.5" style="stroke:#181818;stroke-width:0.5;" width="255" x="401" y="279.377"/><text fill="#000000" font-family="sans-serif" font-size="12" lengthAdjust="spacing" textLength="235" x="411" y="301.834">bt_mesh_onoff_cli_set(bt_mesh_onoff_cli,</text><text fill="#000000" font-family="sans-serif" font-size="12" lengthAdjust="spacing" textLength="110" x="435" y="316.9277">bt_mesh_onoff_set,</text><text fill="#000000" font-family="sans-serif" font-size="12" lengthAdjust="spacing" textLength="128" x="435" y="332.0215">bt_mesh_onoff_status)</text><text fill="#000000" font-family="sans-serif" font-size="12" lengthAdjust="spacing" textLength="46" x="411" y="347.1152">is called</text><rect fill="#F1F1F1" height="65.2813" rx="12.5" ry="12.5" style="stroke:#181818;stroke-width:0.5;" width="295" x="993" y="279.377"/><text fill="#000000" font-family="sans-serif" font-size="12" lengthAdjust="spacing" textLength="275" x="1003" y="301.834">bt_mesh_onoff_cli_set_unack(bt_mesh_onoff_cli,</text><text fill="#000000" font-family="sans-serif" font-size="12" lengthAdjust="spacing" textLength="111" x="1027" y="316.9277">bt_mesh_onoff_set)</text><text fill="#000000" font-family="sans-serif" font-size="12" lengthAdjust="spacing" textLength="46" x="1003" y="332.0215">is called</text><polygon fill="#F1F1F1" points="834.5,365.752,846.5,377.752,834.5,389.752,822.5,377.752,834.5,365.752" style="stroke:#181818;stroke-width:0.5;"/><rect fill="#F1F1F1" height="35.0938" rx="12.5" ry="12.5" style="stroke:#181818;stroke-width:0.5;" width="219" x="725" y="1282.9004"/><text fill="#000000" font-family="sans-serif" font-size="12" lengthAdjust="spacing" textLength="199" x="735" y="1305.3574">status is saved in client helper struct</text><line style="stroke:#000000;stroke-width:1.5;" x1="395" x2="395" y1="12.4551" y2="1403.9941"/><path d="M1302,409.752 L1297,427.2988 L1302,444.8457 M1692,409.752 L1697,427.2988 L1692,444.8457 " fill="#F1F1F1" style="stroke:#181818;stroke-width:0.5;"/><text fill="#000000" font-family="sans-serif" font-size="12" lengthAdjust="spacing" textLength="377" x="1310" y="432.209">message is transmitted via ble-mesh stack and received by server(s)</text><path d="M1313.5,1172.7129 L1308.5,1190.2598 L1313.5,1207.8066 M1680.5,1172.7129 L1685.5,1190.2598 L1680.5,1207.8066 " fill="#F1F1F1" style="stroke:#181818;stroke-width:0.5;"/><text fill="#000000" font-family="sans-serif" font-size="12" lengthAdjust="spacing" textLength="357" x="1318.5" y="1195.1699">message is transmitted via ble-mesh stack and received by client</text><line style="stroke:#000000;stroke-width:1.5;" x1="1292" x2="1292" y1="12.4551" y2="1403.9941"/><rect fill="#F1F1F1" height="50.1875" rx="12.5" ry="12.5" style="stroke:#181818;stroke-width:0.5;" width="279" x="1708" y="519.9395"/><text fill="#000000" font-family="sans-serif" font-size="12" lengthAdjust="spacing" textLength="259" x="1718" y="542.3965">call function pointer"relais_output(onOff_value)"</text><text fill="#000000" font-family="sans-serif" font-size="12" lengthAdjust="spacing" textLength="253" x="1718" y="557.4902">(after some time if transition time or delay != 0)</text><rect fill="#F1F1F1" height="35.0938" rx="12.5" ry="12.5" style="stroke:#181818;stroke-width:0.5;" width="130" x="1782.5" y="1117.6191"/><text fill="#000000" font-family="sans-serif" font-size="12" lengthAdjust="spacing" textLength="110" x="1792.5" y="1140.0762">call "relais_status()"</text><line style="stroke:#000000;stroke-width:1.5;" x1="1702" x2="1702" y1="12.4551" y2="1403.9941"/><rect fill="#F1F1F1" height="35.0938" rx="12.5" ry="12.5" style="stroke:#181818;stroke-width:0.5;" width="428" x="1997" y="645.2207"/><text fill="#000000" font-family="sans-serif" font-size="12" lengthAdjust="spacing" textLength="408" x="2007" y="667.6777">call "safely_switch_onOff(temp_watchdog_ctx, cmd_number, onOff_value)"</text><rect fill="#F1F1F1" height="35.0938" rx="12.5" ry="12.5" style="stroke:#181818;stroke-width:0.5;" width="258" x="2082" y="749.2324"/><text fill="#000000" font-family="sans-serif" font-size="12" lengthAdjust="spacing" textLength="238" x="2092" y="771.6895">call function pointer "gpio_set(onOff_value)"</text><polygon fill="#F1F1F1" points="2182,700.3145,2240,700.3145,2252,712.3145,2240,724.3145,2182,724.3145,2170,712.3145,2182,700.3145" style="stroke:#181818;stroke-width:0.5;"/><text fill="#000000" font-family="sans-serif" font-size="11" lengthAdjust="spacing" textLength="32" x="2215" y="735.7334">normal</text><text fill="#000000" font-family="sans-serif" font-size="11" lengthAdjust="spacing" textLength="58" x="2182" y="716.8154">temperature</text><text fill="#000000" font-family="sans-serif" font-size="11" lengthAdjust="spacing" textLength="55" x="2252" y="709.8975">overheated</text><polygon fill="#F1F1F1" points="2211,914.5137,2223,926.5137,2211,938.5137,2199,926.5137,2211,914.5137" style="stroke:#181818;stroke-width:0.5;"/><rect fill="#F1F1F1" height="35.0938" rx="12.5" ry="12.5" style="stroke:#181818;stroke-width:0.5;" width="140" x="2141" y="958.5137"/><text fill="#000000" font-family="sans-serif" font-size="12" lengthAdjust="spacing" textLength="120" x="2151" y="980.9707">return actual set value</text><line style="stroke:#000000;stroke-width:1.5;" x1="1991" x2="1991" y1="12.4551" y2="1403.9941"/><line style="stroke:#000000;stroke-width:1.5;" x1="2429" x2="2429" y1="12.4551" y2="1403.9941"/><line style="stroke:#181818;stroke-width:1.0;" x1="214" x2="214" y1="60.0957" y2="80.0957"/><polygon fill="#181818" points="210,70.0957,214,80.0957,218,70.0957,214,74.0957" style="stroke:#181818;stroke-width:1.0;"/><line style="stroke:#181818;stroke-width:1.0;" x1="214" x2="214" y1="115.1895" y2="135.1895"/><polygon fill="#181818" points="210,125.1895,214,135.1895,218,125.1895,214,129.1895" style="stroke:#181818;stroke-width:1.0;"/><line style="stroke:#181818;stroke-width:1.0;" x1="214" x2="214" y1="839.4199" y2="859.4199"/><polygon fill="#181818" points="210,849.4199,214,859.4199,218,849.4199,214,853.4199" style="stroke:#181818;stroke-width:1.0;"/><line style="stroke:#181818;stroke-width:1.0;" x1="214" x2="214" y1="1037.6074" y2="1062.5254"/><polygon fill="#181818" points="210,1052.5254,214,1062.5254,218,1052.5254,214,1056.5254" style="stroke:#181818;stroke-width:1.0;"/><line style="stroke:#181818;stroke-width:1.0;" x1="167" x2="34" y1="1025.6074" y2="1025.6074"/><polygon fill="#181818" points="30,1180.2598,34,1190.2598,38,1180.2598,34,1184.2598" style="stroke:#181818;stroke-width:1.0;"/><line style="stroke:#181818;stroke-width:1.0;" x1="34" x2="34" y1="1025.6074" y2="1349.9941"/><line style="stroke:#181818;stroke-width:1.0;" x1="34" x2="202" y1="1349.9941" y2="1349.9941"/><polygon fill="#181818" points="192,1345.9941,202,1349.9941,192,1353.9941,196,1349.9941" style="stroke:#181818;stroke-width:1.0;"/><line style="stroke:#181818;stroke-width:1.0;" x1="214" x2="214" y1="1361.9941" y2="1381.9941"/><polygon fill="#181818" points="210,1371.9941,214,1381.9941,218,1371.9941,214,1375.9941" style="stroke:#181818;stroke-width:1.0;"/><line style="stroke:#181818;stroke-width:1.0;" x1="790.5" x2="528.5" y1="257.377" y2="257.377"/><line style="stroke:#181818;stroke-width:1.0;" x1="528.5" x2="528.5" y1="257.377" y2="279.377"/><polygon fill="#181818" points="524.5,269.377,528.5,279.377,532.5,269.377,528.5,273.377" style="stroke:#181818;stroke-width:1.0;"/><line style="stroke:#181818;stroke-width:1.0;" x1="878.5" x2="1140.5" y1="257.377" y2="257.377"/><line style="stroke:#181818;stroke-width:1.0;" x1="1140.5" x2="1140.5" y1="257.377" y2="279.377"/><polygon fill="#181818" points="1136.5,269.377,1140.5,279.377,1144.5,269.377,1140.5,273.377" style="stroke:#181818;stroke-width:1.0;"/><line style="stroke:#181818;stroke-width:1.0;" x1="528.5" x2="528.5" y1="359.752" y2="377.752"/><line style="stroke:#181818;stroke-width:1.0;" x1="528.5" x2="822.5" y1="377.752" y2="377.752"/><polygon fill="#181818" points="812.5,373.752,822.5,377.752,812.5,381.752,816.5,377.752" style="stroke:#181818;stroke-width:1.0;"/><line style="stroke:#181818;stroke-width:1.0;" x1="1140.5" x2="1140.5" y1="344.6582" y2="377.752"/><line style="stroke:#181818;stroke-width:1.0;" x1="1140.5" x2="846.5" y1="377.752" y2="377.752"/><polygon fill="#181818" points="856.5,373.752,846.5,377.752,856.5,381.752,852.5,377.752" style="stroke:#181818;stroke-width:1.0;"/><line style="stroke:#181818;stroke-width:1.0;" x1="834.5" x2="834.5" y1="225.377" y2="245.377"/><polygon fill="#181818" points="830.5,235.377,834.5,245.377,838.5,235.377,834.5,239.377" style="stroke:#181818;stroke-width:1.0;"/><line style="stroke:#181818;stroke-width:1.0;" x1="2211" x2="2211" y1="724.3145" y2="749.2324"/><polygon fill="#181818" points="2207,739.2324,2211,749.2324,2215,739.2324,2211,743.2324" style="stroke:#181818;stroke-width:1.0;"/><line style="stroke:#181818;stroke-width:1.0;" x1="2252" x2="2387" y1="712.3145" y2="712.3145"/><polygon fill="#181818" points="2383,811.873,2387,821.873,2391,811.873,2387,815.873" style="stroke:#181818;stroke-width:1.0;"/><line style="stroke:#181818;stroke-width:1.0;" x1="2387" x2="2387" y1="712.3145" y2="926.5137"/><line style="stroke:#181818;stroke-width:1.0;" x1="2387" x2="2223" y1="926.5137" y2="926.5137"/><polygon fill="#181818" points="2233,922.5137,2223,926.5137,2233,930.5137,2229,926.5137" style="stroke:#181818;stroke-width:1.0;"/><line style="stroke:#181818;stroke-width:1.0;" x1="2211" x2="2211" y1="680.3145" y2="700.3145"/><polygon fill="#181818" points="2207,690.3145,2211,700.3145,2215,690.3145,2211,694.3145" style="stroke:#181818;stroke-width:1.0;"/><line style="stroke:#181818;stroke-width:1.0;" x1="2211" x2="2211" y1="938.5137" y2="958.5137"/><polygon fill="#181818" points="2207,948.5137,2211,958.5137,2215,948.5137,2211,952.5137" style="stroke:#181818;stroke-width:1.0;"/><line style="stroke:#181818;stroke-width:1.0;" x1="214" x2="214" y1="170.2832" y2="175.2832"/><line style="stroke:#181818;stroke-width:1.0;" x1="214" x2="834.5" y1="175.2832" y2="175.2832"/><line style="stroke:#181818;stroke-width:1.0;" x1="834.5" x2="834.5" y1="175.2832" y2="190.2832"/><polygon fill="#181818" points="830.5,180.2832,834.5,190.2832,838.5,180.2832,834.5,184.2832" style="stroke:#181818;stroke-width:1.0;"/><line style="stroke:#181818;stroke-width:1.0;" x1="834.5" x2="834.5" y1="389.752" y2="394.752"/><line style="stroke:#181818;stroke-width:1.0;" x1="834.5" x2="1497" y1="394.752" y2="394.752"/><line style="stroke:#181818;stroke-width:1.0;" x1="1497" x2="1497" y1="394.752" y2="409.752"/><polygon fill="#181818" points="1493,399.752,1497,409.752,1501,399.752,1497,403.752" style="stroke:#181818;stroke-width:1.0;"/><line style="stroke:#181818;stroke-width:1.0;" x1="1497" x2="1497" y1="444.8457" y2="449.8457"/><line style="stroke:#181818;stroke-width:1.0;" x1="1497" x2="214" y1="449.8457" y2="449.8457"/><line style="stroke:#181818;stroke-width:1.0;" x1="214" x2="214" y1="449.8457" y2="464.8457"/><polygon fill="#181818" points="210,454.8457,214,464.8457,218,454.8457,214,458.8457" style="stroke:#181818;stroke-width:1.0;"/><line style="stroke:#181818;stroke-width:1.0;" x1="214" x2="214" y1="499.9395" y2="504.9395"/><line style="stroke:#181818;stroke-width:1.0;" x1="214" x2="1847.5" y1="504.9395" y2="504.9395"/><line style="stroke:#181818;stroke-width:1.0;" x1="1847.5" x2="1847.5" y1="504.9395" y2="519.9395"/><polygon fill="#181818" points="1843.5,509.9395,1847.5,519.9395,1851.5,509.9395,1847.5,513.9395" style="stroke:#181818;stroke-width:1.0;"/><line style="stroke:#181818;stroke-width:1.0;" x1="1847.5" x2="1847.5" y1="570.127" y2="575.127"/><line style="stroke:#181818;stroke-width:1.0;" x1="1847.5" x2="214" y1="575.127" y2="575.127"/><line style="stroke:#181818;stroke-width:1.0;" x1="214" x2="214" y1="575.127" y2="590.127"/><polygon fill="#181818" points="210,580.127,214,590.127,218,580.127,214,584.127" style="stroke:#181818;stroke-width:1.0;"/><line style="stroke:#181818;stroke-width:1.0;" x1="214" x2="214" y1="625.2207" y2="630.2207"/><line style="stroke:#181818;stroke-width:1.0;" x1="214" x2="2211" y1="630.2207" y2="630.2207"/><line style="stroke:#181818;stroke-width:1.0;" x1="2211" x2="2211" y1="630.2207" y2="645.2207"/><polygon fill="#181818" points="2207,635.2207,2211,645.2207,2215,635.2207,2211,639.2207" style="stroke:#181818;stroke-width:1.0;"/><line style="stroke:#181818;stroke-width:1.0;" x1="2211" x2="2211" y1="784.3262" y2="789.3262"/><line style="stroke:#181818;stroke-width:1.0;" x1="2211" x2="214" y1="789.3262" y2="789.3262"/><line style="stroke:#181818;stroke-width:1.0;" x1="214" x2="214" y1="789.3262" y2="804.3262"/><polygon fill="#181818" points="210,794.3262,214,804.3262,218,794.3262,214,798.3262" style="stroke:#181818;stroke-width:1.0;"/><line style="stroke:#181818;stroke-width:1.0;" x1="214" x2="214" y1="894.5137" y2="902.0547"/><line style="stroke:#181818;stroke-width:1.0;" x1="214" x2="2211" y1="902.0547" y2="902.0547"/><line style="stroke:#181818;stroke-width:1.0;" x1="2211" x2="2211" y1="902.0547" y2="914.5137"/><polygon fill="#181818" points="2207,904.5137,2211,914.5137,2215,904.5137,2211,908.5137" style="stroke:#181818;stroke-width:1.0;"/><line style="stroke:#181818;stroke-width:1.0;" x1="214" x2="214" y1="1097.6191" y2="1102.6191"/><line style="stroke:#181818;stroke-width:1.0;" x1="214" x2="1847.5" y1="1102.6191" y2="1102.6191"/><line style="stroke:#181818;stroke-width:1.0;" x1="1847.5" x2="1847.5" y1="1102.6191" y2="1117.6191"/><polygon fill="#181818" points="1843.5,1107.6191,1847.5,1117.6191,1851.5,1107.6191,1847.5,1111.6191" style="stroke:#181818;stroke-width:1.0;"/><line style="stroke:#181818;stroke-width:1.0;" x1="1847.5" x2="1847.5" y1="1152.7129" y2="1157.7129"/><line style="stroke:#181818;stroke-width:1.0;" x1="1847.5" x2="1497" y1="1157.7129" y2="1157.7129"/><line style="stroke:#181818;stroke-width:1.0;" x1="1497" x2="1497" y1="1157.7129" y2="1172.7129"/><polygon fill="#181818" points="1493,1162.7129,1497,1172.7129,1501,1162.7129,1497,1166.7129" style="stroke:#181818;stroke-width:1.0;"/><line style="stroke:#181818;stroke-width:1.0;" x1="1497" x2="1497" y1="1207.8066" y2="1212.8066"/><line style="stroke:#181818;stroke-width:1.0;" x1="1497" x2="214" y1="1212.8066" y2="1212.8066"/><line style="stroke:#181818;stroke-width:1.0;" x1="214" x2="214" y1="1212.8066" y2="1227.8066"/><polygon fill="#181818" points="210,1217.8066,214,1227.8066,218,1217.8066,214,1221.8066" style="stroke:#181818;stroke-width:1.0;"/><line style="stroke:#181818;stroke-width:1.0;" x1="214" x2="214" y1="1262.9004" y2="1267.9004"/><line style="stroke:#181818;stroke-width:1.0;" x1="214" x2="834.5" y1="1267.9004" y2="1267.9004"/><line style="stroke:#181818;stroke-width:1.0;" x1="834.5" x2="834.5" y1="1267.9004" y2="1282.9004"/><polygon fill="#181818" points="830.5,1272.9004,834.5,1282.9004,838.5,1272.9004,834.5,1276.9004" style="stroke:#181818;stroke-width:1.0;"/><line style="stroke:#181818;stroke-width:1.0;" x1="834.5" x2="834.5" y1="1317.9941" y2="1325.5352"/><line style="stroke:#181818;stroke-width:1.0;" x1="834.5" x2="214" y1="1325.5352" y2="1325.5352"/><line style="stroke:#181818;stroke-width:1.0;" x1="214" x2="214" y1="1325.5352" y2="1337.9941"/><polygon fill="#181818" points="210,1327.9941,214,1337.9941,218,1327.9941,214,1331.9941" style="stroke:#181818;stroke-width:1.0;"/><line style="stroke:#181818;stroke-width:1.0;" x1="2211" x2="2211" y1="993.6074" y2="998.6074"/><line style="stroke:#181818;stroke-width:1.0;" x1="2211" x2="214" y1="998.6074" y2="998.6074"/><line style="stroke:#181818;stroke-width:1.0;" x1="214" x2="214" y1="998.6074" y2="1013.6074"/><polygon fill="#181818" points="210,1003.6074,214,1013.6074,218,1003.6074,214,1007.6074" style="stroke:#181818;stroke-width:1.0;"/><text fill="#000000" font-family="sans-serif" font-size="18" lengthAdjust="spacing" textLength="113" x="148.5" y="31.1406">model handler</text><text fill="#000000" font-family="sans-serif" font-size="18" lengthAdjust="spacing" textLength="143" x="772" y="31.1406">relais client model</text><text fill="#000000" font-family="sans-serif" font-size="18" lengthAdjust="spacing" textLength="43" x="1475.5" y="31.1406">mesh</text><text fill="#000000" font-family="sans-serif" font-size="18" lengthAdjust="spacing" textLength="151" x="1771" y="31.1406">relais server model</text><text fill="#000000" font-family="sans-serif" font-size="18" lengthAdjust="spacing" textLength="178" x="2121" y="31.1406">temperature watchdog</text><!--SRC=[dLNBZjim3BpxAzYSR60NxJcBVaEFxSrGPDeMLfOCYKesGFRVIygFTJP6qTO71v66v70qb6-3Rz12hrnZCToAI2fGSRpqwE2KYBm34s4C62CsxyMHVDTPhBtpRLi6jCh4MbjJQtgh1AcLjTXyBMxJ7l0UEe9SvLOSbNwjavFtN76JWt6IvWcy-z6szLdPX9kSBuLfeLHD8ro0hYDlaj0iapDQHQeAuETuedh0s4yKCxU8L3wiFa66By_zFaVyUPyKfLXDa0r3-TjQhyYu3fmdX62wdjPC5qCzA0SimBFsmy0QREfmDn0nd34mq5e8I2cm_XHXAlW1vK28weoy2UHpvAZaY7Q9vZ3a4A5Ke8q8fUEJ_GlXfjFwT_aUjU7wfYrk0cCZ0Fz6rQ4WA2WN1qF4zCz6mSdYiy2aQ_sQUmseqPoblUiiKHchTyvsxzxZ728r8nncRp6T0_WsgxGiXRDuZU4XQNfPxJhBlzXLya2Rd2R3SetUECAmfFM9naJbrgq7A4hLCWQY7n38y8jTcniqEKTUyW4ulxh2b-_mhNfvR2FNdUlyggDgKPhu6TGuSkTt5NdK20TUveCE21T5kczyjoQHO7kj8rjFo_bmQ2a1zOASPauFJUtISC9mFt-7QUms9PQfyonKZueFhLej5GPbPpVjIWU7RZG-3-Id8fybsCbnm3VKYR1UTM5xNlOrsGlFfKVZSbppo61VnicsntaMbQQaBDk480S-4ZTjAGviK8QRjPdLkcASXTbpQCU2P0wxDlnePdLq7kifP1geZFd_cPgkt_VzOzYTgSnWlSMtvE-l_2M3N5_IcPAAnYse7kqeupBFuMAaQhqkFd-U_5Z8yni0]--></g></svg>