<?xml version="1.0" encoding="us-ascii" standalone="no"?><svg xmlns="http://www.w3.org/2000/svg" xmlns:xlink="http://www.w3.org/1999/xlink" contentStyleType="text/css" height="1006px" preserveAspectRatio="none" style="width:1856px;height:1006px;background:#FFFFFF;" version="1.1" viewBox="0 0 1856 1006" width="1856px" zoomAndPan="magnify"><defs/><g><ellipse cx="914" cy="20" fill="#222222" rx="10" ry="10" style="stroke:#222222;stroke-width:1.0;"/><line style="stroke:#181818;stroke-width:1.5;" x1="379" x2="1731.25" y1="50" y2="50"/><line style="stroke:#181818;stroke-width:1.5;" x1="129.5" x2="510.75" y1="70" y2="70"/><polygon fill="#F1F1F1" points="20,80,239,80,249,112.6406,239,145.2813,20,145.2813" style="stroke:#181818;stroke-width:0.5;"/><text fill="#000000" font-family="sans-serif" font-size="12" lengthAdjust="spacing" textLength="188" x="30" y="102.457">create bt_mesh_health_server_cb</text><text fill="#000000" font-family="sans-serif" font-size="12" lengthAdjust="spacing" textLength="199" x="30" y="117.5508">by giving attention_on &amp; attention_off</text><text fill="#000000" font-family="sans-serif" font-size="12" lengthAdjust="spacing" textLength="91" x="30" y="132.6445">function pointers</text><rect fill="#F1F1F1" height="35.0938" rx="12.5" ry="12.5" style="stroke:#181818;stroke-width:0.5;" width="170" x="44.5" y="180.2813"/><text fill="#000000" font-family="sans-serif" font-size="12" lengthAdjust="spacing" textLength="150" x="54.5" y="202.7383">create bt_mesh_health_srv</text><line style="stroke:#181818;stroke-width:1.5;" x1="115.5" x2="231.5" y1="250.375" y2="250.375"/><rect fill="#F1F1F1" height="35.0938" rx="12.5" ry="12.5" style="stroke:#181818;stroke-width:0.5;" width="176" x="27.5" y="271.875"/><text fill="#000000" font-family="sans-serif" font-size="12" lengthAdjust="spacing" textLength="156" x="37.5" y="294.332">define bt_mesh_model_pub</text><line style="stroke:#181818;stroke-width:1.5;" x1="115.5" x2="231.5" y1="326.9688" y2="326.9688"/><line style="stroke:none;stroke-width:1.5;" x1="393.25" x2="639.25" y1="115.0469" y2="115.0469"/><polygon fill="#F1F1F1" points="283.75,136.5469,502.75,136.5469,512.75,169.1875,502.75,201.8281,283.75,201.8281" style="stroke:#181818;stroke-width:0.5;"/><text fill="#000000" font-family="sans-serif" font-size="12" lengthAdjust="spacing" textLength="199" x="293.75" y="159.0039">create bt_mesh_onoff_srv_handlers</text><text fill="#000000" font-family="sans-serif" font-size="12" lengthAdjust="spacing" textLength="174" x="293.75" y="174.0977">by giving relais_set &amp; relais_get</text><text fill="#000000" font-family="sans-serif" font-size="12" lengthAdjust="spacing" textLength="91" x="293.75" y="189.1914">function pointers</text><polygon fill="#F1F1F1" points="550.75,151.6406,737.75,151.6406,727.75,186.7344,540.75,186.7344" style="stroke:#181818;stroke-width:0.5;"/><text fill="#000000" font-family="sans-serif" font-size="12" lengthAdjust="spacing" textLength="177" x="550.75" y="174.0977">create relaisX_safe_setWrapper</text><line style="stroke:#181818;stroke-width:1.5;" x1="393.25" x2="639.25" y1="221.8281" y2="221.8281"/><rect fill="#F1F1F1" height="35.0938" rx="12.5" ry="12.5" style="stroke:#181818;stroke-width:0.5;" width="132" x="444.75" y="258.3281"/><text fill="#000000" font-family="sans-serif" font-size="12" lengthAdjust="spacing" textLength="112" x="454.75" y="280.7852">create relais_srv_ctx</text><line style="stroke:#181818;stroke-width:1.5;" x1="129.5" x2="510.75" y1="348.4688" y2="348.4688"/><rect fill="#F1F1F1" height="35.0938" rx="12.5" ry="12.5" style="stroke:#181818;stroke-width:0.5;" width="240" x="259" y="383.5156"/><text fill="#000000" font-family="sans-serif" font-size="12" lengthAdjust="spacing" textLength="220" x="269" y="405.9727">create bt_mesh_model for relais_server</text><line style="stroke:none;stroke-width:1.5;" x1="931.25" x2="1257.25" y1="115.0469" y2="115.0469"/><polygon fill="#F1F1F1" points="747.75,136.5469,1114.75,136.5469,1124.75,169.1875,1114.75,201.8281,747.75,201.8281" style="stroke:#181818;stroke-width:0.5;"/><text fill="#000000" font-family="sans-serif" font-size="12" lengthAdjust="spacing" textLength="183" x="757.75" y="159.0039">create bt_mesh_lvl_srv_handlers</text><text fill="#000000" font-family="sans-serif" font-size="12" lengthAdjust="spacing" textLength="347" x="757.75" y="174.0977">by giving dimmable_set, dimmable_get &amp; dimmable_move_set</text><text fill="#000000" font-family="sans-serif" font-size="12" lengthAdjust="spacing" textLength="91" x="757.75" y="189.1914">function pointers</text><polygon fill="#F1F1F1" points="1162.75,151.6406,1361.75,151.6406,1351.75,186.7344,1152.75,186.7344" style="stroke:#181818;stroke-width:0.5;"/><text fill="#000000" font-family="sans-serif" font-size="12" lengthAdjust="spacing" textLength="189" x="1162.75" y="174.0977">create dimmerX_safe_setWrapper</text><line style="stroke:#181818;stroke-width:1.5;" x1="931.25" x2="1257.25" y1="221.8281" y2="221.8281"/><rect fill="#F1F1F1" height="35.0938" rx="12.5" ry="12.5" style="stroke:#181818;stroke-width:0.5;" width="175" x="967.25" y="258.3281"/><text fill="#000000" font-family="sans-serif" font-size="12" lengthAdjust="spacing" textLength="155" x="977.25" y="280.7852">create dimmable_server_ctx</text><rect fill="#F1F1F1" height="35.0938" rx="12.5" ry="12.5" style="stroke:#181818;stroke-width:0.5;" width="234" x="937.75" y="328.4219"/><text fill="#000000" font-family="sans-serif" font-size="12" lengthAdjust="spacing" textLength="214" x="947.75" y="350.8789">create bt_mesh_model for level_server</text><polygon fill="#F1F1F1" points="1393.75,171.5938,1584.75,171.5938,1594.75,204.2344,1584.75,236.875,1393.75,236.875" style="stroke:#181818;stroke-width:0.5;"/><text fill="#000000" font-family="sans-serif" font-size="12" lengthAdjust="spacing" textLength="125" x="1403.75" y="194.0508">create relais_client_ctx</text><text fill="#000000" font-family="sans-serif" font-size="12" lengthAdjust="spacing" textLength="171" x="1403.75" y="209.1445">by giving relais_status_handler</text><text fill="#000000" font-family="sans-serif" font-size="12" lengthAdjust="spacing" textLength="84" x="1403.75" y="224.2383">function pointer</text><rect fill="#F1F1F1" height="35.0938" rx="12.5" ry="12.5" style="stroke:#181818;stroke-width:0.5;" width="235" x="1371.75" y="271.875"/><text fill="#000000" font-family="sans-serif" font-size="12" lengthAdjust="spacing" textLength="215" x="1381.75" y="294.332">create bt_mesh_model for relais_client</text><polygon fill="#F1F1F1" points="1638.75,171.5938,1823.75,171.5938,1833.75,204.2344,1823.75,236.875,1638.75,236.875" style="stroke:#181818;stroke-width:0.5;"/><text fill="#000000" font-family="sans-serif" font-size="12" lengthAdjust="spacing" textLength="119" x="1648.75" y="194.0508">create level_client_ctx</text><text fill="#000000" font-family="sans-serif" font-size="12" lengthAdjust="spacing" textLength="165" x="1648.75" y="209.1445">by giving level_status_handler</text><text fill="#000000" font-family="sans-serif" font-size="12" lengthAdjust="spacing" textLength="84" x="1648.75" y="224.2383">function pointer</text><rect fill="#F1F1F1" height="35.0938" rx="12.5" ry="12.5" style="stroke:#181818;stroke-width:0.5;" width="229" x="1616.75" y="271.875"/><text fill="#000000" font-family="sans-serif" font-size="12" lengthAdjust="spacing" textLength="209" x="1626.75" y="294.332">create bt_mesh_model for level_client</text><line style="stroke:#181818;stroke-width:1.5;" x1="379" x2="1731.25" y1="438.6094" y2="438.6094"/><rect fill="#F1F1F1" height="35.0938" rx="12.5" ry="12.5" style="stroke:#181818;stroke-width:0.5;" width="171" x="828.5" y="458.6094"/><text fill="#000000" font-family="sans-serif" font-size="12" lengthAdjust="spacing" textLength="151" x="838.5" y="481.0664">create bt_mesh_elem array</text><rect fill="#F1F1F1" height="35.0938" rx="12.5" ry="12.5" style="stroke:#181818;stroke-width:0.5;" width="144" x="842" y="513.7031"/><text fill="#000000" font-family="sans-serif" font-size="12" lengthAdjust="spacing" textLength="124" x="852" y="536.1602">create bt_mesh_comp</text><rect fill="none" height="394.2891" style="stroke:#000000;stroke-width:1.5;" width="580" x="752" y="558.7969"/><path d="M882,558.7969 L882,569.4063 L872,579.4063 L752,579.4063 " fill="none" style="stroke:#000000;stroke-width:1.5;"/><text fill="#000000" font-family="sans-serif" font-size="14" lengthAdjust="spacing" textLength="120" x="755" y="574.3301">model_handler_init</text><rect fill="#F1F1F1" height="35.0938" rx="12.5" ry="12.5" style="stroke:#181818;stroke-width:0.5;" width="98" x="865" y="596.4063"/><text fill="#000000" font-family="sans-serif" font-size="12" lengthAdjust="spacing" textLength="78" x="875" y="618.8633">initialize gpios</text><rect fill="#F1F1F1" height="35.0938" rx="12.5" ry="12.5" style="stroke:#181818;stroke-width:0.5;" width="119" x="854.5" y="651.5"/><text fill="#000000" font-family="sans-serif" font-size="12" lengthAdjust="spacing" textLength="99" x="864.5" y="673.957">initialize interrupts</text><path d="M1002,702.7891 L1002,720.1406 L982,724.1406 L1002,728.1406 L1002,745.4922 A0,0 0 0 0 1002,745.4922 L1232,745.4922 A0,0 0 0 0 1232,745.4922 L1232,712.7891 L1222,702.7891 L1002,702.7891 A0,0 0 0 0 1002,702.7891 " fill="#FEFFDD" style="stroke:#181818;stroke-width:0.5;"/><path d="M1222,702.7891 L1222,712.7891 L1232,712.7891 L1222,702.7891 " fill="#FEFFDD" style="stroke:#181818;stroke-width:0.5;"/><text fill="#000000" font-family="sans-serif" font-size="13" lengthAdjust="spacing" textLength="168" x="1008" y="721.2842">for this, an empty instance of</text><text fill="#000000" font-family="sans-serif" font-size="13" lengthAdjust="spacing" textLength="209" x="1008" y="737.6357">"onOff_dim_decider_data" is needed</text><rect fill="#F1F1F1" height="35.0938" rx="12.5" ry="12.5" style="stroke:#181818;stroke-width:0.5;" width="136" x="846" y="706.5938"/><text fill="#000000" font-family="sans-serif" font-size="12" lengthAdjust="spacing" textLength="116" x="856" y="729.0508">initialize dim_decider</text><path d="M1086,755.4922 L1086,789.1953 L1066,793.1953 L1086,797.1953 L1086,830.8984 A0,0 0 0 0 1086,830.8984 L1322,830.8984 A0,0 0 0 0 1322,830.8984 L1322,765.4922 L1312,755.4922 L1086,755.4922 A0,0 0 0 0 1086,755.4922 " fill="#FEFFDD" style="stroke:#181818;stroke-width:0.5;"/><path d="M1312,755.4922 L1312,765.4922 L1322,765.4922 L1312,755.4922 " fill="#FEFFDD" style="stroke:#181818;stroke-width:0.5;"/><text fill="#000000" font-family="sans-serif" font-size="13" lengthAdjust="spacing" textLength="149" x="1092" y="773.9873">for every output you need:</text><ellipse cx="1097.5" cy="785.6953" fill="#000000" rx="2.5" ry="2.5" style="stroke:#000000;stroke-width:0.0;"/><text fill="#000000" font-family="sans-serif" font-size="13" lengthAdjust="spacing" textLength="203" x="1104" y="790.3389">the temperature watchdog instance</text><ellipse cx="1097.5" cy="802.0469" fill="#000000" rx="2.5" ry="2.5" style="stroke:#000000;stroke-width:0.0;"/><text fill="#000000" font-family="sans-serif" font-size="13" lengthAdjust="spacing" textLength="174" x="1104" y="806.6904">the created output_cmd struct</text><ellipse cx="1097.5" cy="818.3984" fill="#000000" rx="2.5" ry="2.5" style="stroke:#000000;stroke-width:0.0;"/><text fill="#000000" font-family="sans-serif" font-size="13" lengthAdjust="spacing" textLength="194" x="1104" y="823.042">a cmd_number (usually via enum)</text><rect fill="#F1F1F1" height="35.0938" rx="12.5" ry="12.5" style="stroke:#181818;stroke-width:0.5;" width="304" x="762" y="775.6484"/><text fill="#000000" font-family="sans-serif" font-size="12" lengthAdjust="spacing" textLength="284" x="772" y="798.1055">register output commands to temperature watchdog</text><rect fill="#F1F1F1" height="35.0938" rx="12.5" ry="12.5" style="stroke:#181818;stroke-width:0.5;" width="263" x="782.5" y="850.8984"/><text fill="#000000" font-family="sans-serif" font-size="12" lengthAdjust="spacing" textLength="243" x="792.5" y="873.3555">initialize work queue items of model classes</text><rect fill="#F1F1F1" height="35.0938" style="stroke:#181818;stroke-width:0.5;" width="123" x="852.5" y="905.9922"/><line style="stroke:#181818;stroke-width:0.5;" x1="857.5" x2="857.5" y1="905.9922" y2="941.0859"/><line style="stroke:#181818;stroke-width:0.5;" x1="970.5" x2="970.5" y1="905.9922" y2="941.0859"/><text fill="#000000" font-family="sans-serif" font-size="12" lengthAdjust="spacing" textLength="103" x="862.5" y="928.4492">return composition</text><ellipse cx="914" cy="984.0859" fill="none" rx="11" ry="11" style="stroke:#222222;stroke-width:1.0;"/><ellipse cx="914" cy="984.0859" fill="#222222" rx="6" ry="6" style="stroke:#111111;stroke-width:1.0;"/><line style="stroke:#181818;stroke-width:1.5;stroke-dasharray:1.0,3.0;" x1="129.5" x2="129.5" y1="145.2813" y2="180.2813"/><polygon fill="#181818" points="125.5,170.2813,129.5,180.2813,133.5,170.2813,129.5,174.2813" style="stroke:#181818;stroke-width:1.0;"/><line style="stroke:#181818;stroke-width:1.0;" x1="115.5" x2="115.5" y1="251.875" y2="271.875"/><polygon fill="#181818" points="111.5,261.875,115.5,271.875,119.5,261.875,115.5,265.875" style="stroke:#181818;stroke-width:1.0;"/><line style="stroke:#181818;stroke-width:1.0;" x1="231.5" x2="231.5" y1="251.875" y2="326.9688"/><polygon fill="#181818" points="227.5,316.9688,231.5,326.9688,235.5,316.9688,231.5,320.9688" style="stroke:#181818;stroke-width:1.0;"/><line style="stroke:#181818;stroke-width:1.5;stroke-dasharray:1.0,3.0;" x1="115.5" x2="115.5" y1="306.9688" y2="326.9688"/><polygon fill="#181818" points="111.5,316.9688,115.5,326.9688,119.5,316.9688,115.5,320.9688" style="stroke:#181818;stroke-width:1.0;"/><line style="stroke:#181818;stroke-width:1.5;stroke-dasharray:1.0,3.0;" x1="129.5" x2="129.5" y1="215.375" y2="250.375"/><polygon fill="#181818" points="125.5,240.375,129.5,250.375,133.5,240.375,129.5,244.375" style="stroke:#181818;stroke-width:1.0;"/><line style="stroke:#181818;stroke-width:1.5;stroke-dasharray:1.0,3.0;" x1="393.25" x2="393.25" y1="201.8281" y2="221.8281"/><polygon fill="#181818" points="389.25,211.8281,393.25,221.8281,397.25,211.8281,393.25,215.8281" style="stroke:#181818;stroke-width:1.0;"/><line style="stroke:#181818;stroke-width:1.5;stroke-dasharray:1.0,3.0;" x1="639.25" x2="639.25" y1="186.7344" y2="221.8281"/><polygon fill="#181818" points="635.25,211.8281,639.25,221.8281,643.25,211.8281,639.25,215.8281" style="stroke:#181818;stroke-width:1.0;"/><line style="stroke:#181818;stroke-width:1.5;stroke-dasharray:1.0,3.0;" x1="510.75" x2="510.75" y1="223.3281" y2="258.3281"/><polygon fill="#181818" points="506.75,248.3281,510.75,258.3281,514.75,248.3281,510.75,252.3281" style="stroke:#181818;stroke-width:1.0;"/><line style="stroke:#181818;stroke-width:1.0;" x1="510.75" x2="510.75" y1="71.5" y2="115.0469"/><polygon fill="#181818" points="506.75,105.0469,510.75,115.0469,514.75,105.0469,510.75,109.0469" style="stroke:#181818;stroke-width:1.0;"/><line style="stroke:#181818;stroke-width:1.5;stroke-dasharray:1.0,3.0;" x1="129.5" x2="129.5" y1="328.4688" y2="348.4688"/><polygon fill="#181818" points="125.5,338.4688,129.5,348.4688,133.5,338.4688,129.5,342.4688" style="stroke:#181818;stroke-width:1.0;"/><line style="stroke:#181818;stroke-width:1.5;stroke-dasharray:1.0,3.0;" x1="510.75" x2="510.75" y1="293.4219" y2="348.4688"/><polygon fill="#181818" points="506.75,338.4688,510.75,348.4688,514.75,338.4688,510.75,342.4688" style="stroke:#181818;stroke-width:1.0;"/><line style="stroke:#181818;stroke-width:1.5;stroke-dasharray:1.0,3.0;" x1="379" x2="379" y1="349.9688" y2="383.5156"/><polygon fill="#181818" points="375,373.5156,379,383.5156,383,373.5156,379,377.5156" style="stroke:#181818;stroke-width:1.0;"/><line style="stroke:#181818;stroke-width:1.5;stroke-dasharray:1.0,3.0;" x1="931.25" x2="931.25" y1="201.8281" y2="221.8281"/><polygon fill="#181818" points="927.25,211.8281,931.25,221.8281,935.25,211.8281,931.25,215.8281" style="stroke:#181818;stroke-width:1.0;"/><line style="stroke:#181818;stroke-width:1.5;stroke-dasharray:1.0,3.0;" x1="1257.25" x2="1257.25" y1="186.7344" y2="221.8281"/><polygon fill="#181818" points="1253.25,211.8281,1257.25,221.8281,1261.25,211.8281,1257.25,215.8281" style="stroke:#181818;stroke-width:1.0;"/><line style="stroke:#181818;stroke-width:1.5;stroke-dasharray:1.0,3.0;" x1="1054.75" x2="1054.75" y1="223.3281" y2="258.3281"/><polygon fill="#181818" points="1050.75,248.3281,1054.75,258.3281,1058.75,248.3281,1054.75,252.3281" style="stroke:#181818;stroke-width:1.0;"/><line style="stroke:#181818;stroke-width:1.5;stroke-dasharray:1.0,3.0;" x1="1054.75" x2="1054.75" y1="293.4219" y2="328.4219"/><polygon fill="#181818" points="1050.75,318.4219,1054.75,328.4219,1058.75,318.4219,1054.75,322.4219" style="stroke:#181818;stroke-width:1.0;"/><line style="stroke:#181818;stroke-width:1.5;stroke-dasharray:1.0,3.0;" x1="1489.25" x2="1489.25" y1="236.875" y2="271.875"/><polygon fill="#181818" points="1485.25,261.875,1489.25,271.875,1493.25,261.875,1489.25,265.875" style="stroke:#181818;stroke-width:1.0;"/><line style="stroke:#181818;stroke-width:1.5;stroke-dasharray:1.0,3.0;" x1="1731.25" x2="1731.25" y1="236.875" y2="271.875"/><polygon fill="#181818" points="1727.25,261.875,1731.25,271.875,1735.25,261.875,1731.25,265.875" style="stroke:#181818;stroke-width:1.0;"/><line style="stroke:#181818;stroke-width:1.0;" x1="379" x2="379" y1="51.5" y2="70"/><polygon fill="#181818" points="375,60,379,70,383,60,379,64" style="stroke:#181818;stroke-width:1.0;"/><line style="stroke:#181818;stroke-width:1.0;" x1="1054.75" x2="1054.75" y1="51.5" y2="115.0469"/><polygon fill="#181818" points="1050.75,105.0469,1054.75,115.0469,1058.75,105.0469,1054.75,109.0469" style="stroke:#181818;stroke-width:1.0;"/><line style="stroke:#181818;stroke-width:1.5;stroke-dasharray:1.0,3.0;" x1="379" x2="379" y1="418.6094" y2="438.6094"/><polygon fill="#181818" points="375,428.6094,379,438.6094,383,428.6094,379,432.6094" style="stroke:#181818;stroke-width:1.0;"/><line style="stroke:#181818;stroke-width:1.5;stroke-dasharray:1.0,3.0;" x1="1054.75" x2="1054.75" y1="363.5156" y2="438.6094"/><polygon fill="#181818" points="1050.75,428.6094,1054.75,438.6094,1058.75,428.6094,1054.75,432.6094" style="stroke:#181818;stroke-width:1.0;"/><line style="stroke:#181818;stroke-width:1.5;stroke-dasharray:1.0,3.0;" x1="1489.25" x2="1489.25" y1="306.9688" y2="438.6094"/><polygon fill="#181818" points="1485.25,428.6094,1489.25,438.6094,1493.25,428.6094,1489.25,432.6094" style="stroke:#181818;stroke-width:1.0;"/><line style="stroke:#181818;stroke-width:1.5;stroke-dasharray:1.0,3.0;" x1="1731.25" x2="1731.25" y1="306.9688" y2="438.6094"/><polygon fill="#181818" points="1727.25,428.6094,1731.25,438.6094,1735.25,428.6094,1731.25,432.6094" style="stroke:#181818;stroke-width:1.0;"/><line style="stroke:#181818;stroke-width:1.0;" x1="914" x2="914" y1="30" y2="50"/><polygon fill="#181818" points="910,40,914,50,918,40,914,44" style="stroke:#181818;stroke-width:1.0;"/><line style="stroke:#181818;stroke-width:1.5;stroke-dasharray:1.0,3.0;" x1="914" x2="914" y1="440.1094" y2="458.6094"/><polygon fill="#181818" points="910,448.6094,914,458.6094,918,448.6094,914,452.6094" style="stroke:#181818;stroke-width:1.0;"/><line style="stroke:#181818;stroke-width:1.5;stroke-dasharray:1.0,3.0;" x1="914" x2="914" y1="493.7031" y2="513.7031"/><polygon fill="#181818" points="910,503.7031,914,513.7031,918,503.7031,914,507.7031" style="stroke:#181818;stroke-width:1.0;"/><line style="stroke:#181818;stroke-width:1.0;" x1="914" x2="914" y1="631.5" y2="651.5"/><polygon fill="#181818" points="910,641.5,914,651.5,918,641.5,914,645.5" style="stroke:#181818;stroke-width:1.0;"/><line style="stroke:#181818;stroke-width:1.0;" x1="914" x2="914" y1="686.5938" y2="706.5938"/><polygon fill="#181818" points="910,696.5938,914,706.5938,918,696.5938,914,700.5938" style="stroke:#181818;stroke-width:1.0;"/><line style="stroke:#181818;stroke-width:1.0;" x1="914" x2="914" y1="741.6875" y2="775.6484"/><polygon fill="#181818" points="910,765.6484,914,775.6484,918,765.6484,914,769.6484" style="stroke:#181818;stroke-width:1.0;"/><line style="stroke:#181818;stroke-width:1.0;" x1="914" x2="914" y1="810.7422" y2="850.8984"/><polygon fill="#181818" points="910,840.8984,914,850.8984,918,840.8984,914,844.8984" style="stroke:#181818;stroke-width:1.0;"/><line style="stroke:#181818;stroke-width:1.0;" x1="914" x2="914" y1="885.9922" y2="905.9922"/><polygon fill="#181818" points="910,895.9922,914,905.9922,918,895.9922,914,899.9922" style="stroke:#181818;stroke-width:1.0;"/><line style="stroke:#181818;stroke-width:1.0;" x1="914" x2="914" y1="548.7969" y2="596.4063"/><polygon fill="#181818" points="910,586.4063,914,596.4063,918,586.4063,914,590.4063" style="stroke:#181818;stroke-width:1.0;"/><line style="stroke:#181818;stroke-width:1.0;" x1="914" x2="914" y1="941.0859" y2="973.0859"/><polygon fill="#181818" points="910,963.0859,914,973.0859,918,963.0859,914,967.0859" style="stroke:#181818;stroke-width:1.0;"/><!--SRC=[hLPBRjim4Dth50ClchP8q7qCv0fTja1H23GvaeXIf4eEbRgVktSeshAio4fYn2kJ6hvvdw7bGC9J4JgZgG3-dBwbpmqqA0mry0va3EHQ_HiXeE-rn31MtNrhj59elzyzZ7ltqgCWX1sLBOQcp3XbEek-bBknSBU7MlVQrY28q99sjdIM6qwMLJMMLz7Aj0cTqvRGXuS93UNuZ7e93TzlLy-Tsp0WAQoqFI6rJg4fkxZRdfKjWOs086gXxRFrQDMCm4MACyGRy6Y43f1zNf6pbDcIOSwo-ycliX5M6JRyhFoKNcxC0HDdTrZKUDvq9Rphl5lNa5byBOEeC17xuaNNeV_qHW6SjnayalJhyboTeywVpeqVvWigvq_EfaYtYuVd3js0mPwFJyPWhkVvAsjwinpyANIbsrRipE3kxMbL3qCmBblN3nNNNkAb_DS4fCReLtA_Bfc9sFmZTWpxvL4EgRmooSEDbaRpps6nf7qsYBaoqIkMhoW9Yk4OQx4KoCDr8vexlsv4Nw0hktPHri7KjrSrxVjKr6befhjpD3JOWl1UxBUhTTArtRRe-6Mi1ygR_7uvo2crrRI1FvbmMcXXqhkuxhGBsoVRWrmVErfuncDSAfHQ7KVGkZGxkcvo2aavDJhSWh20RKTxXcDthKHm5Gmr6sS_ysjX0bKgGM83FAWMKQ4QxrL2pnmyrZemBt2HkaZ0abkM5u0S43T2pmbwX4T1ib6kliYEO_7x8yhUnQ7b_V3u8rF7HRHHnAGkPw0EKALiEL7oKTAXHW1lbJQsEsRzFeOeZDb3hmKhY-s71OqJdn-T_m4_8qQEWmc5P5wUBMb427YCnYFpjCcDpeKX_B_5luB_R7N_0G00]--></g></svg>